<ttFont>
    <TTGlyph name="" xMin="-773" yMin="1291" xMax="-382" yMax="2078">
      <contour>
        <pt x="-577" y="1672" on="1"/>
        <pt x="-528" y="1672" on="0"/>
        <pt x="-434" y="1623" on="0"/>
        <pt x="-382" y="1531" on="0"/>
        <pt x="-382" y="1481" on="1"/>
        <pt x="-382" y="1432" on="0"/>
        <pt x="-433" y="1341" on="0"/>
        <pt x="-526" y="1291" on="0"/>
        <pt x="-577" y="1291" on="1"/>
        <pt x="-628" y="1291" on="0"/>
        <pt x="-721" y="1341" on="0"/>
        <pt x="-773" y="1432" on="0"/>
        <pt x="-773" y="1481" on="1"/>
        <pt x="-773" y="1531" on="0"/>
        <pt x="-720" y="1623" on="0"/>
        <pt x="-627" y="1672" on="0"/>
      </contour>
      <contour>
        <pt x="-597" y="1564" on="0"/>
        <pt x="-636" y="1543" on="0"/>
        <pt x="-659" y="1505" on="0"/>
        <pt x="-659" y="1484" on="1"/>
        <pt x="-659" y="1463" on="0"/>
        <pt x="-637" y="1425" on="0"/>
        <pt x="-598" y="1404" on="0"/>
        <pt x="-577" y="1404" on="1"/>
        <pt x="-555" y="1404" on="0"/>
        <pt x="-516" y="1425" on="0"/>
        <pt x="-495" y="1463" on="0"/>
        <pt x="-495" y="1484" on="1"/>
        <pt x="-495" y="1505" on="0"/>
        <pt x="-517" y="1543" on="0"/>
        <pt x="-556" y="1564" on="0"/>
        <pt x="-577" y="1564" on="1"/>
      </contour>
      <contour>
        <pt x="-626" y="2078" on="1"/>
        <pt x="-504" y="2078" on="1"/>
        <pt x="-504" y="1760" on="1"/>
        <pt x="-626" y="1760" on="1"/>
      </contour>
    </TTGlyph>
    <TTGlyph name="#1" xMin="-773" yMin="1291" xMax="-374" yMax="2096">
      <contour>
        <pt x="-577" y="1672" on="1"/>
        <pt x="-528" y="1672" on="0"/>
        <pt x="-434" y="1623" on="0"/>
        <pt x="-382" y="1531" on="0"/>
        <pt x="-382" y="1481" on="1"/>
        <pt x="-382" y="1432" on="0"/>
        <pt x="-433" y="1341" on="0"/>
        <pt x="-526" y="1291" on="0"/>
        <pt x="-577" y="1291" on="1"/>
        <pt x="-628" y="1291" on="0"/>
        <pt x="-721" y="1341" on="0"/>
        <pt x="-773" y="1432" on="0"/>
        <pt x="-773" y="1481" on="1"/>
        <pt x="-773" y="1531" on="0"/>
        <pt x="-720" y="1623" on="0"/>
        <pt x="-627" y="1672" on="0"/>
      </contour>
      <contour>
        <pt x="-597" y="1564" on="0"/>
        <pt x="-636" y="1543" on="0"/>
        <pt x="-659" y="1505" on="0"/>
        <pt x="-659" y="1484" on="1"/>
        <pt x="-659" y="1463" on="0"/>
        <pt x="-637" y="1425" on="0"/>
        <pt x="-598" y="1404" on="0"/>
        <pt x="-577" y="1404" on="1"/>
        <pt x="-555" y="1404" on="0"/>
        <pt x="-516" y="1425" on="0"/>
        <pt x="-495" y="1463" on="0"/>
        <pt x="-495" y="1484" on="1"/>
        <pt x="-495" y="1505" on="0"/>
        <pt x="-517" y="1543" on="0"/>
        <pt x="-556" y="1564" on="0"/>
        <pt x="-577" y="1564" on="1"/>
      </contour>
      <contour>
        <pt x="-495" y="1748" on="1"/>
        <pt x="-614" y="1748" on="1"/>
        <pt x="-614" y="1866" on="1"/>
        <pt x="-734" y="1866" on="1"/>
        <pt x="-734" y="1977" on="1"/>
        <pt x="-614" y="1977" on="1"/>
        <pt x="-614" y="2096" on="1"/>
        <pt x="-495" y="2096" on="1"/>
        <pt x="-495" y="1977" on="1"/>
        <pt x="-374" y="1977" on="1"/>
        <pt x="-374" y="1866" on="1"/>
        <pt x="-495" y="1866" on="1"/>
      </contour>
    </TTGlyph>
    <TTGlyph name="#10" xMin="-424" yMin="1292" xMax="426" yMax="1652">
      <contour>
        <pt x="-183" y="1454" on="1"/>
        <pt x="-193" y="1520" on="0"/>
        <pt x="-246" y="1520" on="1"/>
        <pt x="-268" y="1520" on="0"/>
        <pt x="-293" y="1505" on="0"/>
        <pt x="-306" y="1485" on="0"/>
        <pt x="-310" y="1462" on="0"/>
        <pt x="-310" y="1455" on="1"/>
        <pt x="-310" y="1424" on="0"/>
        <pt x="-290" y="1408" on="1"/>
        <pt x="-273" y="1393" on="0"/>
        <pt x="-254" y="1393" on="1"/>
        <pt x="-249" y="1393" on="1"/>
        <pt x="-218" y="1393" on="0"/>
        <pt x="-187" y="1426" on="0"/>
      </contour>
      <contour>
        <pt x="287" y="1292" on="1"/>
        <pt x="287" y="1298" on="1"/>
        <pt x="287" y="1533" on="0"/>
        <pt x="48" y="1533" on="1"/>
        <pt x="-111" y="1533" on="1"/>
        <pt x="-91" y="1501" on="0"/>
        <pt x="-83" y="1478" on="1"/>
        <pt x="-80" y="1466" on="0"/>
        <pt x="-80" y="1452" on="1"/>
        <pt x="-80" y="1439" on="0"/>
        <pt x="-83" y="1424" on="1"/>
        <pt x="-91" y="1393" on="0"/>
        <pt x="-128" y="1331" on="0"/>
        <pt x="-168" y="1308" on="0"/>
        <pt x="-196" y="1300" on="1"/>
        <pt x="-223" y="1292" on="0"/>
        <pt x="-250" y="1292" on="1"/>
        <pt x="-252" y="1292" on="0"/>
        <pt x="-254" y="1293" on="1"/>
        <pt x="-284" y="1293" on="0"/>
        <pt x="-353" y="1315" on="0"/>
        <pt x="-389" y="1351" on="0"/>
        <pt x="-402" y="1373" on="1"/>
        <pt x="-424" y="1422" on="0"/>
        <pt x="-424" y="1444" on="1"/>
        <pt x="-424" y="1445" on="1"/>
        <pt x="-424" y="1465" on="0"/>
        <pt x="-408" y="1538" on="0"/>
        <pt x="-397" y="1549" on="1"/>
        <pt x="-367" y="1598" on="0"/>
        <pt x="-266" y="1640" on="0"/>
        <pt x="-146" y="1652" on="0"/>
        <pt x="-87" y="1652" on="1"/>
        <pt x="45" y="1652" on="1"/>
        <pt x="408" y="1652" on="0"/>
        <pt x="426" y="1292" on="1"/>
      </contour>
    </TTGlyph>
    <TTGlyph name="#11" xMin="100" yMin="-832" xMax="662" yMax="1140">
      <contour>
        <pt x="387" y="-575" on="1"/>
        <pt x="387" y="-558" on="0"/>
        <pt x="359" y="-534" on="0"/>
        <pt x="343" y="-534" on="1"/>
        <pt x="324" y="-534" on="0"/>
        <pt x="309" y="-546" on="1"/>
        <pt x="295" y="-558" on="0"/>
        <pt x="295" y="-574" on="1"/>
        <pt x="295" y="-576" on="1"/>
        <pt x="295" y="-590" on="0"/>
        <pt x="324" y="-618" on="0"/>
        <pt x="343" y="-618" on="1"/>
        <pt x="359" y="-618" on="0"/>
        <pt x="387" y="-589" on="0"/>
      </contour>
      <contour>
        <pt x="516" y="-662" on="1"/>
        <pt x="515" y="-662" on="1"/>
        <pt x="502" y="-696" on="0"/>
        <pt x="485" y="-724" on="0"/>
        <pt x="456" y="-758" on="0"/>
        <pt x="419" y="-794" on="0"/>
        <pt x="360" y="-832" on="1"/>
        <pt x="244" y="-775" on="1"/>
        <pt x="291" y="-755" on="0"/>
        <pt x="354" y="-696" on="0"/>
        <pt x="364" y="-672" on="1"/>
        <pt x="329" y="-681" on="0"/>
        <pt x="310" y="-682" on="1"/>
        <pt x="307" y="-682" on="1"/>
        <pt x="288" y="-682" on="0"/>
        <pt x="258" y="-670" on="1"/>
        <pt x="210" y="-648" on="0"/>
        <pt x="188" y="-597" on="0"/>
        <pt x="188" y="-558" on="1"/>
        <pt x="200" y="-513" on="0"/>
        <pt x="228" y="-482" on="0"/>
        <pt x="272" y="-457" on="0"/>
        <pt x="310" y="-447" on="0"/>
        <pt x="360" y="-446" on="1"/>
        <pt x="365" y="-446" on="1"/>
        <pt x="378" y="-446" on="0"/>
        <pt x="442" y="-469" on="0"/>
        <pt x="495" y="-510" on="0"/>
        <pt x="511" y="-551" on="1"/>
        <pt x="521" y="-575" on="0"/>
        <pt x="521" y="-610" on="1"/>
        <pt x="521" y="-633" on="0"/>
      </contour>
      <contour>
        <pt x="231" y="972" on="0"/>
        <pt x="231" y="902" on="1"/>
        <pt x="231" y="832" on="0"/>
        <pt x="300" y="832" on="1"/>
        <pt x="369" y="832" on="0"/>
        <pt x="369" y="902" on="1"/>
        <pt x="369" y="972" on="0"/>
        <pt x="300" y="972" on="1"/>
      </contour>
      <contour>
        <pt x="183" y="-420" on="0"/>
        <pt x="100" y="-411" on="0"/>
        <pt x="100" y="-343" on="1"/>
        <pt x="100" y="-282" on="0"/>
        <pt x="135" y="-282" on="1"/>
        <pt x="142" y="-282" on="1"/>
        <pt x="184" y="-289" on="0"/>
        <pt x="215" y="-290" on="1"/>
        <pt x="308" y="-286" on="0"/>
        <pt x="411" y="-259" on="0"/>
        <pt x="497" y="-182" on="0"/>
        <pt x="527" y="-84" on="0"/>
        <pt x="527" y="20" on="1"/>
        <pt x="527" y="834" on="1"/>
        <pt x="527" y="983" on="0"/>
        <pt x="420" y="996" on="1"/>
        <pt x="462" y="955" on="0"/>
        <pt x="462" y="902" on="1"/>
        <pt x="462" y="729" on="0"/>
        <pt x="321" y="729" on="1"/>
        <pt x="305" y="727" on="0"/>
        <pt x="290" y="727" on="1"/>
        <pt x="139" y="727" on="0"/>
        <pt x="119" y="912" on="1"/>
        <pt x="145" y="1140" on="0"/>
        <pt x="370" y="1140" on="1"/>
        <pt x="662" y="1140" on="0"/>
        <pt x="662" y="828" on="1"/>
        <pt x="662" y="-148" on="1"/>
        <pt x="662" y="-229" on="0"/>
        <pt x="521" y="-371" on="0"/>
        <pt x="352" y="-418" on="0"/>
        <pt x="208" y="-422" on="1"/>
      </contour>
    </TTGlyph>
    <TTGlyph name="#12" xMin="98" yMin="-831" xMax="662" yMax="1140">
      <contour>
        <pt x="185" y="-539" on="0"/>
        <pt x="174" y="-558" on="0"/>
        <pt x="174" y="-568" on="1"/>
        <pt x="174" y="-579" on="0"/>
        <pt x="185" y="-597" on="0"/>
        <pt x="203" y="-608" on="0"/>
        <pt x="236" y="-610" on="1"/>
        <pt x="253" y="-587" on="0"/>
        <pt x="253" y="-568" on="1"/>
        <pt x="253" y="-558" on="0"/>
        <pt x="242" y="-539" on="0"/>
        <pt x="224" y="-528" on="0"/>
        <pt x="214" y="-528" on="1"/>
        <pt x="204" y="-528" on="0"/>
      </contour>
      <contour>
        <pt x="308" y="-633" on="1"/>
        <pt x="298" y="-663" on="0"/>
        <pt x="298" y="-690" on="1"/>
        <pt x="298" y="-703" on="0"/>
        <pt x="300" y="-715" on="1"/>
        <pt x="307" y="-735" on="0"/>
        <pt x="343" y="-735" on="1"/>
        <pt x="378" y="-735" on="0"/>
        <pt x="378" y="-620" on="1"/>
        <pt x="378" y="-460" on="1"/>
        <pt x="488" y="-460" on="1"/>
        <pt x="488" y="-625" on="1"/>
        <pt x="488" y="-831" on="0"/>
        <pt x="343" y="-831" on="1"/>
        <pt x="240" y="-831" on="0"/>
        <pt x="211" y="-766" on="1"/>
        <pt x="199" y="-739" on="0"/>
        <pt x="199" y="-713" on="1"/>
        <pt x="199" y="-691" on="0"/>
        <pt x="208" y="-670" on="1"/>
        <pt x="181" y="-670" on="0"/>
        <pt x="156" y="-656" on="1"/>
        <pt x="129" y="-642" on="0"/>
        <pt x="98" y="-592" on="0"/>
        <pt x="98" y="-565" on="1"/>
        <pt x="98" y="-537" on="0"/>
        <pt x="129" y="-486" on="0"/>
        <pt x="183" y="-460" on="0"/>
        <pt x="211" y="-460" on="1"/>
        <pt x="240" y="-460" on="0"/>
        <pt x="293" y="-486" on="0"/>
        <pt x="323" y="-537" on="0"/>
        <pt x="323" y="-565" on="1"/>
        <pt x="323" y="-590" on="0"/>
      </contour>
      <contour>
        <pt x="231" y="972" on="0"/>
        <pt x="231" y="902" on="1"/>
        <pt x="231" y="832" on="0"/>
        <pt x="300" y="832" on="1"/>
        <pt x="369" y="832" on="0"/>
        <pt x="369" y="902" on="1"/>
        <pt x="369" y="972" on="0"/>
        <pt x="300" y="972" on="1"/>
      </contour>
      <contour>
        <pt x="183" y="-420" on="0"/>
        <pt x="100" y="-411" on="0"/>
        <pt x="100" y="-343" on="1"/>
        <pt x="100" y="-282" on="0"/>
        <pt x="135" y="-282" on="1"/>
        <pt x="142" y="-282" on="1"/>
        <pt x="184" y="-289" on="0"/>
        <pt x="215" y="-290" on="1"/>
        <pt x="308" y="-286" on="0"/>
        <pt x="411" y="-259" on="0"/>
        <pt x="497" y="-182" on="0"/>
        <pt x="527" y="-84" on="0"/>
        <pt x="527" y="20" on="1"/>
        <pt x="527" y="834" on="1"/>
        <pt x="527" y="983" on="0"/>
        <pt x="420" y="996" on="1"/>
        <pt x="462" y="955" on="0"/>
        <pt x="462" y="902" on="1"/>
        <pt x="462" y="729" on="0"/>
        <pt x="321" y="729" on="1"/>
        <pt x="305" y="727" on="0"/>
        <pt x="290" y="727" on="1"/>
        <pt x="139" y="727" on="0"/>
        <pt x="119" y="912" on="1"/>
        <pt x="145" y="1140" on="0"/>
        <pt x="370" y="1140" on="1"/>
        <pt x="662" y="1140" on="0"/>
        <pt x="662" y="828" on="1"/>
        <pt x="662" y="-148" on="1"/>
        <pt x="662" y="-229" on="0"/>
        <pt x="521" y="-371" on="0"/>
        <pt x="352" y="-418" on="0"/>
        <pt x="208" y="-422" on="1"/>
      </contour>
    </TTGlyph>
    <TTGlyph name="#13" xMin="-1018" yMin="-824" xMax="-112" yMax="-145">
      <contour>
        <pt x="-572" y="-567" on="1"/>
        <pt x="-572" y="-550" on="0"/>
        <pt x="-600" y="-526" on="0"/>
        <pt x="-616" y="-526" on="1"/>
        <pt x="-635" y="-526" on="0"/>
        <pt x="-650" y="-538" on="1"/>
        <pt x="-664" y="-550" on="0"/>
        <pt x="-664" y="-566" on="1"/>
        <pt x="-664" y="-568" on="1"/>
        <pt x="-664" y="-582" on="0"/>
        <pt x="-635" y="-610" on="0"/>
        <pt x="-616" y="-610" on="1"/>
        <pt x="-600" y="-610" on="0"/>
        <pt x="-572" y="-581" on="0"/>
      </contour>
      <contour>
        <pt x="-443" y="-654" on="1"/>
        <pt x="-444" y="-654" on="1"/>
        <pt x="-457" y="-688" on="0"/>
        <pt x="-474" y="-716" on="0"/>
        <pt x="-503" y="-750" on="0"/>
        <pt x="-540" y="-786" on="0"/>
        <pt x="-599" y="-824" on="1"/>
        <pt x="-715" y="-767" on="1"/>
        <pt x="-668" y="-747" on="0"/>
        <pt x="-605" y="-688" on="0"/>
        <pt x="-595" y="-664" on="1"/>
        <pt x="-630" y="-673" on="0"/>
        <pt x="-649" y="-674" on="1"/>
        <pt x="-652" y="-674" on="1"/>
        <pt x="-671" y="-674" on="0"/>
        <pt x="-701" y="-662" on="1"/>
        <pt x="-749" y="-640" on="0"/>
        <pt x="-771" y="-589" on="0"/>
        <pt x="-771" y="-550" on="1"/>
        <pt x="-759" y="-505" on="0"/>
        <pt x="-731" y="-474" on="0"/>
        <pt x="-687" y="-449" on="0"/>
        <pt x="-649" y="-439" on="0"/>
        <pt x="-599" y="-438" on="1"/>
        <pt x="-594" y="-438" on="1"/>
        <pt x="-581" y="-438" on="0"/>
        <pt x="-517" y="-461" on="0"/>
        <pt x="-464" y="-502" on="0"/>
        <pt x="-448" y="-543" on="1"/>
        <pt x="-438" y="-567" on="0"/>
        <pt x="-438" y="-602" on="1"/>
        <pt x="-438" y="-625" on="0"/>
      </contour>
      <contour>
        <pt x="-918" y="-348" on="1"/>
        <pt x="-917" y="-348" on="1"/>
        <pt x="-917" y="-354" on="1"/>
        <pt x="-917" y="-377" on="0"/>
        <pt x="-898" y="-393" on="1"/>
        <pt x="-877" y="-411" on="0"/>
        <pt x="-851" y="-411" on="1"/>
        <pt x="-827" y="-411" on="0"/>
        <pt x="-806" y="-392" on="1"/>
        <pt x="-787" y="-375" on="0"/>
        <pt x="-787" y="-350" on="1"/>
        <pt x="-787" y="-343" on="1"/>
        <pt x="-787" y="-312" on="0"/>
        <pt x="-833" y="-267" on="1"/>
        <pt x="-874" y="-275" on="0"/>
        <pt x="-914" y="-310" on="0"/>
      </contour>
      <contour>
        <pt x="-731" y="-259" on="1"/>
        <pt x="-684" y="-309" on="0"/>
        <pt x="-684" y="-354" on="1"/>
        <pt x="-684" y="-359" on="0"/>
        <pt x="-685" y="-364" on="1"/>
        <pt x="-691" y="-414" on="0"/>
        <pt x="-730" y="-456" on="0"/>
        <pt x="-762" y="-480" on="0"/>
        <pt x="-795" y="-488" on="1"/>
        <pt x="-816" y="-493" on="0"/>
        <pt x="-840" y="-493" on="1"/>
        <pt x="-855" y="-493" on="0"/>
        <pt x="-872" y="-492" on="1"/>
        <pt x="-879" y="-492" on="0"/>
        <pt x="-932" y="-477" on="0"/>
        <pt x="-989" y="-437" on="0"/>
        <pt x="-1011" y="-388" on="0"/>
        <pt x="-1018" y="-339" on="1"/>
        <pt x="-1017" y="-283" on="0"/>
        <pt x="-974" y="-194" on="0"/>
        <pt x="-914" y="-168" on="1"/>
        <pt x="-859" y="-145" on="0"/>
        <pt x="-788" y="-145" on="1"/>
        <pt x="-774" y="-145" on="1"/>
        <pt x="-694" y="-148" on="0"/>
        <pt x="-562" y="-225" on="0"/>
        <pt x="-497" y="-291" on="1"/>
        <pt x="-439" y="-351" on="0"/>
        <pt x="-374" y="-351" on="1"/>
        <pt x="-367" y="-351" on="0"/>
        <pt x="-360" y="-350" on="1"/>
        <pt x="-257" y="-344" on="0"/>
        <pt x="-232" y="-145" on="1"/>
        <pt x="-112" y="-145" on="1"/>
        <pt x="-137" y="-490" on="0"/>
        <pt x="-357" y="-490" on="1"/>
        <pt x="-360" y="-490" on="1"/>
        <pt x="-497" y="-488" on="0"/>
        <pt x="-650" y="-293" on="0"/>
      </contour>
    </TTGlyph>
    <TTGlyph name="#14" xMin="-1018" yMin="-857" xMax="-112" yMax="-145">
      <contour>
        <pt x="-918" y="-348" on="1"/>
        <pt x="-917" y="-348" on="1"/>
        <pt x="-917" y="-354" on="1"/>
        <pt x="-917" y="-377" on="0"/>
        <pt x="-898" y="-393" on="1"/>
        <pt x="-877" y="-411" on="0"/>
        <pt x="-851" y="-411" on="1"/>
        <pt x="-827" y="-411" on="0"/>
        <pt x="-806" y="-392" on="1"/>
        <pt x="-787" y="-375" on="0"/>
        <pt x="-787" y="-350" on="1"/>
        <pt x="-787" y="-343" on="1"/>
        <pt x="-787" y="-312" on="0"/>
        <pt x="-833" y="-267" on="1"/>
        <pt x="-874" y="-275" on="0"/>
        <pt x="-914" y="-310" on="0"/>
      </contour>
      <contour>
        <pt x="-731" y="-259" on="1"/>
        <pt x="-684" y="-309" on="0"/>
        <pt x="-684" y="-354" on="1"/>
        <pt x="-684" y="-359" on="0"/>
        <pt x="-685" y="-364" on="1"/>
        <pt x="-691" y="-414" on="0"/>
        <pt x="-730" y="-456" on="0"/>
        <pt x="-762" y="-480" on="0"/>
        <pt x="-795" y="-488" on="1"/>
        <pt x="-816" y="-493" on="0"/>
        <pt x="-840" y="-493" on="1"/>
        <pt x="-855" y="-493" on="0"/>
        <pt x="-872" y="-492" on="1"/>
        <pt x="-879" y="-492" on="0"/>
        <pt x="-932" y="-477" on="0"/>
        <pt x="-989" y="-437" on="0"/>
        <pt x="-1011" y="-388" on="0"/>
        <pt x="-1018" y="-339" on="1"/>
        <pt x="-1017" y="-283" on="0"/>
        <pt x="-974" y="-194" on="0"/>
        <pt x="-914" y="-168" on="1"/>
        <pt x="-859" y="-145" on="0"/>
        <pt x="-788" y="-145" on="1"/>
        <pt x="-774" y="-145" on="1"/>
        <pt x="-694" y="-148" on="0"/>
        <pt x="-562" y="-225" on="0"/>
        <pt x="-497" y="-291" on="1"/>
        <pt x="-439" y="-351" on="0"/>
        <pt x="-374" y="-351" on="1"/>
        <pt x="-367" y="-351" on="0"/>
        <pt x="-360" y="-350" on="1"/>
        <pt x="-257" y="-344" on="0"/>
        <pt x="-232" y="-145" on="1"/>
        <pt x="-112" y="-145" on="1"/>
        <pt x="-137" y="-490" on="0"/>
        <pt x="-357" y="-490" on="1"/>
        <pt x="-360" y="-490" on="1"/>
        <pt x="-497" y="-488" on="0"/>
        <pt x="-650" y="-293" on="0"/>
      </contour>
      <contour>
        <pt x="-712" y="-581" on="0"/>
        <pt x="-723" y="-599" on="0"/>
        <pt x="-723" y="-608" on="1"/>
        <pt x="-723" y="-619" on="0"/>
        <pt x="-712" y="-636" on="0"/>
        <pt x="-694" y="-646" on="0"/>
        <pt x="-661" y="-648" on="1"/>
        <pt x="-644" y="-626" on="0"/>
        <pt x="-644" y="-608" on="1"/>
        <pt x="-644" y="-599" on="0"/>
        <pt x="-655" y="-581" on="0"/>
        <pt x="-673" y="-570" on="0"/>
        <pt x="-683" y="-570" on="1"/>
        <pt x="-693" y="-570" on="0"/>
      </contour>
      <contour>
        <pt x="-589" y="-670" on="1"/>
        <pt x="-599" y="-698" on="0"/>
        <pt x="-599" y="-724" on="1"/>
        <pt x="-599" y="-736" on="0"/>
        <pt x="-597" y="-747" on="1"/>
        <pt x="-590" y="-766" on="0"/>
        <pt x="-554" y="-766" on="1"/>
        <pt x="-519" y="-766" on="0"/>
        <pt x="-519" y="-657" on="1"/>
        <pt x="-519" y="-506" on="1"/>
        <pt x="-409" y="-506" on="1"/>
        <pt x="-409" y="-662" on="1"/>
        <pt x="-409" y="-857" on="0"/>
        <pt x="-554" y="-857" on="1"/>
        <pt x="-657" y="-857" on="0"/>
        <pt x="-686" y="-796" on="1"/>
        <pt x="-698" y="-770" on="0"/>
        <pt x="-698" y="-745" on="1"/>
        <pt x="-698" y="-724" on="0"/>
        <pt x="-689" y="-705" on="1"/>
        <pt x="-716" y="-705" on="0"/>
        <pt x="-741" y="-691" on="1"/>
        <pt x="-768" y="-678" on="0"/>
        <pt x="-799" y="-631" on="0"/>
        <pt x="-799" y="-605" on="1"/>
        <pt x="-799" y="-579" on="0"/>
        <pt x="-768" y="-531" on="0"/>
        <pt x="-714" y="-506" on="0"/>
        <pt x="-686" y="-506" on="1"/>
        <pt x="-657" y="-506" on="0"/>
        <pt x="-604" y="-531" on="0"/>
        <pt x="-574" y="-579" on="0"/>
        <pt x="-574" y="-605" on="1"/>
        <pt x="-574" y="-629" on="0"/>
      </contour>
    </TTGlyph>
    <TTGlyph name="#15" xMin="-46" yMin="1760" xMax="76" yMax="2078">
      <contour>
        <pt x="-46" y="2078" on="1"/>
        <pt x="76" y="2078" on="1"/>
        <pt x="76" y="1760" on="1"/>
        <pt x="-46" y="1760" on="1"/>
      </contour>
    </TTGlyph>
    <TTGlyph name="#16" xMin="-330" yMin="1760" xMax="379" yMax="2087">
      <contour>
        <pt x="-90" y="1972" on="0"/>
        <pt x="-90" y="1983" on="1"/>
        <pt x="-90" y="1990" on="0"/>
        <pt x="-93" y="1996" on="1"/>
        <pt x="-105" y="2018" on="0"/>
        <pt x="-127" y="2018" on="1"/>
        <pt x="-131" y="2018" on="0"/>
        <pt x="-136" y="2017" on="1"/>
        <pt x="-165" y="2012" on="0"/>
        <pt x="-166" y="1987" on="1"/>
        <pt x="-167" y="1985" on="0"/>
        <pt x="-167" y="1984" on="1"/>
        <pt x="-167" y="1961" on="0"/>
        <pt x="-141" y="1958" on="1"/>
        <pt x="-125" y="1956" on="0"/>
        <pt x="-108" y="1956" on="1"/>
        <pt x="-97" y="1956" on="1"/>
      </contour>
      <contour>
        <pt x="-192" y="1902" on="0"/>
        <pt x="-222" y="1924" on="1"/>
        <pt x="-254" y="1947" on="0"/>
        <pt x="-254" y="1986" on="1"/>
        <pt x="-254" y="1995" on="1"/>
        <pt x="-250" y="2040" on="0"/>
        <pt x="-206" y="2066" on="1"/>
        <pt x="-170" y="2087" on="0"/>
        <pt x="-123" y="2087" on="1"/>
        <pt x="-113" y="2087" on="0"/>
        <pt x="-102" y="2086" on="1"/>
        <pt x="-41" y="2080" on="0"/>
        <pt x="-19" y="2045" on="1"/>
        <pt x="1" y="2013" on="0"/>
        <pt x="1" y="1967" on="1"/>
        <pt x="1" y="1959" on="1"/>
        <pt x="-1" y="1907" on="0"/>
        <pt x="-88" y="1835" on="1"/>
        <pt x="60" y="1844" on="0"/>
        <pt x="218" y="1960" on="0"/>
        <pt x="259" y="2057" on="1"/>
        <pt x="379" y="2007" on="1"/>
        <pt x="318" y="1902" on="0"/>
        <pt x="206" y="1815" on="0"/>
        <pt x="24" y="1760" on="0"/>
        <pt x="-116" y="1760" on="1"/>
        <pt x="-330" y="1760" on="1"/>
        <pt x="-330" y="1820" on="1"/>
        <pt x="-194" y="1844" on="0"/>
        <pt x="-140" y="1897" on="1"/>
      </contour>
    </TTGlyph>
    <TTGlyph name="#17" xMin="-274" yMin="1774" xMax="401" yMax="2086">
      <contour>
        <pt x="168" y="1780" on="1"/>
        <pt x="146" y="1785" on="0"/>
        <pt x="117" y="1815" on="0"/>
        <pt x="113" y="1836" on="1"/>
        <pt x="123" y="1846" on="0"/>
        <pt x="150" y="1864" on="0"/>
        <pt x="164" y="1885" on="0"/>
        <pt x="183" y="1904" on="0"/>
        <pt x="184" y="1927" on="1"/>
        <pt x="177" y="1952" on="0"/>
        <pt x="164" y="1964" on="1"/>
        <pt x="152" y="1975" on="0"/>
        <pt x="125" y="1975" on="1"/>
        <pt x="120" y="1975" on="1"/>
        <pt x="86" y="1949" on="0"/>
        <pt x="18" y="1887" on="0"/>
        <pt x="0" y="1887" on="1"/>
        <pt x="-17" y="1887" on="0"/>
        <pt x="-82" y="1957" on="0"/>
        <pt x="-109" y="1972" on="1"/>
        <pt x="-139" y="1972" on="0"/>
        <pt x="-165" y="1945" on="0"/>
        <pt x="-165" y="1916" on="1"/>
        <pt x="-165" y="1894" on="0"/>
        <pt x="-144" y="1871" on="0"/>
        <pt x="-120" y="1856" on="0"/>
        <pt x="-90" y="1836" on="0"/>
        <pt x="-79" y="1826" on="1"/>
        <pt x="-108" y="1783" on="0"/>
        <pt x="-147" y="1774" on="1"/>
        <pt x="-215" y="1803" on="0"/>
        <pt x="-274" y="1881" on="0"/>
        <pt x="-274" y="1930" on="1"/>
        <pt x="-274" y="1967" on="0"/>
        <pt x="-240" y="2022" on="0"/>
        <pt x="-202" y="2063" on="0"/>
        <pt x="-151" y="2084" on="0"/>
        <pt x="-114" y="2084" on="1"/>
        <pt x="-95" y="2084" on="0"/>
        <pt x="-54" y="2069" on="0"/>
        <pt x="-2" y="2020" on="0"/>
        <pt x="9" y="2008" on="1"/>
        <pt x="36" y="2030" on="0"/>
        <pt x="91" y="2079" on="0"/>
        <pt x="133" y="2086" on="1"/>
        <pt x="166" y="2086" on="0"/>
        <pt x="225" y="2059" on="0"/>
        <pt x="258" y="2020" on="0"/>
        <pt x="268" y="1999" on="1"/>
        <pt x="275" y="1982" on="0"/>
        <pt x="275" y="1960" on="1"/>
        <pt x="275" y="1950" on="1"/>
        <pt x="300" y="1986" on="0"/>
        <pt x="314" y="2031" on="0"/>
        <pt x="326" y="2076" on="1"/>
        <pt x="355" y="2074" on="0"/>
        <pt x="388" y="2053" on="0"/>
        <pt x="400" y="2033" on="1"/>
        <pt x="401" y="2029" on="0"/>
        <pt x="401" y="2024" on="1"/>
        <pt x="401" y="1980" on="0"/>
        <pt x="381" y="1943" on="1"/>
        <pt x="359" y="1902" on="0"/>
        <pt x="296" y="1846" on="0"/>
        <pt x="204" y="1797" on="0"/>
      </contour>
    </TTGlyph>
    <TTGlyph name="#18" xMin="-174" yMin="1748" xMax="186" yMax="2096">
      <contour>
        <pt x="65" y="1748" on="1"/>
        <pt x="-54" y="1748" on="1"/>
        <pt x="-54" y="1866" on="1"/>
        <pt x="-174" y="1866" on="1"/>
        <pt x="-174" y="1977" on="1"/>
        <pt x="-54" y="1977" on="1"/>
        <pt x="-54" y="2096" on="1"/>
        <pt x="65" y="2096" on="1"/>
        <pt x="65" y="1977" on="1"/>
        <pt x="186" y="1977" on="1"/>
        <pt x="186" y="1866" on="1"/>
        <pt x="65" y="1866" on="1"/>
      </contour>
    </TTGlyph>
    <TTGlyph name="#19" xMin="-544" yMin="1293" xMax="-422" yMax="1611">
      <contour>
        <pt x="-544" y="1611" on="1"/>
        <pt x="-422" y="1611" on="1"/>
        <pt x="-422" y="1293" on="1"/>
        <pt x="-544" y="1293" on="1"/>
      </contour>
    </TTGlyph>
    <TTGlyph name="#2" xMin="-784" yMin="1291" xMax="-243" yMax="1974">
      <contour>
        <pt x="-577" y="1672" on="1"/>
        <pt x="-528" y="1672" on="0"/>
        <pt x="-434" y="1623" on="0"/>
        <pt x="-382" y="1531" on="0"/>
        <pt x="-382" y="1481" on="1"/>
        <pt x="-382" y="1432" on="0"/>
        <pt x="-433" y="1341" on="0"/>
        <pt x="-526" y="1291" on="0"/>
        <pt x="-577" y="1291" on="1"/>
        <pt x="-628" y="1291" on="0"/>
        <pt x="-721" y="1341" on="0"/>
        <pt x="-773" y="1432" on="0"/>
        <pt x="-773" y="1481" on="1"/>
        <pt x="-773" y="1531" on="0"/>
        <pt x="-720" y="1623" on="0"/>
        <pt x="-627" y="1672" on="0"/>
      </contour>
      <contour>
        <pt x="-597" y="1564" on="0"/>
        <pt x="-636" y="1543" on="0"/>
        <pt x="-659" y="1505" on="0"/>
        <pt x="-659" y="1484" on="1"/>
        <pt x="-659" y="1463" on="0"/>
        <pt x="-637" y="1425" on="0"/>
        <pt x="-598" y="1404" on="0"/>
        <pt x="-577" y="1404" on="1"/>
        <pt x="-555" y="1404" on="0"/>
        <pt x="-516" y="1425" on="0"/>
        <pt x="-495" y="1463" on="0"/>
        <pt x="-495" y="1484" on="1"/>
        <pt x="-495" y="1505" on="0"/>
        <pt x="-517" y="1543" on="0"/>
        <pt x="-556" y="1564" on="0"/>
        <pt x="-577" y="1564" on="1"/>
      </contour>
      <contour>
        <pt x="-430" y="1729" on="1"/>
        <pt x="-447" y="1733" on="0"/>
        <pt x="-471" y="1757" on="0"/>
        <pt x="-474" y="1774" on="1"/>
        <pt x="-466" y="1782" on="0"/>
        <pt x="-444" y="1796" on="0"/>
        <pt x="-433" y="1813" on="0"/>
        <pt x="-418" y="1828" on="0"/>
        <pt x="-417" y="1847" on="1"/>
        <pt x="-423" y="1867" on="0"/>
        <pt x="-433" y="1877" on="1"/>
        <pt x="-442" y="1885" on="0"/>
        <pt x="-463" y="1885" on="1"/>
        <pt x="-468" y="1885" on="1"/>
        <pt x="-495" y="1864" on="0"/>
        <pt x="-550" y="1815" on="0"/>
        <pt x="-564" y="1815" on="1"/>
        <pt x="-578" y="1815" on="0"/>
        <pt x="-630" y="1871" on="0"/>
        <pt x="-652" y="1883" on="1"/>
        <pt x="-676" y="1883" on="0"/>
        <pt x="-697" y="1861" on="0"/>
        <pt x="-697" y="1838" on="1"/>
        <pt x="-697" y="1820" on="0"/>
        <pt x="-680" y="1802" on="0"/>
        <pt x="-661" y="1790" on="0"/>
        <pt x="-637" y="1774" on="0"/>
        <pt x="-628" y="1766" on="1"/>
        <pt x="-651" y="1731" on="0"/>
        <pt x="-682" y="1724" on="1"/>
        <pt x="-737" y="1747" on="0"/>
        <pt x="-784" y="1810" on="0"/>
        <pt x="-784" y="1849" on="1"/>
        <pt x="-784" y="1879" on="0"/>
        <pt x="-757" y="1923" on="0"/>
        <pt x="-726" y="1956" on="0"/>
        <pt x="-685" y="1972" on="0"/>
        <pt x="-656" y="1972" on="1"/>
        <pt x="-641" y="1972" on="0"/>
        <pt x="-608" y="1960" on="0"/>
        <pt x="-566" y="1921" on="0"/>
        <pt x="-557" y="1912" on="1"/>
        <pt x="-536" y="1929" on="0"/>
        <pt x="-491" y="1968" on="0"/>
        <pt x="-458" y="1974" on="1"/>
        <pt x="-431" y="1974" on="0"/>
        <pt x="-384" y="1952" on="0"/>
        <pt x="-358" y="1921" on="0"/>
        <pt x="-350" y="1904" on="1"/>
        <pt x="-344" y="1890" on="0"/>
        <pt x="-344" y="1874" on="1"/>
        <pt x="-344" y="1865" on="1"/>
        <pt x="-324" y="1894" on="0"/>
        <pt x="-313" y="1930" on="0"/>
        <pt x="-303" y="1966" on="1"/>
        <pt x="-280" y="1964" on="0"/>
        <pt x="-253" y="1948" on="0"/>
        <pt x="-244" y="1932" on="1"/>
        <pt x="-243" y="1928" on="0"/>
        <pt x="-243" y="1924" on="1"/>
        <pt x="-243" y="1889" on="0"/>
        <pt x="-259" y="1859" on="1"/>
        <pt x="-277" y="1827" on="0"/>
        <pt x="-327" y="1782" on="0"/>
        <pt x="-401" y="1742" on="0"/>
      </contour>
    </TTGlyph>
    <TTGlyph name="#20" xMin="-786" yMin="1284" xMax="-77" yMax="1679">
      <contour>
        <pt x="-546" y="1540" on="0"/>
        <pt x="-546" y="1553" on="1"/>
        <pt x="-546" y="1562" on="0"/>
        <pt x="-549" y="1569" on="1"/>
        <pt x="-561" y="1595" on="0"/>
        <pt x="-583" y="1595" on="1"/>
        <pt x="-587" y="1595" on="0"/>
        <pt x="-592" y="1594" on="1"/>
        <pt x="-621" y="1588" on="0"/>
        <pt x="-622" y="1558" on="1"/>
        <pt x="-623" y="1556" on="0"/>
        <pt x="-623" y="1554" on="1"/>
        <pt x="-623" y="1527" on="0"/>
        <pt x="-597" y="1523" on="1"/>
        <pt x="-583" y="1520" on="0"/>
        <pt x="-568" y="1520" on="1"/>
        <pt x="-561" y="1520" on="0"/>
        <pt x="-553" y="1521" on="1"/>
      </contour>
      <contour>
        <pt x="-648" y="1456" on="0"/>
        <pt x="-678" y="1482" on="1"/>
        <pt x="-710" y="1510" on="0"/>
        <pt x="-710" y="1557" on="1"/>
        <pt x="-710" y="1568" on="1"/>
        <pt x="-706" y="1622" on="0"/>
        <pt x="-662" y="1654" on="1"/>
        <pt x="-626" y="1679" on="0"/>
        <pt x="-579" y="1679" on="1"/>
        <pt x="-569" y="1679" on="0"/>
        <pt x="-558" y="1678" on="1"/>
        <pt x="-497" y="1671" on="0"/>
        <pt x="-475" y="1629" on="1"/>
        <pt x="-455" y="1590" on="0"/>
        <pt x="-455" y="1534" on="1"/>
        <pt x="-455" y="1524" on="1"/>
        <pt x="-457" y="1461" on="0"/>
        <pt x="-544" y="1374" on="1"/>
        <pt x="-396" y="1385" on="0"/>
        <pt x="-238" y="1526" on="0"/>
        <pt x="-197" y="1643" on="1"/>
        <pt x="-77" y="1582" on="1"/>
        <pt x="-138" y="1456" on="0"/>
        <pt x="-250" y="1350" on="0"/>
        <pt x="-432" y="1284" on="0"/>
        <pt x="-572" y="1284" on="1"/>
        <pt x="-786" y="1284" on="1"/>
        <pt x="-786" y="1357" on="1"/>
        <pt x="-650" y="1386" on="0"/>
        <pt x="-596" y="1449" on="1"/>
      </contour>
    </TTGlyph>
    <TTGlyph name="#21" xMin="-805" yMin="1287" xMax="-130" yMax="1599">
      <contour>
        <pt x="-363" y="1293" on="1"/>
        <pt x="-385" y="1298" on="0"/>
        <pt x="-414" y="1328" on="0"/>
        <pt x="-418" y="1349" on="1"/>
        <pt x="-408" y="1359" on="0"/>
        <pt x="-381" y="1377" on="0"/>
        <pt x="-367" y="1398" on="0"/>
        <pt x="-348" y="1417" on="0"/>
        <pt x="-347" y="1440" on="1"/>
        <pt x="-354" y="1465" on="0"/>
        <pt x="-367" y="1477" on="1"/>
        <pt x="-379" y="1488" on="0"/>
        <pt x="-406" y="1488" on="1"/>
        <pt x="-411" y="1488" on="1"/>
        <pt x="-445" y="1462" on="0"/>
        <pt x="-513" y="1400" on="0"/>
        <pt x="-531" y="1400" on="1"/>
        <pt x="-548" y="1400" on="0"/>
        <pt x="-613" y="1470" on="0"/>
        <pt x="-640" y="1485" on="1"/>
        <pt x="-670" y="1485" on="0"/>
        <pt x="-696" y="1458" on="0"/>
        <pt x="-696" y="1429" on="1"/>
        <pt x="-696" y="1407" on="0"/>
        <pt x="-675" y="1384" on="0"/>
        <pt x="-651" y="1369" on="0"/>
        <pt x="-621" y="1349" on="0"/>
        <pt x="-610" y="1339" on="1"/>
        <pt x="-639" y="1296" on="0"/>
        <pt x="-678" y="1287" on="1"/>
        <pt x="-746" y="1316" on="0"/>
        <pt x="-805" y="1394" on="0"/>
        <pt x="-805" y="1443" on="1"/>
        <pt x="-805" y="1480" on="0"/>
        <pt x="-771" y="1535" on="0"/>
        <pt x="-733" y="1576" on="0"/>
        <pt x="-682" y="1597" on="0"/>
        <pt x="-645" y="1597" on="1"/>
        <pt x="-626" y="1597" on="0"/>
        <pt x="-585" y="1582" on="0"/>
        <pt x="-533" y="1533" on="0"/>
        <pt x="-522" y="1521" on="1"/>
        <pt x="-495" y="1543" on="0"/>
        <pt x="-440" y="1592" on="0"/>
        <pt x="-398" y="1599" on="1"/>
        <pt x="-365" y="1599" on="0"/>
        <pt x="-306" y="1572" on="0"/>
        <pt x="-273" y="1533" on="0"/>
        <pt x="-263" y="1512" on="1"/>
        <pt x="-256" y="1495" on="0"/>
        <pt x="-256" y="1473" on="1"/>
        <pt x="-256" y="1463" on="1"/>
        <pt x="-231" y="1499" on="0"/>
        <pt x="-217" y="1544" on="0"/>
        <pt x="-205" y="1589" on="1"/>
        <pt x="-176" y="1587" on="0"/>
        <pt x="-143" y="1566" on="0"/>
        <pt x="-131" y="1546" on="1"/>
        <pt x="-130" y="1542" on="0"/>
        <pt x="-130" y="1537" on="1"/>
        <pt x="-130" y="1493" on="0"/>
        <pt x="-150" y="1456" on="1"/>
        <pt x="-172" y="1415" on="0"/>
        <pt x="-235" y="1359" on="0"/>
        <pt x="-327" y="1310" on="0"/>
      </contour>
    </TTGlyph>
    <TTGlyph name="#22" xMin="-671" yMin="1295" xMax="-311" yMax="1643">
      <contour>
        <pt x="-432" y="1295" on="1"/>
        <pt x="-551" y="1295" on="1"/>
        <pt x="-551" y="1413" on="1"/>
        <pt x="-671" y="1413" on="1"/>
        <pt x="-671" y="1524" on="1"/>
        <pt x="-551" y="1524" on="1"/>
        <pt x="-551" y="1643" on="1"/>
        <pt x="-432" y="1643" on="1"/>
        <pt x="-432" y="1524" on="1"/>
        <pt x="-311" y="1524" on="1"/>
        <pt x="-311" y="1413" on="1"/>
        <pt x="-432" y="1413" on="1"/>
      </contour>
    </TTGlyph>
    <TTGlyph name="#23" xMin="-588" yMin="-824" xMax="318" yMax="-145">
      <contour>
        <pt x="-142" y="-567" on="1"/>
        <pt x="-142" y="-550" on="0"/>
        <pt x="-170" y="-526" on="0"/>
        <pt x="-186" y="-526" on="1"/>
        <pt x="-205" y="-526" on="0"/>
        <pt x="-220" y="-538" on="1"/>
        <pt x="-234" y="-550" on="0"/>
        <pt x="-234" y="-566" on="1"/>
        <pt x="-234" y="-568" on="1"/>
        <pt x="-234" y="-582" on="0"/>
        <pt x="-205" y="-610" on="0"/>
        <pt x="-186" y="-610" on="1"/>
        <pt x="-170" y="-610" on="0"/>
        <pt x="-142" y="-581" on="0"/>
      </contour>
      <contour>
        <pt x="-13" y="-654" on="1"/>
        <pt x="-14" y="-654" on="1"/>
        <pt x="-27" y="-688" on="0"/>
        <pt x="-44" y="-716" on="0"/>
        <pt x="-73" y="-750" on="0"/>
        <pt x="-110" y="-786" on="0"/>
        <pt x="-169" y="-824" on="1"/>
        <pt x="-285" y="-767" on="1"/>
        <pt x="-238" y="-747" on="0"/>
        <pt x="-175" y="-688" on="0"/>
        <pt x="-165" y="-664" on="1"/>
        <pt x="-200" y="-673" on="0"/>
        <pt x="-219" y="-674" on="1"/>
        <pt x="-222" y="-674" on="1"/>
        <pt x="-241" y="-674" on="0"/>
        <pt x="-271" y="-662" on="1"/>
        <pt x="-319" y="-640" on="0"/>
        <pt x="-341" y="-589" on="0"/>
        <pt x="-341" y="-550" on="1"/>
        <pt x="-329" y="-505" on="0"/>
        <pt x="-301" y="-474" on="0"/>
        <pt x="-257" y="-449" on="0"/>
        <pt x="-219" y="-439" on="0"/>
        <pt x="-169" y="-438" on="1"/>
        <pt x="-164" y="-438" on="1"/>
        <pt x="-151" y="-438" on="0"/>
        <pt x="-87" y="-461" on="0"/>
        <pt x="-34" y="-502" on="0"/>
        <pt x="-18" y="-543" on="1"/>
        <pt x="-8" y="-567" on="0"/>
        <pt x="-8" y="-602" on="1"/>
        <pt x="-8" y="-625" on="0"/>
      </contour>
      <contour>
        <pt x="-488" y="-348" on="1"/>
        <pt x="-487" y="-348" on="1"/>
        <pt x="-487" y="-354" on="1"/>
        <pt x="-487" y="-377" on="0"/>
        <pt x="-468" y="-393" on="1"/>
        <pt x="-447" y="-411" on="0"/>
        <pt x="-421" y="-411" on="1"/>
        <pt x="-397" y="-411" on="0"/>
        <pt x="-376" y="-392" on="1"/>
        <pt x="-357" y="-375" on="0"/>
        <pt x="-357" y="-350" on="1"/>
        <pt x="-357" y="-343" on="1"/>
        <pt x="-357" y="-312" on="0"/>
        <pt x="-403" y="-267" on="1"/>
        <pt x="-444" y="-275" on="0"/>
        <pt x="-484" y="-310" on="0"/>
      </contour>
      <contour>
        <pt x="-301" y="-259" on="1"/>
        <pt x="-254" y="-309" on="0"/>
        <pt x="-254" y="-354" on="1"/>
        <pt x="-254" y="-359" on="0"/>
        <pt x="-255" y="-364" on="1"/>
        <pt x="-261" y="-414" on="0"/>
        <pt x="-300" y="-456" on="0"/>
        <pt x="-332" y="-480" on="0"/>
        <pt x="-365" y="-488" on="1"/>
        <pt x="-386" y="-493" on="0"/>
        <pt x="-410" y="-493" on="1"/>
        <pt x="-425" y="-493" on="0"/>
        <pt x="-442" y="-492" on="1"/>
        <pt x="-449" y="-492" on="0"/>
        <pt x="-502" y="-477" on="0"/>
        <pt x="-559" y="-437" on="0"/>
        <pt x="-581" y="-388" on="0"/>
        <pt x="-588" y="-339" on="1"/>
        <pt x="-587" y="-283" on="0"/>
        <pt x="-544" y="-194" on="0"/>
        <pt x="-484" y="-168" on="1"/>
        <pt x="-429" y="-145" on="0"/>
        <pt x="-358" y="-145" on="1"/>
        <pt x="-344" y="-145" on="1"/>
        <pt x="-264" y="-148" on="0"/>
        <pt x="-132" y="-225" on="0"/>
        <pt x="-67" y="-291" on="1"/>
        <pt x="-9" y="-351" on="0"/>
        <pt x="56" y="-351" on="1"/>
        <pt x="63" y="-351" on="0"/>
        <pt x="70" y="-350" on="1"/>
        <pt x="173" y="-344" on="0"/>
        <pt x="198" y="-145" on="1"/>
        <pt x="318" y="-145" on="1"/>
        <pt x="293" y="-490" on="0"/>
        <pt x="73" y="-490" on="1"/>
        <pt x="70" y="-490" on="1"/>
        <pt x="-67" y="-488" on="0"/>
        <pt x="-220" y="-293" on="0"/>
      </contour>
    </TTGlyph>
    <TTGlyph name="#24" xMin="-578" yMin="-857" xMax="328" yMax="-145">
      <contour>
        <pt x="-478" y="-348" on="1"/>
        <pt x="-477" y="-348" on="1"/>
        <pt x="-477" y="-354" on="1"/>
        <pt x="-477" y="-377" on="0"/>
        <pt x="-458" y="-393" on="1"/>
        <pt x="-437" y="-411" on="0"/>
        <pt x="-411" y="-411" on="1"/>
        <pt x="-387" y="-411" on="0"/>
        <pt x="-366" y="-392" on="1"/>
        <pt x="-347" y="-375" on="0"/>
        <pt x="-347" y="-350" on="1"/>
        <pt x="-347" y="-343" on="1"/>
        <pt x="-347" y="-312" on="0"/>
        <pt x="-393" y="-267" on="1"/>
        <pt x="-434" y="-275" on="0"/>
        <pt x="-474" y="-310" on="0"/>
      </contour>
      <contour>
        <pt x="-291" y="-259" on="1"/>
        <pt x="-244" y="-309" on="0"/>
        <pt x="-244" y="-354" on="1"/>
        <pt x="-244" y="-359" on="0"/>
        <pt x="-245" y="-364" on="1"/>
        <pt x="-251" y="-414" on="0"/>
        <pt x="-290" y="-456" on="0"/>
        <pt x="-322" y="-480" on="0"/>
        <pt x="-355" y="-488" on="1"/>
        <pt x="-376" y="-493" on="0"/>
        <pt x="-400" y="-493" on="1"/>
        <pt x="-415" y="-493" on="0"/>
        <pt x="-432" y="-492" on="1"/>
        <pt x="-439" y="-492" on="0"/>
        <pt x="-492" y="-477" on="0"/>
        <pt x="-549" y="-437" on="0"/>
        <pt x="-571" y="-388" on="0"/>
        <pt x="-578" y="-339" on="1"/>
        <pt x="-577" y="-283" on="0"/>
        <pt x="-534" y="-194" on="0"/>
        <pt x="-474" y="-168" on="1"/>
        <pt x="-419" y="-145" on="0"/>
        <pt x="-348" y="-145" on="1"/>
        <pt x="-334" y="-145" on="1"/>
        <pt x="-254" y="-148" on="0"/>
        <pt x="-122" y="-225" on="0"/>
        <pt x="-57" y="-291" on="1"/>
        <pt x="1" y="-351" on="0"/>
        <pt x="66" y="-351" on="1"/>
        <pt x="73" y="-351" on="0"/>
        <pt x="80" y="-350" on="1"/>
        <pt x="183" y="-344" on="0"/>
        <pt x="208" y="-145" on="1"/>
        <pt x="328" y="-145" on="1"/>
        <pt x="303" y="-490" on="0"/>
        <pt x="83" y="-490" on="1"/>
        <pt x="80" y="-490" on="1"/>
        <pt x="-57" y="-488" on="0"/>
        <pt x="-210" y="-293" on="0"/>
      </contour>
      <contour>
        <pt x="-272" y="-581" on="0"/>
        <pt x="-283" y="-599" on="0"/>
        <pt x="-283" y="-608" on="1"/>
        <pt x="-283" y="-619" on="0"/>
        <pt x="-272" y="-636" on="0"/>
        <pt x="-254" y="-646" on="0"/>
        <pt x="-221" y="-648" on="1"/>
        <pt x="-204" y="-626" on="0"/>
        <pt x="-204" y="-608" on="1"/>
        <pt x="-204" y="-599" on="0"/>
        <pt x="-215" y="-581" on="0"/>
        <pt x="-233" y="-570" on="0"/>
        <pt x="-243" y="-570" on="1"/>
        <pt x="-253" y="-570" on="0"/>
      </contour>
      <contour>
        <pt x="-149" y="-670" on="1"/>
        <pt x="-159" y="-698" on="0"/>
        <pt x="-159" y="-724" on="1"/>
        <pt x="-159" y="-736" on="0"/>
        <pt x="-157" y="-747" on="1"/>
        <pt x="-150" y="-766" on="0"/>
        <pt x="-114" y="-766" on="1"/>
        <pt x="-79" y="-766" on="0"/>
        <pt x="-79" y="-657" on="1"/>
        <pt x="-79" y="-506" on="1"/>
        <pt x="31" y="-506" on="1"/>
        <pt x="31" y="-662" on="1"/>
        <pt x="31" y="-857" on="0"/>
        <pt x="-114" y="-857" on="1"/>
        <pt x="-217" y="-857" on="0"/>
        <pt x="-246" y="-796" on="1"/>
        <pt x="-258" y="-770" on="0"/>
        <pt x="-258" y="-745" on="1"/>
        <pt x="-258" y="-724" on="0"/>
        <pt x="-249" y="-705" on="1"/>
        <pt x="-276" y="-705" on="0"/>
        <pt x="-301" y="-691" on="1"/>
        <pt x="-328" y="-678" on="0"/>
        <pt x="-359" y="-631" on="0"/>
        <pt x="-359" y="-605" on="1"/>
        <pt x="-359" y="-579" on="0"/>
        <pt x="-328" y="-531" on="0"/>
        <pt x="-274" y="-506" on="0"/>
        <pt x="-246" y="-506" on="1"/>
        <pt x="-217" y="-506" on="0"/>
        <pt x="-164" y="-531" on="0"/>
        <pt x="-134" y="-579" on="0"/>
        <pt x="-134" y="-605" on="1"/>
        <pt x="-134" y="-629" on="0"/>
      </contour>
    </TTGlyph>
    <TTGlyph name="#3" xMin="-167" yMin="-438" xMax="166" yMax="-42">
      <contour>
        <pt x="32" y="-175" on="1"/>
        <pt x="32" y="-157" on="0"/>
        <pt x="4" y="-132" on="0"/>
        <pt x="-12" y="-132" on="1"/>
        <pt x="-31" y="-132" on="0"/>
        <pt x="-46" y="-145" on="1"/>
        <pt x="-60" y="-157" on="0"/>
        <pt x="-60" y="-174" on="1"/>
        <pt x="-60" y="-176" on="1"/>
        <pt x="-60" y="-189" on="0"/>
        <pt x="-31" y="-218" on="0"/>
        <pt x="-12" y="-218" on="1"/>
        <pt x="4" y="-218" on="0"/>
        <pt x="32" y="-189" on="0"/>
      </contour>
      <contour>
        <pt x="161" y="-264" on="1"/>
        <pt x="160" y="-264" on="1"/>
        <pt x="147" y="-299" on="0"/>
        <pt x="130" y="-328" on="0"/>
        <pt x="101" y="-362" on="0"/>
        <pt x="64" y="-399" on="0"/>
        <pt x="5" y="-438" on="1"/>
        <pt x="-111" y="-380" on="1"/>
        <pt x="-64" y="-359" on="0"/>
        <pt x="-1" y="-299" on="0"/>
        <pt x="9" y="-274" on="1"/>
        <pt x="-26" y="-283" on="0"/>
        <pt x="-45" y="-284" on="1"/>
        <pt x="-48" y="-284" on="1"/>
        <pt x="-67" y="-284" on="0"/>
        <pt x="-97" y="-272" on="1"/>
        <pt x="-145" y="-250" on="0"/>
        <pt x="-167" y="-197" on="0"/>
        <pt x="-167" y="-157" on="1"/>
        <pt x="-155" y="-111" on="0"/>
        <pt x="-127" y="-79" on="0"/>
        <pt x="-83" y="-53" on="0"/>
        <pt x="-45" y="-43" on="0"/>
        <pt x="5" y="-42" on="1"/>
        <pt x="10" y="-42" on="1"/>
        <pt x="23" y="-42" on="0"/>
        <pt x="87" y="-65" on="0"/>
        <pt x="140" y="-108" on="0"/>
        <pt x="156" y="-150" on="1"/>
        <pt x="166" y="-175" on="0"/>
        <pt x="166" y="-210" on="1"/>
        <pt x="166" y="-234" on="0"/>
      </contour>
    </TTGlyph>
    <TTGlyph name="#4" xMin="-239" yMin="-427" xMax="151" yMax="-56">
      <contour>
        <pt x="-152" y="-135" on="0"/>
        <pt x="-163" y="-154" on="0"/>
        <pt x="-163" y="-164" on="1"/>
        <pt x="-163" y="-175" on="0"/>
        <pt x="-152" y="-193" on="0"/>
        <pt x="-134" y="-204" on="0"/>
        <pt x="-101" y="-206" on="1"/>
        <pt x="-84" y="-183" on="0"/>
        <pt x="-84" y="-164" on="1"/>
        <pt x="-84" y="-154" on="0"/>
        <pt x="-95" y="-135" on="0"/>
        <pt x="-113" y="-124" on="0"/>
        <pt x="-123" y="-124" on="1"/>
        <pt x="-133" y="-124" on="0"/>
      </contour>
      <contour>
        <pt x="-29" y="-229" on="1"/>
        <pt x="-39" y="-259" on="0"/>
        <pt x="-39" y="-286" on="1"/>
        <pt x="-39" y="-299" on="0"/>
        <pt x="-37" y="-311" on="1"/>
        <pt x="-30" y="-331" on="0"/>
        <pt x="6" y="-331" on="1"/>
        <pt x="41" y="-331" on="0"/>
        <pt x="41" y="-216" on="1"/>
        <pt x="41" y="-56" on="1"/>
        <pt x="151" y="-56" on="1"/>
        <pt x="151" y="-221" on="1"/>
        <pt x="151" y="-427" on="0"/>
        <pt x="6" y="-427" on="1"/>
        <pt x="-97" y="-427" on="0"/>
        <pt x="-126" y="-362" on="1"/>
        <pt x="-138" y="-335" on="0"/>
        <pt x="-138" y="-309" on="1"/>
        <pt x="-138" y="-287" on="0"/>
        <pt x="-129" y="-266" on="1"/>
        <pt x="-156" y="-266" on="0"/>
        <pt x="-181" y="-252" on="1"/>
        <pt x="-208" y="-238" on="0"/>
        <pt x="-239" y="-188" on="0"/>
        <pt x="-239" y="-161" on="1"/>
        <pt x="-239" y="-133" on="0"/>
        <pt x="-208" y="-82" on="0"/>
        <pt x="-154" y="-56" on="0"/>
        <pt x="-126" y="-56" on="1"/>
        <pt x="-97" y="-56" on="0"/>
        <pt x="-44" y="-82" on="0"/>
        <pt x="-14" y="-133" on="0"/>
        <pt x="-14" y="-161" on="1"/>
        <pt x="-14" y="-186" on="0"/>
      </contour>
    </TTGlyph>
    <TTGlyph name="#5" xMin="-444" yMin="1292" xMax="444" yMax="1742">
      <contour>
        <pt x="116" y="1340" on="1"/>
        <pt x="120" y="1369" on="0"/>
        <pt x="153" y="1389" on="0"/>
        <pt x="200" y="1409" on="1"/>
        <pt x="246" y="1434" on="0"/>
        <pt x="277" y="1465" on="1"/>
        <pt x="298" y="1485" on="0"/>
        <pt x="298" y="1510" on="1"/>
        <pt x="298" y="1522" on="0"/>
        <pt x="293" y="1536" on="1"/>
        <pt x="278" y="1576" on="0"/>
        <pt x="204" y="1604" on="1"/>
        <pt x="132" y="1631" on="0"/>
        <pt x="1" y="1631" on="1"/>
        <pt x="-20" y="1631" on="1"/>
        <pt x="-152" y="1631" on="0"/>
        <pt x="-215" y="1610" on="1"/>
        <pt x="-282" y="1587" on="0"/>
        <pt x="-299" y="1544" on="1"/>
        <pt x="-305" y="1528" on="0"/>
        <pt x="-305" y="1513" on="1"/>
        <pt x="-305" y="1489" on="0"/>
        <pt x="-288" y="1469" on="1"/>
        <pt x="-261" y="1436" on="0"/>
        <pt x="-223" y="1414" on="1"/>
        <pt x="-161" y="1389" on="0"/>
        <pt x="-130" y="1363" on="0"/>
        <pt x="-128" y="1344" on="1"/>
        <pt x="-133" y="1292" on="0"/>
        <pt x="-198" y="1292" on="1"/>
        <pt x="-209" y="1292" on="0"/>
        <pt x="-223" y="1294" on="1"/>
        <pt x="-277" y="1311" on="0"/>
        <pt x="-352" y="1357" on="0"/>
        <pt x="-415" y="1415" on="0"/>
        <pt x="-439" y="1473" on="0"/>
        <pt x="-444" y="1518" on="1"/>
        <pt x="-444" y="1570" on="0"/>
        <pt x="-348" y="1682" on="0"/>
        <pt x="-162" y="1736" on="0"/>
        <pt x="-8" y="1742" on="1"/>
        <pt x="143" y="1736" on="0"/>
        <pt x="342" y="1684" on="0"/>
        <pt x="443" y="1562" on="0"/>
        <pt x="444" y="1517" on="1"/>
        <pt x="444" y="1468" on="0"/>
        <pt x="402" y="1403" on="0"/>
        <pt x="344" y="1355" on="0"/>
        <pt x="273" y="1307" on="0"/>
        <pt x="200" y="1292" on="1"/>
        <pt x="116" y="1292" on="0"/>
      </contour>
    </TTGlyph>
    <TTGlyph name="#6" xMin="-434" yMin="1292" xMax="494" yMax="1742">
      <contour>
        <pt x="494" y="1292" on="1"/>
        <pt x="193" y="1292" on="1"/>
        <pt x="111" y="1292" on="0"/>
        <pt x="111" y="1343" on="1"/>
        <pt x="114" y="1370" on="0"/>
        <pt x="148" y="1392" on="0"/>
        <pt x="193" y="1411" on="1"/>
        <pt x="239" y="1437" on="0"/>
        <pt x="269" y="1468" on="1"/>
        <pt x="288" y="1488" on="0"/>
        <pt x="288" y="1511" on="1"/>
        <pt x="288" y="1523" on="0"/>
        <pt x="283" y="1536" on="1"/>
        <pt x="267" y="1572" on="0"/>
        <pt x="196" y="1601" on="1"/>
        <pt x="129" y="1628" on="0"/>
        <pt x="9" y="1628" on="1"/>
        <pt x="-29" y="1628" on="1"/>
        <pt x="-152" y="1628" on="0"/>
        <pt x="-211" y="1607" on="1"/>
        <pt x="-275" y="1583" on="0"/>
        <pt x="-291" y="1544" on="1"/>
        <pt x="-298" y="1529" on="0"/>
        <pt x="-298" y="1515" on="1"/>
        <pt x="-298" y="1492" on="0"/>
        <pt x="-281" y="1472" on="1"/>
        <pt x="-255" y="1439" on="0"/>
        <pt x="-218" y="1416" on="1"/>
        <pt x="-158" y="1391" on="0"/>
        <pt x="-128" y="1364" on="0"/>
        <pt x="-126" y="1346" on="1"/>
        <pt x="-131" y="1292" on="0"/>
        <pt x="-194" y="1292" on="1"/>
        <pt x="-205" y="1292" on="0"/>
        <pt x="-218" y="1294" on="1"/>
        <pt x="-271" y="1311" on="0"/>
        <pt x="-344" y="1358" on="0"/>
        <pt x="-405" y="1417" on="0"/>
        <pt x="-429" y="1478" on="0"/>
        <pt x="-434" y="1523" on="1"/>
        <pt x="-434" y="1567" on="0"/>
        <pt x="-340" y="1680" on="0"/>
        <pt x="-159" y="1735" on="0"/>
        <pt x="-8" y="1742" on="1"/>
        <pt x="138" y="1735" on="0"/>
        <pt x="331" y="1681" on="0"/>
        <pt x="428" y="1558" on="0"/>
        <pt x="429" y="1522" on="1"/>
        <pt x="429" y="1471" on="0"/>
        <pt x="397" y="1424" on="0"/>
        <pt x="348" y="1381" on="1"/>
        <pt x="494" y="1381" on="1"/>
      </contour>
    </TTGlyph>
    <TTGlyph name="#7" xMin="-434" yMin="1292" xMax="438" yMax="1742">
      <contour>
        <pt x="126" y="1340" on="1"/>
        <pt x="130" y="1369" on="0"/>
        <pt x="163" y="1389" on="0"/>
        <pt x="210" y="1409" on="1"/>
        <pt x="256" y="1434" on="0"/>
        <pt x="287" y="1465" on="1"/>
        <pt x="308" y="1485" on="0"/>
        <pt x="308" y="1510" on="1"/>
        <pt x="308" y="1522" on="0"/>
        <pt x="303" y="1536" on="1"/>
        <pt x="288" y="1576" on="0"/>
        <pt x="214" y="1604" on="1"/>
        <pt x="144" y="1630" on="0"/>
        <pt x="20" y="1630" on="1"/>
        <pt x="-20" y="1630" on="1"/>
        <pt x="-144" y="1630" on="0"/>
        <pt x="-205" y="1610" on="1"/>
        <pt x="-272" y="1587" on="0"/>
        <pt x="-289" y="1544" on="1"/>
        <pt x="-295" y="1528" on="0"/>
        <pt x="-295" y="1513" on="1"/>
        <pt x="-295" y="1489" on="0"/>
        <pt x="-278" y="1469" on="1"/>
        <pt x="-251" y="1436" on="0"/>
        <pt x="-213" y="1414" on="1"/>
        <pt x="-151" y="1389" on="0"/>
        <pt x="-120" y="1363" on="0"/>
        <pt x="-118" y="1344" on="1"/>
        <pt x="-123" y="1292" on="0"/>
        <pt x="-188" y="1292" on="1"/>
        <pt x="-199" y="1292" on="0"/>
        <pt x="-213" y="1294" on="1"/>
        <pt x="-267" y="1311" on="0"/>
        <pt x="-342" y="1357" on="0"/>
        <pt x="-405" y="1416" on="0"/>
        <pt x="-429" y="1473" on="0"/>
        <pt x="-434" y="1519" on="1"/>
        <pt x="-434" y="1561" on="0"/>
        <pt x="-338" y="1682" on="0"/>
        <pt x="-152" y="1736" on="0"/>
        <pt x="2" y="1742" on="1"/>
        <pt x="153" y="1736" on="0"/>
        <pt x="346" y="1682" on="0"/>
        <pt x="437" y="1553" on="0"/>
        <pt x="438" y="1517" on="1"/>
        <pt x="438" y="1469" on="0"/>
        <pt x="406" y="1403" on="0"/>
        <pt x="354" y="1355" on="0"/>
        <pt x="283" y="1307" on="0"/>
        <pt x="210" y="1292" on="1"/>
        <pt x="126" y="1292" on="0"/>
      </contour>
      <contour>
        <pt x="-87" y="1517" on="0"/>
        <pt x="-32" y="1561" on="0"/>
        <pt x="6" y="1561" on="1"/>
        <pt x="44" y="1561" on="0"/>
        <pt x="100" y="1517" on="0"/>
        <pt x="100" y="1487" on="1"/>
        <pt x="100" y="1454" on="0"/>
        <pt x="44" y="1409" on="0"/>
        <pt x="6" y="1409" on="1"/>
        <pt x="-32" y="1409" on="0"/>
        <pt x="-87" y="1454" on="0"/>
        <pt x="-87" y="1487" on="1"/>
      </contour>
    </TTGlyph>
    <TTGlyph name="#8" xMin="-433" yMin="1272" xMax="495" yMax="1722">
      <contour>
        <pt x="-95" y="1503" on="0"/>
        <pt x="-42" y="1548" on="0"/>
        <pt x="-5" y="1548" on="1"/>
        <pt x="32" y="1548" on="0"/>
        <pt x="87" y="1503" on="0"/>
        <pt x="87" y="1471" on="1"/>
        <pt x="87" y="1439" on="0"/>
        <pt x="32" y="1392" on="0"/>
        <pt x="-5" y="1392" on="1"/>
        <pt x="-42" y="1392" on="0"/>
        <pt x="-95" y="1439" on="0"/>
        <pt x="-95" y="1471" on="1"/>
      </contour>
      <contour>
        <pt x="495" y="1272" on="1"/>
        <pt x="194" y="1272" on="1"/>
        <pt x="112" y="1272" on="0"/>
        <pt x="112" y="1323" on="1"/>
        <pt x="115" y="1350" on="0"/>
        <pt x="149" y="1372" on="0"/>
        <pt x="194" y="1391" on="1"/>
        <pt x="240" y="1417" on="0"/>
        <pt x="270" y="1448" on="1"/>
        <pt x="289" y="1468" on="0"/>
        <pt x="289" y="1491" on="1"/>
        <pt x="289" y="1503" on="0"/>
        <pt x="284" y="1516" on="1"/>
        <pt x="268" y="1552" on="0"/>
        <pt x="197" y="1581" on="1"/>
        <pt x="130" y="1608" on="0"/>
        <pt x="10" y="1608" on="1"/>
        <pt x="-28" y="1608" on="1"/>
        <pt x="-151" y="1608" on="0"/>
        <pt x="-210" y="1587" on="1"/>
        <pt x="-274" y="1563" on="0"/>
        <pt x="-290" y="1524" on="1"/>
        <pt x="-297" y="1509" on="0"/>
        <pt x="-297" y="1495" on="1"/>
        <pt x="-297" y="1472" on="0"/>
        <pt x="-280" y="1452" on="1"/>
        <pt x="-254" y="1419" on="0"/>
        <pt x="-217" y="1396" on="1"/>
        <pt x="-157" y="1371" on="0"/>
        <pt x="-127" y="1344" on="0"/>
        <pt x="-125" y="1326" on="1"/>
        <pt x="-130" y="1272" on="0"/>
        <pt x="-193" y="1272" on="1"/>
        <pt x="-204" y="1272" on="0"/>
        <pt x="-217" y="1274" on="1"/>
        <pt x="-270" y="1291" on="0"/>
        <pt x="-343" y="1338" on="0"/>
        <pt x="-404" y="1397" on="0"/>
        <pt x="-429" y="1454" on="0"/>
        <pt x="-433" y="1503" on="1"/>
        <pt x="-433" y="1547" on="0"/>
        <pt x="-339" y="1660" on="0"/>
        <pt x="-158" y="1715" on="0"/>
        <pt x="-7" y="1722" on="1"/>
        <pt x="139" y="1715" on="0"/>
        <pt x="324" y="1667" on="0"/>
        <pt x="399" y="1589" on="0"/>
        <pt x="412" y="1526" on="1"/>
        <pt x="413" y="1515" on="0"/>
        <pt x="413" y="1505" on="1"/>
        <pt x="413" y="1460" on="0"/>
        <pt x="402" y="1435" on="1"/>
        <pt x="388" y="1404" on="0"/>
        <pt x="349" y="1361" on="1"/>
        <pt x="495" y="1361" on="1"/>
      </contour>
    </TTGlyph>
    <TTGlyph name="#9" xMin="-424" yMin="1292" xMax="426" yMax="1652">
      <contour>
        <pt x="-178" y="1483" on="1"/>
        <pt x="-178" y="1517" on="0"/>
        <pt x="-218" y="1543" on="0"/>
        <pt x="-241" y="1543" on="1"/>
        <pt x="-268" y="1543" on="0"/>
        <pt x="-303" y="1505" on="0"/>
        <pt x="-303" y="1487" on="1"/>
        <pt x="-303" y="1468" on="0"/>
        <pt x="-268" y="1427" on="0"/>
        <pt x="-239" y="1427" on="1"/>
        <pt x="-216" y="1427" on="0"/>
        <pt x="-178" y="1461" on="0"/>
      </contour>
      <contour>
        <pt x="426" y="1633" on="1"/>
        <pt x="402" y="1448" on="0"/>
        <pt x="207" y="1295" on="0"/>
        <pt x="16" y="1294" on="1"/>
        <pt x="14" y="1294" on="1"/>
        <pt x="-6" y="1294" on="0"/>
        <pt x="-47" y="1293" on="1"/>
        <pt x="-61" y="1292" on="0"/>
        <pt x="-77" y="1292" on="1"/>
        <pt x="-105" y="1292" on="0"/>
        <pt x="-135" y="1294" on="1"/>
        <pt x="-183" y="1296" on="0"/>
        <pt x="-287" y="1318" on="0"/>
        <pt x="-370" y="1363" on="0"/>
        <pt x="-398" y="1405" on="1"/>
        <pt x="-424" y="1443" on="0"/>
        <pt x="-424" y="1492" on="1"/>
        <pt x="-424" y="1502" on="1"/>
        <pt x="-422" y="1544" on="0"/>
        <pt x="-388" y="1597" on="0"/>
        <pt x="-335" y="1636" on="0"/>
        <pt x="-279" y="1652" on="0"/>
        <pt x="-258" y="1652" on="1"/>
        <pt x="-252" y="1652" on="0"/>
        <pt x="-207" y="1650" on="0"/>
        <pt x="-153" y="1636" on="0"/>
        <pt x="-95" y="1597" on="0"/>
        <pt x="-72" y="1558" on="0"/>
        <pt x="-59" y="1528" on="0"/>
        <pt x="-57" y="1507" on="1"/>
        <pt x="-57" y="1497" on="1"/>
        <pt x="-57" y="1480" on="0"/>
        <pt x="-61" y="1464" on="1"/>
        <pt x="-67" y="1442" on="0"/>
        <pt x="-85" y="1419" on="1"/>
        <pt x="-85" y="1416" on="0"/>
        <pt x="-33" y="1416" on="1"/>
        <pt x="-2" y="1416" on="0"/>
        <pt x="47" y="1417" on="1"/>
        <pt x="83" y="1417" on="0"/>
        <pt x="156" y="1429" on="0"/>
        <pt x="219" y="1464" on="0"/>
        <pt x="272" y="1555" on="0"/>
        <pt x="291" y="1631" on="1"/>
      </contour>
    </TTGlyph>
    <TTGlyph name="ampersand" xMin="105" yMin="977" xMax="327" yMax="1556">
      <contour>
        <pt x="327" y="1556" on="1"/>
        <pt x="284" y="977" on="1"/>
        <pt x="148" y="977" on="1"/>
        <pt x="105" y="1556" on="1"/>
      </contour>
    </TTGlyph>
    <TTGlyph name="asterisk" xMin="157" yMin="67" xMax="1333" yMax="1237">
      <contour>
        <pt x="1333" y="572" on="1"/>
        <pt x="828" y="572" on="1"/>
        <pt x="828" y="67" on="1"/>
        <pt x="662" y="67" on="1"/>
        <pt x="662" y="572" on="1"/>
        <pt x="157" y="572" on="1"/>
        <pt x="157" y="732" on="1"/>
        <pt x="662" y="732" on="1"/>
        <pt x="662" y="1237" on="1"/>
        <pt x="828" y="1237" on="1"/>
        <pt x="828" y="732" on="1"/>
        <pt x="1333" y="732" on="1"/>
      </contour>
    </TTGlyph>
    <TTGlyph name="at" xMin="132" yMin="-226" xMax="1739" yMax="1518">
      <contour>
        <pt x="1739" y="663" on="1"/>
        <pt x="1739" y="524" on="0"/>
        <pt x="1663" y="265" on="0"/>
        <pt x="1592" y="157" on="1"/>
        <pt x="1171" y="157" on="1"/>
        <pt x="1146" y="273" on="1"/>
        <pt x="1079" y="216" on="0"/>
        <pt x="966" y="149" on="0"/>
        <pt x="869" y="149" on="1"/>
        <pt x="715" y="149" on="0"/>
        <pt x="519" y="396" on="0"/>
        <pt x="519" y="631" on="1"/>
        <pt x="519" y="866" on="0"/>
        <pt x="760" y="1128" on="0"/>
        <pt x="915" y="1128" on="1"/>
        <pt x="987" y="1128" on="0"/>
        <pt x="1091" y="1092" on="0"/>
        <pt x="1144" y="1062" on="1"/>
        <pt x="1144" y="1110" on="1"/>
        <pt x="1303" y="1110" on="1"/>
        <pt x="1303" y="268" on="1"/>
        <pt x="1530" y="268" on="1"/>
        <pt x="1568" y="339" on="0"/>
        <pt x="1601" y="565" on="0"/>
        <pt x="1601" y="657" on="1"/>
        <pt x="1601" y="984" on="0"/>
        <pt x="1268" y="1383" on="0"/>
        <pt x="956" y="1383" on="1"/>
        <pt x="660" y="1383" on="0"/>
        <pt x="275" y="952" on="0"/>
        <pt x="275" y="645" on="1"/>
        <pt x="275" y="315" on="0"/>
        <pt x="649" y="-94" on="0"/>
        <pt x="951" y="-94" on="1"/>
        <pt x="1032" y="-94" on="0"/>
        <pt x="1211" y="-72" on="0"/>
        <pt x="1291" y="-48" on="1"/>
        <pt x="1291" y="-190" on="1"/>
        <pt x="1207" y="-210" on="0"/>
        <pt x="1034" y="-226" on="0"/>
        <pt x="950" y="-226" on="1"/>
        <pt x="596" y="-226" on="0"/>
        <pt x="132" y="260" on="0"/>
        <pt x="132" y="647" on="1"/>
        <pt x="132" y="1014" on="0"/>
        <pt x="611" y="1518" on="0"/>
        <pt x="955" y="1518" on="1"/>
        <pt x="1323" y="1518" on="0"/>
        <pt x="1739" y="1043" on="0"/>
      </contour>
      <contour>
        <pt x="1142" y="408" on="1"/>
        <pt x="1142" y="926" on="1"/>
        <pt x="1086" y="955" on="0"/>
        <pt x="992" y="980" on="0"/>
        <pt x="941" y="980" on="1"/>
        <pt x="828" y="980" on="0"/>
        <pt x="690" y="811" on="0"/>
        <pt x="690" y="634" on="1"/>
        <pt x="690" y="474" on="0"/>
        <pt x="794" y="304" on="0"/>
        <pt x="908" y="304" on="1"/>
        <pt x="969" y="304" on="0"/>
        <pt x="1088" y="362" on="0"/>
      </contour>
    </TTGlyph>
    <TTGlyph name="colon" xMin="122" yMin="-370" xMax="548" yMax="1117">
      <contour>
        <pt x="482" y="832" on="1"/>
        <pt x="243" y="832" on="1"/>
        <pt x="243" y="1117" on="1"/>
        <pt x="482" y="1117" on="1"/>
      </contour>
      <contour>
        <pt x="548" y="285" on="1"/>
        <pt x="268" y="-370" on="1"/>
        <pt x="122" y="-370" on="1"/>
        <pt x="298" y="285" on="1"/>
      </contour>
    </TTGlyph>
    <TTGlyph name="comma" xMin="90" yMin="561" xMax="654" yMax="742">
      <contour>
        <pt x="654" y="561" on="1"/>
        <pt x="90" y="561" on="1"/>
        <pt x="90" y="742" on="1"/>
        <pt x="654" y="742" on="1"/>
      </contour>
    </TTGlyph>
    <TTGlyph name="dollar" xMin="102" yMin="-29" xMax="1897" yMax="1517">
      <contour>
        <pt x="807" y="1076" on="1"/>
        <pt x="807" y="851" on="0"/>
        <pt x="626" y="634" on="0"/>
        <pt x="455" y="634" on="1"/>
        <pt x="281" y="634" on="0"/>
        <pt x="102" y="854" on="0"/>
        <pt x="102" y="1075" on="1"/>
        <pt x="102" y="1299" on="0"/>
        <pt x="284" y="1517" on="0"/>
        <pt x="455" y="1517" on="1"/>
        <pt x="629" y="1517" on="0"/>
        <pt x="807" y="1297" on="0"/>
      </contour>
      <contour>
        <pt x="1473" y="1489" on="1"/>
        <pt x="693" y="0" on="1"/>
        <pt x="528" y="0" on="1"/>
        <pt x="1308" y="1489" on="1"/>
      </contour>
      <contour>
        <pt x="1897" y="413" on="1"/>
        <pt x="1897" y="188" on="0"/>
        <pt x="1716" y="-29" on="0"/>
        <pt x="1545" y="-29" on="1"/>
        <pt x="1371" y="-29" on="0"/>
        <pt x="1192" y="191" on="0"/>
        <pt x="1192" y="412" on="1"/>
        <pt x="1192" y="636" on="0"/>
        <pt x="1374" y="854" on="0"/>
        <pt x="1545" y="854" on="1"/>
        <pt x="1719" y="854" on="0"/>
        <pt x="1897" y="634" on="0"/>
      </contour>
      <contour>
        <pt x="629" y="1076" on="1"/>
        <pt x="629" y="1228" on="0"/>
        <pt x="558" y="1384" on="0"/>
        <pt x="455" y="1384" on="1"/>
        <pt x="352" y="1384" on="0"/>
        <pt x="280" y="1226" on="0"/>
        <pt x="280" y="1075" on="1"/>
        <pt x="280" y="925" on="0"/>
        <pt x="348" y="767" on="0"/>
        <pt x="455" y="767" on="1"/>
        <pt x="558" y="767" on="0"/>
        <pt x="629" y="925" on="0"/>
      </contour>
      <contour>
        <pt x="1719" y="413" on="1"/>
        <pt x="1719" y="565" on="0"/>
        <pt x="1648" y="721" on="0"/>
        <pt x="1545" y="721" on="1"/>
        <pt x="1442" y="721" on="0"/>
        <pt x="1370" y="563" on="0"/>
        <pt x="1370" y="412" on="1"/>
        <pt x="1370" y="262" on="0"/>
        <pt x="1438" y="104" on="0"/>
        <pt x="1545" y="104" on="1"/>
        <pt x="1648" y="104" on="0"/>
        <pt x="1719" y="262" on="0"/>
      </contour>
    </TTGlyph>
    <TTGlyph name="eight" xMin="67" yMin="-29" xMax="1033" yMax="1519">
      <contour>
        <pt x="832" y="877" on="1"/>
        <pt x="832" y="1029" on="0"/>
        <pt x="776" y="1220" on="0"/>
        <pt x="727" y="1272" on="1"/>
        <pt x="683" y="1320" on="0"/>
        <pt x="593" y="1356" on="0"/>
        <pt x="539" y="1356" on="1"/>
        <pt x="416" y="1356" on="0"/>
        <pt x="270" y="1180" on="0"/>
        <pt x="270" y="1013" on="1"/>
        <pt x="270" y="919" on="0"/>
        <pt x="318" y="797" on="0"/>
        <pt x="372" y="753" on="1"/>
        <pt x="410" y="722" on="0"/>
        <pt x="506" y="701" on="0"/>
        <pt x="561" y="701" on="1"/>
        <pt x="625" y="701" on="0"/>
        <pt x="773" y="746" on="0"/>
        <pt x="828" y="783" on="1"/>
        <pt x="829" y="798" on="0"/>
        <pt x="832" y="847" on="0"/>
      </contour>
      <contour>
        <pt x="67" y="1005" on="1"/>
        <pt x="67" y="1120" on="0"/>
        <pt x="142" y="1310" on="0"/>
        <pt x="207" y="1379" on="1"/>
        <pt x="269" y="1445" on="0"/>
        <pt x="448" y="1519" on="0"/>
        <pt x="540" y="1519" on="1"/>
        <pt x="643" y="1519" on="0"/>
        <pt x="810" y="1450" on="0"/>
        <pt x="871" y="1385" on="1"/>
        <pt x="948" y="1303" on="0"/>
        <pt x="1033" y="1037" on="0"/>
        <pt x="1033" y="834" on="1"/>
        <pt x="1033" y="649" on="0"/>
        <pt x="950" y="318" on="0"/>
        <pt x="869" y="209" on="1"/>
        <pt x="783" y="93" on="0"/>
        <pt x="542" y="-29" on="0"/>
        <pt x="365" y="-29" on="1"/>
        <pt x="325" y="-29" on="0"/>
        <pt x="235" y="-20" on="0"/>
        <pt x="196" y="-8" on="1"/>
        <pt x="196" y="183" on="1"/>
        <pt x="206" y="183" on="1"/>
        <pt x="231" y="169" on="0"/>
        <pt x="337" y="143" on="0"/>
        <pt x="392" y="143" on="1"/>
        <pt x="588" y="143" on="0"/>
        <pt x="812" y="401" on="0"/>
        <pt x="827" y="641" on="1"/>
        <pt x="747" y="587" on="0"/>
        <pt x="602" y="537" on="0"/>
        <pt x="517" y="537" on="1"/>
        <pt x="434" y="537" on="0"/>
        <pt x="298" y="573" on="0"/>
        <pt x="229" y="625" on="1"/>
        <pt x="149" y="686" on="0"/>
        <pt x="67" y="873" on="0"/>
      </contour>
    </TTGlyph>
    <TTGlyph name="equal" xMin="192" yMin="362" xMax="1298" yMax="942">
      <contour>
        <pt x="1298" y="782" on="1"/>
        <pt x="192" y="782" on="1"/>
        <pt x="192" y="942" on="1"/>
        <pt x="1298" y="942" on="1"/>
      </contour>
      <contour>
        <pt x="1298" y="362" on="1"/>
        <pt x="192" y="362" on="1"/>
        <pt x="192" y="522" on="1"/>
        <pt x="1298" y="522" on="1"/>
      </contour>
    </TTGlyph>
    <TTGlyph name="exclam" xMin="114" yMin="977" xMax="708" yMax="1556">
      <contour>
        <pt x="708" y="1556" on="1"/>
        <pt x="665" y="977" on="1"/>
        <pt x="533" y="977" on="1"/>
        <pt x="490" y="1556" on="1"/>
      </contour>
      <contour>
        <pt x="332" y="1556" on="1"/>
        <pt x="289" y="977" on="1"/>
        <pt x="157" y="977" on="1"/>
        <pt x="114" y="1556" on="1"/>
      </contour>
    </TTGlyph>
    <TTGlyph name="five" xMin="85" yMin="-31" xMax="1051" yMax="1517">
      <contour>
        <pt x="1051" y="483" on="1"/>
        <pt x="1051" y="368" on="0"/>
        <pt x="975" y="174" on="0"/>
        <pt x="911" y="109" on="1"/>
        <pt x="844" y="40" on="0"/>
        <pt x="678" y="-31" on="0"/>
        <pt x="578" y="-31" on="1"/>
        <pt x="477" y="-31" on="0"/>
        <pt x="312" y="37" on="0"/>
        <pt x="249" y="104" on="1"/>
        <pt x="172" y="185" on="0"/>
        <pt x="85" y="456" on="0"/>
        <pt x="85" y="654" on="1"/>
        <pt x="85" y="848" on="0"/>
        <pt x="165" y="1161" on="0"/>
        <pt x="248" y="1277" on="1"/>
        <pt x="329" y="1390" on="0"/>
        <pt x="585" y="1517" on="0"/>
        <pt x="753" y="1517" on="1"/>
        <pt x="803" y="1517" on="0"/>
        <pt x="889" y="1507" on="0"/>
        <pt x="922" y="1496" on="1"/>
        <pt x="922" y="1305" on="1"/>
        <pt x="913" y="1305" on="1"/>
        <pt x="886" y="1320" on="0"/>
        <pt x="784" y="1345" on="0"/>
        <pt x="726" y="1345" on="1"/>
        <pt x="540" y="1345" on="0"/>
        <pt x="311" y="1094" on="0"/>
        <pt x="290" y="847" on="1"/>
        <pt x="361" y="897" on="0"/>
        <pt x="511" y="951" on="0"/>
        <pt x="600" y="951" on="1"/>
        <pt x="687" y="951" on="0"/>
        <pt x="818" y="916" on="0"/>
        <pt x="889" y="863" on="1"/>
        <pt x="971" y="801" on="0"/>
        <pt x="1051" y="611" on="0"/>
      </contour>
      <contour>
        <pt x="848" y="475" on="1"/>
        <pt x="848" y="567" on="0"/>
        <pt x="800" y="691" on="0"/>
        <pt x="746" y="735" on="1"/>
        <pt x="707" y="767" on="0"/>
        <pt x="608" y="787" on="0"/>
        <pt x="556" y="787" on="1"/>
        <pt x="486" y="787" on="0"/>
        <pt x="354" y="745" on="0"/>
        <pt x="290" y="705" on="1"/>
        <pt x="288" y="683" on="0"/>
        <pt x="286" y="642" on="0"/>
        <pt x="286" y="611" on="1"/>
        <pt x="286" y="456" on="0"/>
        <pt x="347" y="266" on="0"/>
        <pt x="392" y="217" on="1"/>
        <pt x="435" y="170" on="0"/>
        <pt x="526" y="132" on="0"/>
        <pt x="579" y="132" on="1"/>
        <pt x="699" y="132" on="0"/>
        <pt x="848" y="304" on="0"/>
      </contour>
    </TTGlyph>
    <TTGlyph name="four" xMin="124" yMin="-31" xMax="1011" yMax="1489">
      <contour>
        <pt x="1011" y="474" on="1"/>
        <pt x="1011" y="366" on="0"/>
        <pt x="942" y="182" on="0"/>
        <pt x="880" y="115" on="1"/>
        <pt x="817" y="47" on="0"/>
        <pt x="630" y="-31" on="0"/>
        <pt x="514" y="-31" on="1"/>
        <pt x="407" y="-31" on="0"/>
        <pt x="200" y="16" on="0"/>
        <pt x="124" y="54" on="1"/>
        <pt x="124" y="265" on="1"/>
        <pt x="138" y="265" on="1"/>
        <pt x="161" y="248" on="0"/>
        <pt x="247" y="205" on="0"/>
        <pt x="299" y="186" on="1"/>
        <pt x="358" y="165" on="0"/>
        <pt x="456" y="142" on="0"/>
        <pt x="517" y="142" on="1"/>
        <pt x="577" y="142" on="0"/>
        <pt x="691" y="185" on="0"/>
        <pt x="732" y="233" on="1"/>
        <pt x="769" y="277" on="0"/>
        <pt x="808" y="395" on="0"/>
        <pt x="808" y="475" on="1"/>
        <pt x="808" y="554" on="0"/>
        <pt x="765" y="656" on="0"/>
        <pt x="724" y="689" on="1"/>
        <pt x="681" y="727" on="0"/>
        <pt x="556" y="758" on="0"/>
        <pt x="479" y="758" on="1"/>
        <pt x="398" y="758" on="0"/>
        <pt x="234" y="733" on="0"/>
        <pt x="185" y="722" on="1"/>
        <pt x="185" y="1489" on="1"/>
        <pt x="1002" y="1489" on="1"/>
        <pt x="1002" y="1314" on="1"/>
        <pt x="378" y="1314" on="1"/>
        <pt x="378" y="918" on="1"/>
        <pt x="414" y="922" on="0"/>
        <pt x="484" y="926" on="0"/>
        <pt x="513" y="926" on="1"/>
        <pt x="627" y="926" on="0"/>
        <pt x="785" y="888" on="0"/>
        <pt x="858" y="833" on="1"/>
        <pt x="932" y="777" on="0"/>
        <pt x="1011" y="609" on="0"/>
      </contour>
    </TTGlyph>
    <TTGlyph name="greater" xMin="215" yMin="79" xMax="1289" yMax="1225">
      <contour>
        <pt x="1289" y="592" on="1"/>
        <pt x="215" y="79" on="1"/>
        <pt x="215" y="257" on="1"/>
        <pt x="1048" y="652" on="1"/>
        <pt x="215" y="1047" on="1"/>
        <pt x="215" y="1225" on="1"/>
        <pt x="1289" y="712" on="1"/>
      </contour>
    </TTGlyph>
    <TTGlyph name="hyphen" xMin="190" yMin="0" xMax="429" yMax="285">
      <contour>
        <pt x="429" y="0" on="1"/>
        <pt x="190" y="0" on="1"/>
        <pt x="190" y="285" on="1"/>
        <pt x="429" y="285" on="1"/>
      </contour>
    </TTGlyph>
    <TTGlyph name="less" xMin="201" yMin="79" xMax="1275" yMax="1225">
      <contour>
        <pt x="1275" y="79" on="1"/>
        <pt x="201" y="592" on="1"/>
        <pt x="201" y="712" on="1"/>
        <pt x="1275" y="1225" on="1"/>
        <pt x="1275" y="1047" on="1"/>
        <pt x="442" y="652" on="1"/>
        <pt x="1275" y="257" on="1"/>
      </contour>
    </TTGlyph>
    <TTGlyph name="nine" xMin="243" yMin="0" xMax="482" yMax="1117">
      <contour>
        <pt x="482" y="832" on="1"/>
        <pt x="243" y="832" on="1"/>
        <pt x="243" y="1117" on="1"/>
        <pt x="482" y="1117" on="1"/>
      </contour>
      <contour>
        <pt x="482" y="0" on="1"/>
        <pt x="243" y="0" on="1"/>
        <pt x="243" y="285" on="1"/>
        <pt x="482" y="285" on="1"/>
      </contour>
    </TTGlyph>
    <TTGlyph name="numbersign" xMin="106" yMin="-361" xMax="1024" yMax="1576">
      <contour>
        <pt x="1024" y="380" on="1"/>
        <pt x="1024" y="233" on="0"/>
        <pt x="799" y="22" on="0"/>
        <pt x="628" y="1" on="1"/>
        <pt x="628" y="-361" on="1"/>
        <pt x="514" y="-361" on="1"/>
        <pt x="514" y="-4" on="1"/>
        <pt x="406" y="-3" on="0"/>
        <pt x="187" y="45" on="0"/>
        <pt x="106" y="85" on="1"/>
        <pt x="106" y="287" on="1"/>
        <pt x="121" y="287" on="1"/>
        <pt x="200" y="228" on="0"/>
        <pt x="398" y="154" on="0"/>
        <pt x="514" y="144" on="1"/>
        <pt x="514" y="576" on="1"/>
        <pt x="489" y="582" on="0"/>
        <pt x="417" y="599" on="0"/>
        <pt x="392" y="607" on="1"/>
        <pt x="242" y="648" on="0"/>
        <pt x="113" y="814" on="0"/>
        <pt x="113" y="935" on="1"/>
        <pt x="113" y="1077" on="0"/>
        <pt x="335" y="1287" on="0"/>
        <pt x="514" y="1304" on="1"/>
        <pt x="514" y="1576" on="1"/>
        <pt x="628" y="1576" on="1"/>
        <pt x="628" y="1306" on="1"/>
        <pt x="719" y="1303" on="0"/>
        <pt x="914" y="1258" on="0"/>
        <pt x="976" y="1231" on="1"/>
        <pt x="976" y="1033" on="1"/>
        <pt x="961" y="1033" on="1"/>
        <pt x="891" y="1081" on="0"/>
        <pt x="724" y="1153" on="0"/>
        <pt x="628" y="1161" on="1"/>
        <pt x="628" y="731" on="1"/>
        <pt x="661" y="724" on="0"/>
        <pt x="718" y="709" on="0"/>
        <pt x="739" y="704" on="1"/>
        <pt x="875" y="672" on="0"/>
        <pt x="1024" y="514" on="0"/>
      </contour>
      <contour>
        <pt x="514" y="746" on="1"/>
        <pt x="514" y="1160" on="1"/>
        <pt x="424" y="1152" on="0"/>
        <pt x="302" y="1051" on="0"/>
        <pt x="302" y="961" on="1"/>
        <pt x="302" y="872" on="0"/>
        <pt x="391" y="775" on="0"/>
      </contour>
      <contour>
        <pt x="835" y="354" on="1"/>
        <pt x="835" y="448" on="0"/>
        <pt x="739" y="538" on="0"/>
        <pt x="628" y="561" on="1"/>
        <pt x="628" y="146" on="1"/>
        <pt x="730" y="158" on="0"/>
        <pt x="835" y="257" on="0"/>
      </contour>
    </TTGlyph>
    <TTGlyph name="one" xMin="109" yMin="0" xMax="1028" yMax="1520">
      <contour>
        <pt x="1028" y="0" on="1"/>
        <pt x="109" y="0" on="1"/>
        <pt x="109" y="209" on="1"/>
        <pt x="208" y="303" on="0"/>
        <pt x="384" y="475" on="0"/>
        <pt x="468" y="568" on="1"/>
        <pt x="638" y="755" on="0"/>
        <pt x="762" y="980" on="0"/>
        <pt x="762" y="1100" on="1"/>
        <pt x="762" y="1162" on="0"/>
        <pt x="723" y="1256" on="0"/>
        <pt x="689" y="1287" on="1"/>
        <pt x="654" y="1317" on="0"/>
        <pt x="562" y="1347" on="0"/>
        <pt x="507" y="1347" on="1"/>
        <pt x="454" y="1347" on="0"/>
        <pt x="345" y="1320" on="0"/>
        <pt x="295" y="1300" on="1"/>
        <pt x="253" y="1283" on="0"/>
        <pt x="175" y="1235" on="0"/>
        <pt x="151" y="1218" on="1"/>
        <pt x="140" y="1218" on="1"/>
        <pt x="140" y="1430" on="1"/>
        <pt x="202" y="1461" on="0"/>
        <pt x="423" y="1520" on="0"/>
        <pt x="522" y="1520" on="1"/>
        <pt x="730" y="1520" on="0"/>
        <pt x="966" y="1299" on="0"/>
        <pt x="966" y="1110" on="1"/>
        <pt x="966" y="1023" on="0"/>
        <pt x="925" y="875" on="0"/>
        <pt x="889" y="812" on="1"/>
        <pt x="852" y="747" on="0"/>
        <pt x="748" y="619" on="0"/>
        <pt x="690" y="557" on="1"/>
        <pt x="596" y="455" on="0"/>
        <pt x="365" y="235" on="0"/>
        <pt x="296" y="171" on="1"/>
        <pt x="1028" y="171" on="1"/>
      </contour>
    </TTGlyph>
    <TTGlyph name="parenleft" xMin="74" yMin="-412" xMax="676" yMax="1556">
      <contour>
        <pt x="676" y="572" on="1"/>
        <pt x="676" y="263" on="0"/>
        <pt x="478" y="-205" on="0"/>
        <pt x="303" y="-412" on="1"/>
        <pt x="74" y="-412" on="1"/>
        <pt x="74" y="-402" on="1"/>
        <pt x="151" y="-333" on="0"/>
        <pt x="307" y="-132" on="0"/>
        <pt x="365" y="-11" on="1"/>
        <pt x="427" y="118" on="0"/>
        <pt x="500" y="405" on="0"/>
        <pt x="500" y="572" on="1"/>
        <pt x="500" y="737" on="0"/>
        <pt x="426" y="1031" on="0"/>
        <pt x="365" y="1155" on="1"/>
        <pt x="304" y="1279" on="0"/>
        <pt x="150" y="1477" on="0"/>
        <pt x="74" y="1546" on="1"/>
        <pt x="74" y="1556" on="1"/>
        <pt x="303" y="1556" on="1"/>
        <pt x="477" y="1349" on="0"/>
        <pt x="676" y="883" on="0"/>
      </contour>
    </TTGlyph>
    <TTGlyph name="parenright" xMin="112" yMin="630" xMax="1007" yMax="1556">
      <contour>
        <pt x="1007" y="887" on="1"/>
        <pt x="942" y="777" on="1"/>
        <pt x="615" y="994" on="1"/>
        <pt x="622" y="630" on="1"/>
        <pt x="497" y="630" on="1"/>
        <pt x="503" y="994" on="1"/>
        <pt x="178" y="776" on="1"/>
        <pt x="112" y="886" on="1"/>
        <pt x="466" y="1093" on="1"/>
        <pt x="112" y="1300" on="1"/>
        <pt x="178" y="1410" on="1"/>
        <pt x="504" y="1191" on="1"/>
        <pt x="497" y="1556" on="1"/>
        <pt x="622" y="1556" on="1"/>
        <pt x="614" y="1191" on="1"/>
        <pt x="942" y="1409" on="1"/>
        <pt x="1007" y="1299" on="1"/>
        <pt x="653" y="1094" on="1"/>
      </contour>
    </TTGlyph>
    <TTGlyph name="percent" xMin="67" yMin="-31" xMax="1445" yMax="1520">
      <contour>
        <pt x="1445" y="0" on="1"/>
        <pt x="1189" y="0" on="1"/>
        <pt x="985" y="213" on="1"/>
        <pt x="883" y="83" on="0"/>
        <pt x="668" y="-31" on="0"/>
        <pt x="532" y="-31" on="1"/>
        <pt x="330" y="-31" on="0"/>
        <pt x="67" y="212" on="0"/>
        <pt x="67" y="409" on="1"/>
        <pt x="67" y="495" on="0"/>
        <pt x="115" y="629" on="0"/>
        <pt x="155" y="683" on="1"/>
        <pt x="194" y="735" on="0"/>
        <pt x="296" y="814" on="0"/>
        <pt x="343" y="843" on="1"/>
        <pt x="242" y="911" on="0"/>
        <pt x="142" y="1061" on="0"/>
        <pt x="142" y="1175" on="1"/>
        <pt x="142" y="1246" on="0"/>
        <pt x="199" y="1367" on="0"/>
        <pt x="245" y="1413" on="1"/>
        <pt x="293" y="1460" on="0"/>
        <pt x="446" y="1520" on="0"/>
        <pt x="537" y="1520" on="1"/>
        <pt x="703" y="1520" on="0"/>
        <pt x="913" y="1345" on="0"/>
        <pt x="913" y="1211" on="1"/>
        <pt x="913" y="1162" on="0"/>
        <pt x="888" y="1057" on="0"/>
        <pt x="855" y="1008" on="1"/>
        <pt x="822" y="959" on="0"/>
        <pt x="715" y="873" on="0"/>
        <pt x="626" y="841" on="1"/>
        <pt x="978" y="479" on="1"/>
        <pt x="992" y="561" on="0"/>
        <pt x="998" y="754" on="0"/>
        <pt x="998" y="909" on="1"/>
        <pt x="1193" y="909" on="1"/>
        <pt x="1193" y="813" on="1"/>
        <pt x="1193" y="717" on="0"/>
        <pt x="1144" y="476" on="0"/>
        <pt x="1088" y="368" on="1"/>
      </contour>
      <contour>
        <pt x="898" y="301" on="1"/>
        <pt x="438" y="772" on="1"/>
        <pt x="413" y="756" on="0"/>
        <pt x="363" y="712" on="0"/>
        <pt x="333" y="668" on="1"/>
        <pt x="309" y="633" on="0"/>
        <pt x="272" y="520" on="0"/>
        <pt x="272" y="457" on="1"/>
        <pt x="272" y="315" on="0"/>
        <pt x="441" y="132" on="0"/>
        <pt x="585" y="132" on="1"/>
        <pt x="681" y="132" on="0"/>
        <pt x="835" y="213" on="0"/>
      </contour>
      <contour>
        <pt x="532" y="912" on="1"/>
        <pt x="588" y="931" on="0"/>
        <pt x="661" y="995" on="0"/>
        <pt x="681" y="1033" on="1"/>
        <pt x="699" y="1068" on="0"/>
        <pt x="717" y="1146" on="0"/>
        <pt x="717" y="1191" on="1"/>
        <pt x="717" y="1288" on="0"/>
        <pt x="604" y="1394" on="0"/>
        <pt x="529" y="1394" on="1"/>
        <pt x="440" y="1394" on="0"/>
        <pt x="338" y="1274" on="0"/>
        <pt x="338" y="1184" on="1"/>
        <pt x="338" y="1144" on="0"/>
        <pt x="353" y="1087" on="0"/>
        <pt x="377" y="1049" on="1"/>
        <pt x="398" y="1018" on="0"/>
        <pt x="473" y="948" on="0"/>
      </contour>
    </TTGlyph>
    <TTGlyph name="period" xMin="-24" yMin="-324" xMax="728" yMax="1556">
      <contour>
        <pt x="728" y="1556" on="1"/>
        <pt x="145" y="-324" on="1"/>
        <pt x="-24" y="-324" on="1"/>
        <pt x="556" y="1556" on="1"/>
      </contour>
    </TTGlyph>
    <TTGlyph name="plus" xMin="186" yMin="-287" xMax="394" yMax="192">
      <contour>
        <pt x="394" y="-71" on="1"/>
        <pt x="380" y="-112" on="0"/>
        <pt x="361" y="-167" on="0"/>
        <pt x="343" y="-204" on="0"/>
        <pt x="325" y="-228" on="0"/>
        <pt x="299" y="-248" on="0"/>
        <pt x="261" y="-270" on="0"/>
        <pt x="234" y="-287" on="1"/>
        <pt x="226" y="-272" on="0"/>
        <pt x="219" y="-256" on="0"/>
        <pt x="210" y="-244" on="0"/>
        <pt x="198" y="-229" on="0"/>
        <pt x="186" y="-215" on="1"/>
        <pt x="216" y="-197" on="0"/>
        <pt x="248" y="-174" on="0"/>
        <pt x="268" y="-144" on="0"/>
        <pt x="284" y="-98" on="0"/>
        <pt x="298" y="-56" on="1"/>
        <pt x="298" y="0" on="1"/>
        <pt x="202" y="0" on="1"/>
        <pt x="202" y="192" on="1"/>
        <pt x="394" y="192" on="1"/>
      </contour>
    </TTGlyph>
    <TTGlyph name="question" xMin="109" yMin="0" xMax="912" yMax="1519">
      <contour>
        <pt x="912" y="1139" on="1"/>
        <pt x="912" y="1041" on="0"/>
        <pt x="847" y="888" on="0"/>
        <pt x="793" y="830" on="1"/>
        <pt x="739" y="772" on="0"/>
        <pt x="602" y="674" on="0"/>
        <pt x="526" y="628" on="1"/>
        <pt x="526" y="400" on="1"/>
        <pt x="347" y="400" on="1"/>
        <pt x="347" y="705" on="1"/>
        <pt x="403" y="739" on="0"/>
        <pt x="552" y="834" on="0"/>
        <pt x="594" y="875" on="1"/>
        <pt x="648" y="926" on="0"/>
        <pt x="708" y="1047" on="0"/>
        <pt x="708" y="1124" on="1"/>
        <pt x="708" y="1237" on="0"/>
        <pt x="566" y="1348" on="0"/>
        <pt x="452" y="1348" on="1"/>
        <pt x="352" y="1348" on="0"/>
        <pt x="175" y="1281" on="0"/>
        <pt x="120" y="1245" on="1"/>
        <pt x="109" y="1245" on="1"/>
        <pt x="109" y="1449" on="1"/>
        <pt x="176" y="1476" on="0"/>
        <pt x="380" y="1519" on="0"/>
        <pt x="471" y="1519" on="1"/>
        <pt x="676" y="1519" on="0"/>
        <pt x="912" y="1310" on="0"/>
      </contour>
      <contour>
        <pt x="542" y="0" on="1"/>
        <pt x="338" y="0" on="1"/>
        <pt x="338" y="211" on="1"/>
        <pt x="542" y="211" on="1"/>
      </contour>
    </TTGlyph>
    <TTGlyph name="quotedbl" xMin="142" yMin="0" xMax="1348" yMax="1489">
      <contour>
        <pt x="1348" y="932" on="1"/>
        <pt x="1055" y="932" on="1"/>
        <pt x="963" y="556" on="1"/>
        <pt x="1231" y="556" on="1"/>
        <pt x="1231" y="421" on="1"/>
        <pt x="928" y="421" on="1"/>
        <pt x="823" y="0" on="1"/>
        <pt x="694" y="0" on="1"/>
        <pt x="799" y="421" on="1"/>
        <pt x="529" y="421" on="1"/>
        <pt x="424" y="0" on="1"/>
        <pt x="295" y="0" on="1"/>
        <pt x="400" y="421" on="1"/>
        <pt x="142" y="421" on="1"/>
        <pt x="142" y="556" on="1"/>
        <pt x="435" y="556" on="1"/>
        <pt x="527" y="932" on="1"/>
        <pt x="259" y="932" on="1"/>
        <pt x="259" y="1067" on="1"/>
        <pt x="562" y="1067" on="1"/>
        <pt x="667" y="1489" on="1"/>
        <pt x="796" y="1489" on="1"/>
        <pt x="691" y="1067" on="1"/>
        <pt x="961" y="1067" on="1"/>
        <pt x="1066" y="1489" on="1"/>
        <pt x="1195" y="1489" on="1"/>
        <pt x="1090" y="1067" on="1"/>
        <pt x="1348" y="1067" on="1"/>
      </contour>
      <contour>
        <pt x="929" y="934" on="1"/>
        <pt x="655" y="934" on="1"/>
        <pt x="561" y="554" on="1"/>
        <pt x="835" y="554" on="1"/>
      </contour>
    </TTGlyph>
    <TTGlyph name="quotesingle" xMin="108" yMin="-412" xMax="710" yMax="1556">
      <contour>
        <pt x="710" y="-412" on="1"/>
        <pt x="481" y="-412" on="1"/>
        <pt x="307" y="-205" on="0"/>
        <pt x="108" y="257" on="0"/>
        <pt x="108" y="572" on="1"/>
        <pt x="108" y="880" on="0"/>
        <pt x="305" y="1349" on="0"/>
        <pt x="481" y="1556" on="1"/>
        <pt x="710" y="1556" on="1"/>
        <pt x="710" y="1546" on="1"/>
        <pt x="629" y="1473" on="0"/>
        <pt x="482" y="1282" on="0"/>
        <pt x="419" y="1155" on="1"/>
        <pt x="359" y="1032" on="0"/>
        <pt x="284" y="736" on="0"/>
        <pt x="284" y="572" on="1"/>
        <pt x="284" y="401" on="0"/>
        <pt x="357" y="117" on="0"/>
        <pt x="419" y="-11" on="1"/>
        <pt x="479" y="-134" on="0"/>
        <pt x="633" y="-333" on="0"/>
        <pt x="710" y="-402" on="1"/>
      </contour>
    </TTGlyph>
    <TTGlyph name="seven" xMin="74" yMin="-34" xMax="1044" yMax="1523">
      <contour>
        <pt x="811" y="1142" on="1"/>
        <pt x="811" y="1242" on="0"/>
        <pt x="677" y="1376" on="0"/>
        <pt x="558" y="1376" on="1"/>
        <pt x="449" y="1376" on="0"/>
        <pt x="310" y="1256" on="0"/>
        <pt x="310" y="1154" on="1"/>
        <pt x="310" y="1080" on="0"/>
        <pt x="381" y="978" on="0"/>
        <pt x="452" y="937" on="1"/>
        <pt x="483" y="920" on="0"/>
        <pt x="610" y="860" on="0"/>
        <pt x="662" y="843" on="1"/>
        <pt x="749" y="910" on="0"/>
        <pt x="811" y="1051" on="0"/>
      </contour>
      <contour>
        <pt x="839" y="396" on="1"/>
        <pt x="839" y="488" on="0"/>
        <pt x="767" y="596" on="0"/>
        <pt x="664" y="652" on="1"/>
        <pt x="630" y="671" on="0"/>
        <pt x="517" y="715" on="0"/>
        <pt x="446" y="745" on="1"/>
        <pt x="363" y="690" on="0"/>
        <pt x="275" y="529" on="0"/>
        <pt x="275" y="426" on="1"/>
        <pt x="275" y="291" on="0"/>
        <pt x="438" y="115" on="0"/>
        <pt x="561" y="115" on="1"/>
        <pt x="687" y="115" on="0"/>
        <pt x="839" y="266" on="0"/>
      </contour>
      <contour>
        <pt x="559" y="-34" on="1"/>
        <pt x="448" y="-34" on="0"/>
        <pt x="266" y="32" on="0"/>
        <pt x="202" y="94" on="1"/>
        <pt x="139" y="154" on="0"/>
        <pt x="74" y="319" on="0"/>
        <pt x="74" y="411" on="1"/>
        <pt x="74" y="532" on="0"/>
        <pt x="203" y="735" on="0"/>
        <pt x="326" y="795" on="1"/>
        <pt x="326" y="801" on="1"/>
        <pt x="216" y="865" on="0"/>
        <pt x="110" y="1017" on="0"/>
        <pt x="110" y="1131" on="1"/>
        <pt x="110" y="1299" on="0"/>
        <pt x="364" y="1523" on="0"/>
        <pt x="559" y="1523" on="1"/>
        <pt x="762" y="1523" on="0"/>
        <pt x="1007" y="1310" on="0"/>
        <pt x="1007" y="1144" on="1"/>
        <pt x="1007" y="1044" on="0"/>
        <pt x="890" y="848" on="0"/>
        <pt x="780" y="793" on="1"/>
        <pt x="780" y="787" on="1"/>
        <pt x="910" y="726" on="0"/>
        <pt x="1044" y="552" on="0"/>
        <pt x="1044" y="415" on="1"/>
        <pt x="1044" y="224" on="0"/>
        <pt x="767" y="-34" on="0"/>
      </contour>
    </TTGlyph>
    <TTGlyph name="six" xMin="99" yMin="0" xMax="1044" yMax="1489">
      <contour>
        <pt x="1044" y="1266" on="1"/>
        <pt x="400" y="0" on="1"/>
        <pt x="187" y="0" on="1"/>
        <pt x="869" y="1314" on="1"/>
        <pt x="99" y="1314" on="1"/>
        <pt x="99" y="1489" on="1"/>
        <pt x="1044" y="1489" on="1"/>
      </contour>
    </TTGlyph>
    <TTGlyph name="slash" xMin="83" yMin="-31" xMax="1035" yMax="1519">
      <contour>
        <pt x="1035" y="745" on="1"/>
        <pt x="1035" y="344" on="0"/>
        <pt x="802" y="-31" on="0"/>
        <pt x="559" y="-31" on="1"/>
        <pt x="313" y="-31" on="0"/>
        <pt x="83" y="351" on="0"/>
        <pt x="83" y="743" on="1"/>
        <pt x="83" y="1146" on="0"/>
        <pt x="316" y="1519" on="0"/>
        <pt x="559" y="1519" on="1"/>
        <pt x="805" y="1519" on="0"/>
        <pt x="1035" y="1133" on="0"/>
      </contour>
      <contour>
        <pt x="779" y="291" on="1"/>
        <pt x="808" y="365" on="0"/>
        <pt x="832" y="591" on="0"/>
        <pt x="832" y="745" on="1"/>
        <pt x="832" y="898" on="0"/>
        <pt x="808" y="1124" on="0"/>
        <pt x="778" y="1199" on="1"/>
        <pt x="748" y="1275" on="0"/>
        <pt x="643" y="1354" on="0"/>
        <pt x="559" y="1354" on="1"/>
        <pt x="476" y="1354" on="0"/>
        <pt x="369" y="1275" on="0"/>
        <pt x="338" y="1197" on="1"/>
        <pt x="308" y="1121" on="0"/>
        <pt x="286" y="889" on="0"/>
        <pt x="286" y="743" on="1"/>
        <pt x="286" y="587" on="0"/>
        <pt x="305" y="377" on="0"/>
        <pt x="337" y="294" on="1"/>
        <pt x="366" y="217" on="0"/>
        <pt x="473" y="134" on="0"/>
        <pt x="559" y="134" on="1"/>
        <pt x="642" y="134" on="0"/>
        <pt x="749" y="213" on="0"/>
      </contour>
    </TTGlyph>
    <TTGlyph name="space" xMin="228" yMin="0" xMax="452" yMax="1489">
      <contour>
        <pt x="452" y="1489" on="1"/>
        <pt x="424" y="410" on="1"/>
        <pt x="258" y="410" on="1"/>
        <pt x="228" y="1489" on="1"/>
      </contour>
      <contour>
        <pt x="442" y="0" on="1"/>
        <pt x="238" y="0" on="1"/>
        <pt x="238" y="211" on="1"/>
        <pt x="442" y="211" on="1"/>
      </contour>
    </TTGlyph>
    <TTGlyph name="three" xMin="40" yMin="0" xMax="1067" yMax="1489">
      <contour>
        <pt x="1067" y="512" on="1"/>
        <pt x="890" y="512" on="1"/>
        <pt x="890" y="0" on="1"/>
        <pt x="698" y="0" on="1"/>
        <pt x="698" y="512" on="1"/>
        <pt x="40" y="512" on="1"/>
        <pt x="40" y="722" on="1"/>
        <pt x="706" y="1489" on="1"/>
        <pt x="890" y="1489" on="1"/>
        <pt x="890" y="672" on="1"/>
        <pt x="1067" y="672" on="1"/>
      </contour>
      <contour>
        <pt x="698" y="672" on="1"/>
        <pt x="698" y="1254" on="1"/>
        <pt x="196" y="672" on="1"/>
      </contour>
    </TTGlyph>
    <TTGlyph name="two" xMin="97" yMin="-31" xMax="1002" yMax="1520">
      <contour>
        <pt x="511" y="1347" on="1"/>
        <pt x="457" y="1347" on="0"/>
        <pt x="349" y="1321" on="0"/>
        <pt x="297" y="1300" on="1"/>
        <pt x="249" y="1280" on="0"/>
        <pt x="178" y="1236" on="0"/>
        <pt x="150" y="1217" on="1"/>
        <pt x="138" y="1217" on="1"/>
        <pt x="138" y="1428" on="1"/>
        <pt x="203" y="1463" on="0"/>
        <pt x="426" y="1520" on="0"/>
        <pt x="527" y="1520" on="1"/>
        <pt x="628" y="1520" on="0"/>
        <pt x="779" y="1479" on="0"/>
        <pt x="840" y="1436" on="1"/>
        <pt x="906" y="1388" on="0"/>
        <pt x="973" y="1252" on="0"/>
        <pt x="973" y="1161" on="1"/>
        <pt x="973" y="1038" on="0"/>
        <pt x="811" y="852" on="0"/>
        <pt x="698" y="827" on="1"/>
        <pt x="698" y="813" on="1"/>
        <pt x="745" y="804" on="0"/>
        <pt x="852" y="760" on="0"/>
        <pt x="898" y="717" on="1"/>
        <pt x="944" y="674" on="0"/>
        <pt x="1002" y="539" on="0"/>
        <pt x="1002" y="442" on="1"/>
        <pt x="1002" y="341" on="0"/>
        <pt x="933" y="172" on="0"/>
        <pt x="870" y="107" on="1"/>
        <pt x="805" y="39" on="0"/>
        <pt x="621" y="-31" on="0"/>
        <pt x="504" y="-31" on="1"/>
        <pt x="392" y="-31" on="0"/>
        <pt x="172" y="23" on="0"/>
        <pt x="97" y="61" on="1"/>
        <pt x="97" y="272" on="1"/>
        <pt x="111" y="272" on="1"/>
        <pt x="174" y="226" on="0"/>
        <pt x="386" y="142" on="0"/>
        <pt x="492" y="142" on="1"/>
        <pt x="553" y="142" on="0"/>
        <pt x="676" y="181" on="0"/>
        <pt x="717" y="225" on="1"/>
        <pt x="757" y="269" on="0"/>
        <pt x="799" y="375" on="0"/>
        <pt x="799" y="456" on="1"/>
        <pt x="799" y="537" on="0"/>
        <pt x="752" y="641" on="0"/>
        <pt x="710" y="671" on="1"/>
        <pt x="668" y="701" on="0"/>
        <pt x="553" y="724" on="0"/>
        <pt x="486" y="724" on="1"/>
        <pt x="401" y="724" on="1"/>
        <pt x="401" y="890" on="1"/>
        <pt x="467" y="890" on="1"/>
        <pt x="602" y="890" on="0"/>
        <pt x="771" y="1018" on="0"/>
        <pt x="771" y="1140" on="1"/>
        <pt x="771" y="1196" on="0"/>
        <pt x="727" y="1277" on="0"/>
        <pt x="693" y="1301" on="1"/>
        <pt x="655" y="1327" on="0"/>
        <pt x="563" y="1347" on="0"/>
      </contour>
    </TTGlyph>
    <TTGlyph name="uni0E81" xMin="100" yMin="0" xMax="1182" yMax="1140">
      <contour>
        <pt x="331" y="94" on="0"/>
        <pt x="331" y="155" on="1"/>
        <pt x="331" y="215" on="0"/>
        <pt x="267" y="215" on="1"/>
        <pt x="203" y="215" on="0"/>
        <pt x="203" y="155" on="1"/>
        <pt x="203" y="94" on="0"/>
        <pt x="267" y="94" on="1"/>
      </contour>
      <contour>
        <pt x="262" y="1044" on="1"/>
        <pt x="202" y="1044" on="0"/>
        <pt x="202" y="1001" on="1"/>
        <pt x="202" y="956" on="0"/>
        <pt x="243" y="950" on="1"/>
        <pt x="250" y="949" on="0"/>
        <pt x="258" y="949" on="1"/>
        <pt x="292" y="949" on="0"/>
        <pt x="331" y="974" on="1"/>
        <pt x="323" y="1038" on="0"/>
      </contour>
      <contour>
        <pt x="466" y="171" on="1"/>
        <pt x="459" y="13" on="0"/>
        <pt x="274" y="0" on="1"/>
        <pt x="109" y="3" on="0"/>
        <pt x="100" y="161" on="1"/>
        <pt x="116" y="291" on="0"/>
        <pt x="229" y="317" on="1"/>
        <pt x="250" y="320" on="0"/>
        <pt x="267" y="320" on="1"/>
        <pt x="308" y="320" on="0"/>
        <pt x="331" y="304" on="1"/>
        <pt x="331" y="843" on="1"/>
        <pt x="299" y="839" on="0"/>
        <pt x="269" y="835" on="1"/>
        <pt x="100" y="849" on="0"/>
        <pt x="100" y="993" on="1"/>
        <pt x="100" y="1135" on="0"/>
        <pt x="256" y="1140" on="1"/>
        <pt x="395" y="1140" on="0"/>
        <pt x="466" y="1032" on="1"/>
        <pt x="630" y="1135" on="0"/>
        <pt x="794" y="1140" on="1"/>
        <pt x="1154" y="1131" on="0"/>
        <pt x="1182" y="867" on="1"/>
        <pt x="1182" y="35" on="1"/>
        <pt x="1182" y="0" on="0"/>
        <pt x="1115" y="0" on="1"/>
        <pt x="1047" y="0" on="0"/>
        <pt x="1047" y="42" on="1"/>
        <pt x="1047" y="864" on="1"/>
        <pt x="1046" y="998" on="0"/>
        <pt x="794" y="1015" on="1"/>
        <pt x="623" y="993" on="0"/>
        <pt x="486" y="913" on="0"/>
        <pt x="466" y="892" on="1"/>
      </contour>
    </TTGlyph>
    <TTGlyph name="uni0E81.am" xMin="100" yMin="0" xMax="1182" yMax="1672">
      <contour>
        <pt x="331" y="94" on="0"/>
        <pt x="331" y="155" on="1"/>
        <pt x="331" y="215" on="0"/>
        <pt x="267" y="215" on="1"/>
        <pt x="203" y="215" on="0"/>
        <pt x="203" y="155" on="1"/>
        <pt x="203" y="94" on="0"/>
        <pt x="267" y="94" on="1"/>
      </contour>
      <contour>
        <pt x="262" y="1044" on="1"/>
        <pt x="202" y="1044" on="0"/>
        <pt x="202" y="1001" on="1"/>
        <pt x="202" y="956" on="0"/>
        <pt x="243" y="950" on="1"/>
        <pt x="250" y="949" on="0"/>
        <pt x="258" y="949" on="1"/>
        <pt x="292" y="949" on="0"/>
        <pt x="331" y="974" on="1"/>
        <pt x="323" y="1038" on="0"/>
      </contour>
      <contour>
        <pt x="466" y="171" on="1"/>
        <pt x="459" y="13" on="0"/>
        <pt x="274" y="0" on="1"/>
        <pt x="109" y="3" on="0"/>
        <pt x="100" y="161" on="1"/>
        <pt x="116" y="291" on="0"/>
        <pt x="229" y="317" on="1"/>
        <pt x="250" y="320" on="0"/>
        <pt x="267" y="320" on="1"/>
        <pt x="308" y="320" on="0"/>
        <pt x="331" y="304" on="1"/>
        <pt x="331" y="843" on="1"/>
        <pt x="299" y="839" on="0"/>
        <pt x="269" y="835" on="1"/>
        <pt x="100" y="849" on="0"/>
        <pt x="100" y="993" on="1"/>
        <pt x="100" y="1135" on="0"/>
        <pt x="256" y="1140" on="1"/>
        <pt x="395" y="1140" on="0"/>
        <pt x="466" y="1032" on="1"/>
        <pt x="630" y="1135" on="0"/>
        <pt x="794" y="1140" on="1"/>
        <pt x="1154" y="1131" on="0"/>
        <pt x="1182" y="867" on="1"/>
        <pt x="1182" y="35" on="1"/>
        <pt x="1182" y="0" on="0"/>
        <pt x="1115" y="0" on="1"/>
        <pt x="1047" y="0" on="0"/>
        <pt x="1047" y="42" on="1"/>
        <pt x="1047" y="864" on="1"/>
        <pt x="1046" y="998" on="0"/>
        <pt x="794" y="1015" on="1"/>
        <pt x="623" y="993" on="0"/>
        <pt x="486" y="913" on="0"/>
        <pt x="466" y="892" on="1"/>
      </contour>
      <contour>
        <pt x="729" y="1672" on="1"/>
        <pt x="778" y="1672" on="0"/>
        <pt x="872" y="1623" on="0"/>
        <pt x="924" y="1531" on="0"/>
        <pt x="924" y="1481" on="1"/>
        <pt x="924" y="1432" on="0"/>
        <pt x="873" y="1341" on="0"/>
        <pt x="780" y="1291" on="0"/>
        <pt x="729" y="1291" on="1"/>
        <pt x="678" y="1291" on="0"/>
        <pt x="585" y="1341" on="0"/>
        <pt x="533" y="1432" on="0"/>
        <pt x="533" y="1481" on="1"/>
        <pt x="533" y="1531" on="0"/>
        <pt x="586" y="1623" on="0"/>
        <pt x="679" y="1672" on="0"/>
      </contour>
      <contour>
        <pt x="709" y="1564" on="0"/>
        <pt x="670" y="1543" on="0"/>
        <pt x="647" y="1505" on="0"/>
        <pt x="647" y="1484" on="1"/>
        <pt x="647" y="1463" on="0"/>
        <pt x="669" y="1425" on="0"/>
        <pt x="708" y="1404" on="0"/>
        <pt x="729" y="1404" on="1"/>
        <pt x="751" y="1404" on="0"/>
        <pt x="790" y="1425" on="0"/>
        <pt x="811" y="1463" on="0"/>
        <pt x="811" y="1484" on="1"/>
        <pt x="811" y="1505" on="0"/>
        <pt x="789" y="1543" on="0"/>
        <pt x="750" y="1564" on="0"/>
        <pt x="729" y="1564" on="1"/>
      </contour>
    </TTGlyph>
    <TTGlyph name="uni0E82" xMin="100" yMin="0" xMax="1110" yMax="1140">
      <contour>
        <pt x="331" y="836" on="1"/>
        <pt x="263" y="836" on="0"/>
        <pt x="263" y="767" on="1"/>
        <pt x="263" y="698" on="0"/>
        <pt x="331" y="698" on="1"/>
        <pt x="398" y="698" on="0"/>
        <pt x="398" y="767" on="1"/>
        <pt x="398" y="836" on="0"/>
      </contour>
      <contour>
        <pt x="268" y="0" on="0"/>
        <pt x="100" y="145" on="0"/>
        <pt x="100" y="240" on="1"/>
        <pt x="100" y="448" on="0"/>
        <pt x="393" y="532" on="1"/>
        <pt x="605" y="594" on="1"/>
        <pt x="977" y="694" on="0"/>
        <pt x="977" y="818" on="1"/>
        <pt x="972" y="904" on="0"/>
        <pt x="791" y="1009" on="0"/>
        <pt x="576" y="1009" on="1"/>
        <pt x="281" y="1009" on="0"/>
        <pt x="239" y="887" on="1"/>
        <pt x="279" y="929" on="0"/>
        <pt x="330" y="929" on="1"/>
        <pt x="498" y="929" on="0"/>
        <pt x="498" y="788" on="1"/>
        <pt x="500" y="772" on="0"/>
        <pt x="500" y="758" on="1"/>
        <pt x="500" y="608" on="0"/>
        <pt x="321" y="606" on="1"/>
        <pt x="100" y="612" on="0"/>
        <pt x="100" y="837" on="1"/>
        <pt x="100" y="1140" on="0"/>
        <pt x="576" y="1140" on="1"/>
        <pt x="717" y="1138" on="0"/>
        <pt x="789" y="1126" on="1"/>
        <pt x="874" y="1111" on="0"/>
        <pt x="945" y="1074" on="1"/>
        <pt x="1016" y="1037" on="0"/>
        <pt x="1064" y="975" on="1"/>
        <pt x="1110" y="912" on="0"/>
        <pt x="1110" y="815" on="1"/>
        <pt x="1110" y="599" on="0"/>
        <pt x="652" y="471" on="1"/>
        <pt x="413" y="403" on="1"/>
        <pt x="232" y="350" on="0"/>
        <pt x="232" y="240" on="1"/>
        <pt x="233" y="202" on="0"/>
        <pt x="314" y="133" on="0"/>
        <pt x="365" y="133" on="1"/>
        <pt x="427" y="133" on="0"/>
        <pt x="760" y="254" on="0"/>
        <pt x="842" y="254" on="1"/>
        <pt x="942" y="254" on="0"/>
        <pt x="1026" y="170" on="1"/>
        <pt x="1064" y="126" on="1"/>
        <pt x="1092" y="83" on="0"/>
        <pt x="1100" y="42" on="1"/>
        <pt x="1100" y="32" on="1"/>
        <pt x="1100" y="0" on="0"/>
        <pt x="1050" y="0" on="1"/>
        <pt x="993" y="0" on="0"/>
        <pt x="990" y="26" on="1"/>
        <pt x="982" y="46" on="0"/>
        <pt x="895" y="121" on="0"/>
        <pt x="844" y="121" on="1"/>
        <pt x="783" y="121" on="0"/>
        <pt x="443" y="2" on="0"/>
        <pt x="367" y="0" on="1"/>
      </contour>
    </TTGlyph>
    <TTGlyph name="uni0E82.am" xMin="100" yMin="0" xMax="1110" yMax="1672">
      <contour>
        <pt x="331" y="836" on="1"/>
        <pt x="263" y="836" on="0"/>
        <pt x="263" y="767" on="1"/>
        <pt x="263" y="698" on="0"/>
        <pt x="331" y="698" on="1"/>
        <pt x="398" y="698" on="0"/>
        <pt x="398" y="767" on="1"/>
        <pt x="398" y="836" on="0"/>
      </contour>
      <contour>
        <pt x="268" y="0" on="0"/>
        <pt x="100" y="145" on="0"/>
        <pt x="100" y="240" on="1"/>
        <pt x="100" y="448" on="0"/>
        <pt x="393" y="532" on="1"/>
        <pt x="605" y="594" on="1"/>
        <pt x="977" y="694" on="0"/>
        <pt x="977" y="818" on="1"/>
        <pt x="972" y="904" on="0"/>
        <pt x="791" y="1009" on="0"/>
        <pt x="576" y="1009" on="1"/>
        <pt x="281" y="1009" on="0"/>
        <pt x="239" y="887" on="1"/>
        <pt x="279" y="929" on="0"/>
        <pt x="330" y="929" on="1"/>
        <pt x="498" y="929" on="0"/>
        <pt x="498" y="788" on="1"/>
        <pt x="500" y="772" on="0"/>
        <pt x="500" y="758" on="1"/>
        <pt x="500" y="608" on="0"/>
        <pt x="321" y="606" on="1"/>
        <pt x="100" y="612" on="0"/>
        <pt x="100" y="837" on="1"/>
        <pt x="100" y="1140" on="0"/>
        <pt x="576" y="1140" on="1"/>
        <pt x="717" y="1138" on="0"/>
        <pt x="789" y="1126" on="1"/>
        <pt x="874" y="1111" on="0"/>
        <pt x="945" y="1074" on="1"/>
        <pt x="1016" y="1037" on="0"/>
        <pt x="1064" y="975" on="1"/>
        <pt x="1110" y="912" on="0"/>
        <pt x="1110" y="815" on="1"/>
        <pt x="1110" y="599" on="0"/>
        <pt x="652" y="471" on="1"/>
        <pt x="413" y="403" on="1"/>
        <pt x="232" y="350" on="0"/>
        <pt x="232" y="240" on="1"/>
        <pt x="233" y="202" on="0"/>
        <pt x="314" y="133" on="0"/>
        <pt x="365" y="133" on="1"/>
        <pt x="427" y="133" on="0"/>
        <pt x="760" y="254" on="0"/>
        <pt x="842" y="254" on="1"/>
        <pt x="942" y="254" on="0"/>
        <pt x="1026" y="170" on="1"/>
        <pt x="1064" y="126" on="1"/>
        <pt x="1092" y="83" on="0"/>
        <pt x="1100" y="42" on="1"/>
        <pt x="1100" y="32" on="1"/>
        <pt x="1100" y="0" on="0"/>
        <pt x="1050" y="0" on="1"/>
        <pt x="993" y="0" on="0"/>
        <pt x="990" y="26" on="1"/>
        <pt x="982" y="46" on="0"/>
        <pt x="895" y="121" on="0"/>
        <pt x="844" y="121" on="1"/>
        <pt x="783" y="121" on="0"/>
        <pt x="443" y="2" on="0"/>
        <pt x="367" y="0" on="1"/>
      </contour>
      <contour>
        <pt x="649" y="1672" on="1"/>
        <pt x="698" y="1672" on="0"/>
        <pt x="792" y="1623" on="0"/>
        <pt x="844" y="1531" on="0"/>
        <pt x="844" y="1481" on="1"/>
        <pt x="844" y="1432" on="0"/>
        <pt x="793" y="1341" on="0"/>
        <pt x="700" y="1291" on="0"/>
        <pt x="649" y="1291" on="1"/>
        <pt x="598" y="1291" on="0"/>
        <pt x="505" y="1341" on="0"/>
        <pt x="453" y="1432" on="0"/>
        <pt x="453" y="1481" on="1"/>
        <pt x="453" y="1531" on="0"/>
        <pt x="506" y="1623" on="0"/>
        <pt x="599" y="1672" on="0"/>
      </contour>
      <contour>
        <pt x="629" y="1564" on="0"/>
        <pt x="590" y="1543" on="0"/>
        <pt x="567" y="1505" on="0"/>
        <pt x="567" y="1484" on="1"/>
        <pt x="567" y="1463" on="0"/>
        <pt x="589" y="1425" on="0"/>
        <pt x="628" y="1404" on="0"/>
        <pt x="649" y="1404" on="1"/>
        <pt x="671" y="1404" on="0"/>
        <pt x="710" y="1425" on="0"/>
        <pt x="731" y="1463" on="0"/>
        <pt x="731" y="1484" on="1"/>
        <pt x="731" y="1505" on="0"/>
        <pt x="709" y="1543" on="0"/>
        <pt x="670" y="1564" on="0"/>
        <pt x="649" y="1564" on="1"/>
      </contour>
    </TTGlyph>
    <TTGlyph name="uni0E84" xMin="100" yMin="0" xMax="1110" yMax="1140">
      <contour>
        <pt x="413" y="225" on="0"/>
        <pt x="342" y="225" on="1"/>
        <pt x="271" y="225" on="0"/>
        <pt x="271" y="158" on="1"/>
        <pt x="271" y="90" on="0"/>
        <pt x="342" y="90" on="1"/>
        <pt x="413" y="90" on="0"/>
        <pt x="413" y="158" on="1"/>
      </contour>
      <contour>
        <pt x="100" y="380" on="1"/>
        <pt x="100" y="539" on="0"/>
        <pt x="266" y="602" on="1"/>
        <pt x="100" y="665" on="0"/>
        <pt x="100" y="833" on="1"/>
        <pt x="100" y="1140" on="0"/>
        <pt x="604" y="1140" on="1"/>
        <pt x="1108" y="1140" on="0"/>
        <pt x="1110" y="787" on="1"/>
        <pt x="1110" y="41" on="1"/>
        <pt x="1110" y="0" on="0"/>
        <pt x="1043" y="0" on="1"/>
        <pt x="975" y="0" on="0"/>
        <pt x="975" y="41" on="1"/>
        <pt x="975" y="789" on="1"/>
        <pt x="975" y="1016" on="0"/>
        <pt x="607" y="1016" on="1"/>
        <pt x="237" y="1016" on="0"/>
        <pt x="237" y="833" on="1"/>
        <pt x="237" y="728" on="0"/>
        <pt x="362" y="659" on="0"/>
        <pt x="426" y="657" on="1"/>
        <pt x="505" y="657" on="0"/>
        <pt x="505" y="602" on="1"/>
        <pt x="505" y="547" on="0"/>
        <pt x="465" y="547" on="1"/>
        <pt x="425" y="547" on="0"/>
        <pt x="300" y="515" on="1"/>
        <pt x="237" y="475" on="0"/>
        <pt x="237" y="380" on="1"/>
        <pt x="237" y="262" on="1"/>
        <pt x="246" y="275" on="1"/>
        <pt x="288" y="317" on="0"/>
        <pt x="362" y="317" on="1"/>
        <pt x="518" y="317" on="0"/>
        <pt x="518" y="178" on="1"/>
        <pt x="520" y="162" on="0"/>
        <pt x="520" y="147" on="1"/>
        <pt x="520" y="2" on="0"/>
        <pt x="342" y="0" on="1"/>
        <pt x="100" y="6" on="0"/>
        <pt x="100" y="295" on="1"/>
      </contour>
    </TTGlyph>
    <TTGlyph name="uni0E84.am" xMin="100" yMin="0" xMax="1110" yMax="1672">
      <contour>
        <pt x="413" y="225" on="0"/>
        <pt x="342" y="225" on="1"/>
        <pt x="271" y="225" on="0"/>
        <pt x="271" y="158" on="1"/>
        <pt x="271" y="90" on="0"/>
        <pt x="342" y="90" on="1"/>
        <pt x="413" y="90" on="0"/>
        <pt x="413" y="158" on="1"/>
      </contour>
      <contour>
        <pt x="100" y="380" on="1"/>
        <pt x="100" y="539" on="0"/>
        <pt x="266" y="602" on="1"/>
        <pt x="100" y="665" on="0"/>
        <pt x="100" y="833" on="1"/>
        <pt x="100" y="1140" on="0"/>
        <pt x="604" y="1140" on="1"/>
        <pt x="1108" y="1140" on="0"/>
        <pt x="1110" y="787" on="1"/>
        <pt x="1110" y="41" on="1"/>
        <pt x="1110" y="0" on="0"/>
        <pt x="1043" y="0" on="1"/>
        <pt x="975" y="0" on="0"/>
        <pt x="975" y="41" on="1"/>
        <pt x="975" y="789" on="1"/>
        <pt x="975" y="1016" on="0"/>
        <pt x="607" y="1016" on="1"/>
        <pt x="237" y="1016" on="0"/>
        <pt x="237" y="833" on="1"/>
        <pt x="237" y="728" on="0"/>
        <pt x="362" y="659" on="0"/>
        <pt x="426" y="657" on="1"/>
        <pt x="505" y="657" on="0"/>
        <pt x="505" y="602" on="1"/>
        <pt x="505" y="547" on="0"/>
        <pt x="465" y="547" on="1"/>
        <pt x="425" y="547" on="0"/>
        <pt x="300" y="515" on="1"/>
        <pt x="237" y="475" on="0"/>
        <pt x="237" y="380" on="1"/>
        <pt x="237" y="262" on="1"/>
        <pt x="246" y="275" on="1"/>
        <pt x="288" y="317" on="0"/>
        <pt x="362" y="317" on="1"/>
        <pt x="518" y="317" on="0"/>
        <pt x="518" y="178" on="1"/>
        <pt x="520" y="162" on="0"/>
        <pt x="520" y="147" on="1"/>
        <pt x="520" y="2" on="0"/>
        <pt x="342" y="0" on="1"/>
        <pt x="100" y="6" on="0"/>
        <pt x="100" y="295" on="1"/>
      </contour>
      <contour>
        <pt x="629" y="1672" on="1"/>
        <pt x="678" y="1672" on="0"/>
        <pt x="772" y="1623" on="0"/>
        <pt x="824" y="1531" on="0"/>
        <pt x="824" y="1481" on="1"/>
        <pt x="824" y="1432" on="0"/>
        <pt x="773" y="1341" on="0"/>
        <pt x="680" y="1291" on="0"/>
        <pt x="629" y="1291" on="1"/>
        <pt x="578" y="1291" on="0"/>
        <pt x="485" y="1341" on="0"/>
        <pt x="433" y="1432" on="0"/>
        <pt x="433" y="1481" on="1"/>
        <pt x="433" y="1531" on="0"/>
        <pt x="486" y="1623" on="0"/>
        <pt x="579" y="1672" on="0"/>
      </contour>
      <contour>
        <pt x="609" y="1564" on="0"/>
        <pt x="570" y="1543" on="0"/>
        <pt x="547" y="1505" on="0"/>
        <pt x="547" y="1484" on="1"/>
        <pt x="547" y="1463" on="0"/>
        <pt x="569" y="1425" on="0"/>
        <pt x="608" y="1404" on="0"/>
        <pt x="629" y="1404" on="1"/>
        <pt x="651" y="1404" on="0"/>
        <pt x="690" y="1425" on="0"/>
        <pt x="711" y="1463" on="0"/>
        <pt x="711" y="1484" on="1"/>
        <pt x="711" y="1505" on="0"/>
        <pt x="689" y="1543" on="0"/>
        <pt x="650" y="1564" on="0"/>
        <pt x="629" y="1564" on="1"/>
      </contour>
    </TTGlyph>
    <TTGlyph name="uni0E87" xMin="100" yMin="-422" xMax="662" yMax="1140">
      <contour>
        <pt x="231" y="972" on="0"/>
        <pt x="231" y="902" on="1"/>
        <pt x="231" y="832" on="0"/>
        <pt x="300" y="832" on="1"/>
        <pt x="369" y="832" on="0"/>
        <pt x="369" y="902" on="1"/>
        <pt x="369" y="972" on="0"/>
        <pt x="300" y="972" on="1"/>
      </contour>
      <contour>
        <pt x="183" y="-420" on="0"/>
        <pt x="100" y="-411" on="0"/>
        <pt x="100" y="-343" on="1"/>
        <pt x="100" y="-282" on="0"/>
        <pt x="135" y="-282" on="1"/>
        <pt x="142" y="-282" on="1"/>
        <pt x="184" y="-289" on="0"/>
        <pt x="215" y="-290" on="1"/>
        <pt x="308" y="-286" on="0"/>
        <pt x="411" y="-259" on="0"/>
        <pt x="497" y="-182" on="0"/>
        <pt x="527" y="-84" on="0"/>
        <pt x="527" y="20" on="1"/>
        <pt x="527" y="834" on="1"/>
        <pt x="527" y="983" on="0"/>
        <pt x="420" y="996" on="1"/>
        <pt x="462" y="955" on="0"/>
        <pt x="462" y="902" on="1"/>
        <pt x="462" y="729" on="0"/>
        <pt x="321" y="729" on="1"/>
        <pt x="305" y="727" on="0"/>
        <pt x="290" y="727" on="1"/>
        <pt x="139" y="727" on="0"/>
        <pt x="119" y="912" on="1"/>
        <pt x="145" y="1140" on="0"/>
        <pt x="370" y="1140" on="1"/>
        <pt x="662" y="1140" on="0"/>
        <pt x="662" y="828" on="1"/>
        <pt x="662" y="-148" on="1"/>
        <pt x="662" y="-229" on="0"/>
        <pt x="521" y="-371" on="0"/>
        <pt x="352" y="-418" on="0"/>
        <pt x="208" y="-422" on="1"/>
      </contour>
    </TTGlyph>
    <TTGlyph name="uni0E87.am" xMin="100" yMin="-422" xMax="662" yMax="1672">
      <contour>
        <pt x="231" y="972" on="0"/>
        <pt x="231" y="902" on="1"/>
        <pt x="231" y="832" on="0"/>
        <pt x="300" y="832" on="1"/>
        <pt x="369" y="832" on="0"/>
        <pt x="369" y="902" on="1"/>
        <pt x="369" y="972" on="0"/>
        <pt x="300" y="972" on="1"/>
      </contour>
      <contour>
        <pt x="183" y="-420" on="0"/>
        <pt x="100" y="-411" on="0"/>
        <pt x="100" y="-343" on="1"/>
        <pt x="100" y="-282" on="0"/>
        <pt x="135" y="-282" on="1"/>
        <pt x="142" y="-282" on="1"/>
        <pt x="184" y="-289" on="0"/>
        <pt x="215" y="-290" on="1"/>
        <pt x="308" y="-286" on="0"/>
        <pt x="411" y="-259" on="0"/>
        <pt x="497" y="-182" on="0"/>
        <pt x="527" y="-84" on="0"/>
        <pt x="527" y="20" on="1"/>
        <pt x="527" y="834" on="1"/>
        <pt x="527" y="983" on="0"/>
        <pt x="420" y="996" on="1"/>
        <pt x="462" y="955" on="0"/>
        <pt x="462" y="902" on="1"/>
        <pt x="462" y="729" on="0"/>
        <pt x="321" y="729" on="1"/>
        <pt x="305" y="727" on="0"/>
        <pt x="290" y="727" on="1"/>
        <pt x="139" y="727" on="0"/>
        <pt x="119" y="912" on="1"/>
        <pt x="145" y="1140" on="0"/>
        <pt x="370" y="1140" on="1"/>
        <pt x="662" y="1140" on="0"/>
        <pt x="662" y="828" on="1"/>
        <pt x="662" y="-148" on="1"/>
        <pt x="662" y="-229" on="0"/>
        <pt x="521" y="-371" on="0"/>
        <pt x="352" y="-418" on="0"/>
        <pt x="208" y="-422" on="1"/>
      </contour>
      <contour>
        <pt x="399" y="1672" on="1"/>
        <pt x="448" y="1672" on="0"/>
        <pt x="542" y="1623" on="0"/>
        <pt x="594" y="1531" on="0"/>
        <pt x="594" y="1481" on="1"/>
        <pt x="594" y="1432" on="0"/>
        <pt x="543" y="1341" on="0"/>
        <pt x="450" y="1291" on="0"/>
        <pt x="399" y="1291" on="1"/>
        <pt x="348" y="1291" on="0"/>
        <pt x="255" y="1341" on="0"/>
        <pt x="203" y="1432" on="0"/>
        <pt x="203" y="1481" on="1"/>
        <pt x="203" y="1531" on="0"/>
        <pt x="256" y="1623" on="0"/>
        <pt x="349" y="1672" on="0"/>
      </contour>
      <contour>
        <pt x="379" y="1564" on="0"/>
        <pt x="340" y="1543" on="0"/>
        <pt x="317" y="1505" on="0"/>
        <pt x="317" y="1484" on="1"/>
        <pt x="317" y="1463" on="0"/>
        <pt x="339" y="1425" on="0"/>
        <pt x="378" y="1404" on="0"/>
        <pt x="399" y="1404" on="1"/>
        <pt x="421" y="1404" on="0"/>
        <pt x="460" y="1425" on="0"/>
        <pt x="481" y="1463" on="0"/>
        <pt x="481" y="1484" on="1"/>
        <pt x="481" y="1505" on="0"/>
        <pt x="459" y="1543" on="0"/>
        <pt x="420" y="1564" on="0"/>
        <pt x="399" y="1564" on="1"/>
      </contour>
    </TTGlyph>
    <TTGlyph name="uni0E88" xMin="100" yMin="0" xMax="1110" yMax="1140">
      <contour>
        <pt x="619" y="581" on="1"/>
        <pt x="619" y="576" on="1"/>
        <pt x="619" y="511" on="0"/>
        <pt x="693" y="511" on="1"/>
        <pt x="695" y="511" on="1"/>
        <pt x="773" y="512" on="0"/>
        <pt x="773" y="582" on="1"/>
        <pt x="773" y="651" on="0"/>
        <pt x="698" y="651" on="1"/>
        <pt x="622" y="651" on="0"/>
      </contour>
      <contour>
        <pt x="615" y="1010" on="1"/>
        <pt x="255" y="1010" on="0"/>
        <pt x="255" y="847" on="1"/>
        <pt x="255" y="803" on="0"/>
        <pt x="178" y="803" on="1"/>
        <pt x="100" y="803" on="0"/>
        <pt x="100" y="847" on="1"/>
        <pt x="100" y="1140" on="0"/>
        <pt x="619" y="1140" on="1"/>
        <pt x="1110" y="1140" on="0"/>
        <pt x="1110" y="837" on="1"/>
        <pt x="1110" y="820" on="0"/>
        <pt x="1109" y="802" on="1"/>
        <pt x="1109" y="205" on="1"/>
        <pt x="1109" y="2" on="0"/>
        <pt x="888" y="0" on="1"/>
        <pt x="736" y="5" on="0"/>
        <pt x="692" y="107" on="1"/>
        <pt x="671" y="154" on="0"/>
        <pt x="671" y="199" on="1"/>
        <pt x="671" y="253" on="0"/>
        <pt x="700" y="304" on="1"/>
        <pt x="752" y="399" on="0"/>
        <pt x="752" y="404" on="1"/>
        <pt x="730" y="384" on="0"/>
        <pt x="664" y="384" on="1"/>
        <pt x="658" y="384" on="1"/>
        <pt x="488" y="410" on="0"/>
        <pt x="483" y="578" on="1"/>
        <pt x="483" y="588" on="1"/>
        <pt x="483" y="747" on="0"/>
        <pt x="671" y="779" on="1"/>
        <pt x="674" y="779" on="1"/>
        <pt x="873" y="779" on="0"/>
        <pt x="902" y="632" on="1"/>
        <pt x="911" y="582" on="0"/>
        <pt x="911" y="538" on="1"/>
        <pt x="911" y="451" on="0"/>
        <pt x="874" y="385" on="1"/>
        <pt x="818" y="286" on="0"/>
        <pt x="814" y="215" on="1"/>
        <pt x="813" y="211" on="0"/>
        <pt x="813" y="207" on="1"/>
        <pt x="813" y="142" on="0"/>
        <pt x="888" y="129" on="1"/>
        <pt x="898" y="129" on="1"/>
        <pt x="966" y="129" on="0"/>
        <pt x="974" y="209" on="1"/>
        <pt x="974" y="802" on="1"/>
        <pt x="974" y="1010" on="0"/>
      </contour>
    </TTGlyph>
    <TTGlyph name="uni0E88.am" xMin="100" yMin="0" xMax="1110" yMax="1672">
      <contour>
        <pt x="619" y="581" on="1"/>
        <pt x="619" y="576" on="1"/>
        <pt x="619" y="511" on="0"/>
        <pt x="693" y="511" on="1"/>
        <pt x="695" y="511" on="1"/>
        <pt x="773" y="512" on="0"/>
        <pt x="773" y="582" on="1"/>
        <pt x="773" y="651" on="0"/>
        <pt x="698" y="651" on="1"/>
        <pt x="622" y="651" on="0"/>
      </contour>
      <contour>
        <pt x="615" y="1010" on="1"/>
        <pt x="255" y="1010" on="0"/>
        <pt x="255" y="847" on="1"/>
        <pt x="255" y="803" on="0"/>
        <pt x="178" y="803" on="1"/>
        <pt x="100" y="803" on="0"/>
        <pt x="100" y="847" on="1"/>
        <pt x="100" y="1140" on="0"/>
        <pt x="619" y="1140" on="1"/>
        <pt x="1110" y="1140" on="0"/>
        <pt x="1110" y="837" on="1"/>
        <pt x="1110" y="820" on="0"/>
        <pt x="1109" y="802" on="1"/>
        <pt x="1109" y="205" on="1"/>
        <pt x="1109" y="2" on="0"/>
        <pt x="888" y="0" on="1"/>
        <pt x="736" y="5" on="0"/>
        <pt x="692" y="107" on="1"/>
        <pt x="671" y="154" on="0"/>
        <pt x="671" y="199" on="1"/>
        <pt x="671" y="253" on="0"/>
        <pt x="700" y="304" on="1"/>
        <pt x="752" y="399" on="0"/>
        <pt x="752" y="404" on="1"/>
        <pt x="730" y="384" on="0"/>
        <pt x="664" y="384" on="1"/>
        <pt x="658" y="384" on="1"/>
        <pt x="488" y="410" on="0"/>
        <pt x="483" y="578" on="1"/>
        <pt x="483" y="588" on="1"/>
        <pt x="483" y="747" on="0"/>
        <pt x="671" y="779" on="1"/>
        <pt x="674" y="779" on="1"/>
        <pt x="873" y="779" on="0"/>
        <pt x="902" y="632" on="1"/>
        <pt x="911" y="582" on="0"/>
        <pt x="911" y="538" on="1"/>
        <pt x="911" y="451" on="0"/>
        <pt x="874" y="385" on="1"/>
        <pt x="818" y="286" on="0"/>
        <pt x="814" y="215" on="1"/>
        <pt x="813" y="211" on="0"/>
        <pt x="813" y="207" on="1"/>
        <pt x="813" y="142" on="0"/>
        <pt x="888" y="129" on="1"/>
        <pt x="898" y="129" on="1"/>
        <pt x="966" y="129" on="0"/>
        <pt x="974" y="209" on="1"/>
        <pt x="974" y="802" on="1"/>
        <pt x="974" y="1010" on="0"/>
      </contour>
      <contour>
        <pt x="719" y="1672" on="1"/>
        <pt x="768" y="1672" on="0"/>
        <pt x="862" y="1623" on="0"/>
        <pt x="914" y="1531" on="0"/>
        <pt x="914" y="1481" on="1"/>
        <pt x="914" y="1432" on="0"/>
        <pt x="863" y="1341" on="0"/>
        <pt x="770" y="1291" on="0"/>
        <pt x="719" y="1291" on="1"/>
        <pt x="668" y="1291" on="0"/>
        <pt x="575" y="1341" on="0"/>
        <pt x="523" y="1432" on="0"/>
        <pt x="523" y="1481" on="1"/>
        <pt x="523" y="1531" on="0"/>
        <pt x="576" y="1623" on="0"/>
        <pt x="669" y="1672" on="0"/>
      </contour>
      <contour>
        <pt x="699" y="1564" on="0"/>
        <pt x="660" y="1543" on="0"/>
        <pt x="637" y="1505" on="0"/>
        <pt x="637" y="1484" on="1"/>
        <pt x="637" y="1463" on="0"/>
        <pt x="659" y="1425" on="0"/>
        <pt x="698" y="1404" on="0"/>
        <pt x="719" y="1404" on="1"/>
        <pt x="741" y="1404" on="0"/>
        <pt x="780" y="1425" on="0"/>
        <pt x="801" y="1463" on="0"/>
        <pt x="801" y="1484" on="1"/>
        <pt x="801" y="1505" on="0"/>
        <pt x="779" y="1543" on="0"/>
        <pt x="740" y="1564" on="0"/>
        <pt x="719" y="1564" on="1"/>
      </contour>
    </TTGlyph>
    <TTGlyph name="uni0E8A" xMin="100" yMin="-390" xMax="1110" yMax="1140">
      <contour>
        <pt x="387" y="833" on="0"/>
        <pt x="322" y="833" on="1"/>
        <pt x="256" y="833" on="0"/>
        <pt x="256" y="764" on="1"/>
        <pt x="256" y="695" on="0"/>
        <pt x="322" y="695" on="1"/>
        <pt x="387" y="695" on="0"/>
        <pt x="387" y="764" on="1"/>
      </contour>
      <contour>
        <pt x="945" y="96" on="1"/>
        <pt x="945" y="170" on="0"/>
        <pt x="904" y="231" on="0"/>
        <pt x="853" y="231" on="1"/>
        <pt x="758" y="231" on="0"/>
        <pt x="660" y="144" on="1"/>
        <pt x="496" y="0" on="0"/>
        <pt x="339" y="0" on="1"/>
        <pt x="205" y="0" on="0"/>
        <pt x="100" y="125" on="0"/>
        <pt x="100" y="216" on="1"/>
        <pt x="100" y="383" on="0"/>
        <pt x="416" y="497" on="1"/>
        <pt x="624" y="574" on="1"/>
        <pt x="945" y="685" on="0"/>
        <pt x="945" y="845" on="1"/>
        <pt x="940" y="1010" on="0"/>
        <pt x="559" y="1010" on="1"/>
        <pt x="274" y="1010" on="0"/>
        <pt x="235" y="884" on="1"/>
        <pt x="273" y="926" on="0"/>
        <pt x="322" y="926" on="1"/>
        <pt x="484" y="926" on="0"/>
        <pt x="484" y="785" on="1"/>
        <pt x="486" y="769" on="0"/>
        <pt x="486" y="755" on="1"/>
        <pt x="486" y="605" on="0"/>
        <pt x="313" y="603" on="1"/>
        <pt x="100" y="609" on="0"/>
        <pt x="100" y="834" on="1"/>
        <pt x="100" y="1140" on="0"/>
        <pt x="556" y="1140" on="1"/>
        <pt x="562" y="1140" on="1"/>
        <pt x="1074" y="1140" on="0"/>
        <pt x="1074" y="842" on="1"/>
        <pt x="1074" y="589" on="0"/>
        <pt x="666" y="449" on="1"/>
        <pt x="446" y="367" on="1"/>
        <pt x="227" y="291" on="0"/>
        <pt x="227" y="216" on="1"/>
        <pt x="227" y="172" on="0"/>
        <pt x="269" y="133" on="0"/>
        <pt x="337" y="133" on="1"/>
        <pt x="444" y="133" on="0"/>
        <pt x="590" y="249" on="1"/>
        <pt x="737" y="364" on="0"/>
        <pt x="852" y="364" on="1"/>
        <pt x="957" y="364" on="0"/>
        <pt x="1074" y="227" on="0"/>
        <pt x="1074" y="96" on="1"/>
        <pt x="1074" y="-217" on="1"/>
        <pt x="1076" y="-266" on="0"/>
        <pt x="1095" y="-357" on="0"/>
        <pt x="1104" y="-368" on="1"/>
        <pt x="1110" y="-375" on="0"/>
        <pt x="1110" y="-380" on="1"/>
        <pt x="1110" y="-382" on="0"/>
        <pt x="1109" y="-384" on="1"/>
        <pt x="1105" y="-390" on="0"/>
        <pt x="1053" y="-390" on="1"/>
        <pt x="981" y="-390" on="0"/>
        <pt x="974" y="-369" on="1"/>
        <pt x="960" y="-338" on="0"/>
        <pt x="947" y="-253" on="0"/>
        <pt x="946" y="-204" on="1"/>
        <pt x="945" y="-186" on="0"/>
        <pt x="945" y="-59" on="1"/>
      </contour>
    </TTGlyph>
    <TTGlyph name="uni0E8A.am" xMin="100" yMin="-390" xMax="1110" yMax="1672">
      <contour>
        <pt x="387" y="833" on="0"/>
        <pt x="322" y="833" on="1"/>
        <pt x="256" y="833" on="0"/>
        <pt x="256" y="764" on="1"/>
        <pt x="256" y="695" on="0"/>
        <pt x="322" y="695" on="1"/>
        <pt x="387" y="695" on="0"/>
        <pt x="387" y="764" on="1"/>
      </contour>
      <contour>
        <pt x="945" y="96" on="1"/>
        <pt x="945" y="170" on="0"/>
        <pt x="904" y="231" on="0"/>
        <pt x="853" y="231" on="1"/>
        <pt x="758" y="231" on="0"/>
        <pt x="660" y="144" on="1"/>
        <pt x="496" y="0" on="0"/>
        <pt x="339" y="0" on="1"/>
        <pt x="205" y="0" on="0"/>
        <pt x="100" y="125" on="0"/>
        <pt x="100" y="216" on="1"/>
        <pt x="100" y="383" on="0"/>
        <pt x="416" y="497" on="1"/>
        <pt x="624" y="574" on="1"/>
        <pt x="945" y="685" on="0"/>
        <pt x="945" y="845" on="1"/>
        <pt x="940" y="1010" on="0"/>
        <pt x="559" y="1010" on="1"/>
        <pt x="274" y="1010" on="0"/>
        <pt x="235" y="884" on="1"/>
        <pt x="273" y="926" on="0"/>
        <pt x="322" y="926" on="1"/>
        <pt x="484" y="926" on="0"/>
        <pt x="484" y="785" on="1"/>
        <pt x="486" y="769" on="0"/>
        <pt x="486" y="755" on="1"/>
        <pt x="486" y="605" on="0"/>
        <pt x="313" y="603" on="1"/>
        <pt x="100" y="609" on="0"/>
        <pt x="100" y="834" on="1"/>
        <pt x="100" y="1140" on="0"/>
        <pt x="556" y="1140" on="1"/>
        <pt x="562" y="1140" on="1"/>
        <pt x="1074" y="1140" on="0"/>
        <pt x="1074" y="842" on="1"/>
        <pt x="1074" y="589" on="0"/>
        <pt x="666" y="449" on="1"/>
        <pt x="446" y="367" on="1"/>
        <pt x="227" y="291" on="0"/>
        <pt x="227" y="216" on="1"/>
        <pt x="227" y="172" on="0"/>
        <pt x="269" y="133" on="0"/>
        <pt x="337" y="133" on="1"/>
        <pt x="444" y="133" on="0"/>
        <pt x="590" y="249" on="1"/>
        <pt x="737" y="364" on="0"/>
        <pt x="852" y="364" on="1"/>
        <pt x="957" y="364" on="0"/>
        <pt x="1074" y="227" on="0"/>
        <pt x="1074" y="96" on="1"/>
        <pt x="1074" y="-217" on="1"/>
        <pt x="1076" y="-266" on="0"/>
        <pt x="1095" y="-357" on="0"/>
        <pt x="1104" y="-368" on="1"/>
        <pt x="1110" y="-375" on="0"/>
        <pt x="1110" y="-380" on="1"/>
        <pt x="1110" y="-382" on="0"/>
        <pt x="1109" y="-384" on="1"/>
        <pt x="1105" y="-390" on="0"/>
        <pt x="1053" y="-390" on="1"/>
        <pt x="981" y="-390" on="0"/>
        <pt x="974" y="-369" on="1"/>
        <pt x="960" y="-338" on="0"/>
        <pt x="947" y="-253" on="0"/>
        <pt x="946" y="-204" on="1"/>
        <pt x="945" y="-186" on="0"/>
        <pt x="945" y="-59" on="1"/>
      </contour>
      <contour>
        <pt x="619" y="1672" on="1"/>
        <pt x="668" y="1672" on="0"/>
        <pt x="762" y="1623" on="0"/>
        <pt x="814" y="1531" on="0"/>
        <pt x="814" y="1481" on="1"/>
        <pt x="814" y="1432" on="0"/>
        <pt x="763" y="1341" on="0"/>
        <pt x="670" y="1291" on="0"/>
        <pt x="619" y="1291" on="1"/>
        <pt x="568" y="1291" on="0"/>
        <pt x="475" y="1341" on="0"/>
        <pt x="423" y="1432" on="0"/>
        <pt x="423" y="1481" on="1"/>
        <pt x="423" y="1531" on="0"/>
        <pt x="476" y="1623" on="0"/>
        <pt x="569" y="1672" on="0"/>
      </contour>
      <contour>
        <pt x="599" y="1564" on="0"/>
        <pt x="560" y="1543" on="0"/>
        <pt x="537" y="1505" on="0"/>
        <pt x="537" y="1484" on="1"/>
        <pt x="537" y="1463" on="0"/>
        <pt x="559" y="1425" on="0"/>
        <pt x="598" y="1404" on="0"/>
        <pt x="619" y="1404" on="1"/>
        <pt x="641" y="1404" on="0"/>
        <pt x="680" y="1425" on="0"/>
        <pt x="701" y="1463" on="0"/>
        <pt x="701" y="1484" on="1"/>
        <pt x="701" y="1505" on="0"/>
        <pt x="679" y="1543" on="0"/>
        <pt x="640" y="1564" on="0"/>
        <pt x="619" y="1564" on="1"/>
      </contour>
    </TTGlyph>
    <TTGlyph name="uni0E8D" xMin="100" yMin="0" xMax="1110" yMax="1140">
      <contour>
        <pt x="413" y="982" on="1"/>
        <pt x="413" y="1050" on="0"/>
        <pt x="342" y="1050" on="1"/>
        <pt x="271" y="1050" on="0"/>
        <pt x="271" y="982" on="1"/>
        <pt x="271" y="915" on="0"/>
        <pt x="342" y="915" on="1"/>
        <pt x="413" y="915" on="0"/>
      </contour>
      <contour>
        <pt x="237" y="124" on="0"/>
        <pt x="607" y="124" on="1"/>
        <pt x="975" y="124" on="0"/>
        <pt x="975" y="343" on="1"/>
        <pt x="975" y="1109" on="1"/>
        <pt x="975" y="1140" on="0"/>
        <pt x="1043" y="1140" on="1"/>
        <pt x="1110" y="1140" on="0"/>
        <pt x="1110" y="1110" on="1"/>
        <pt x="1109" y="343" on="1"/>
        <pt x="1108" y="0" on="0"/>
        <pt x="604" y="0" on="1"/>
        <pt x="100" y="0" on="0"/>
        <pt x="100" y="356" on="1"/>
        <pt x="100" y="515" on="0"/>
        <pt x="266" y="577" on="1"/>
        <pt x="100" y="640" on="0"/>
        <pt x="100" y="799" on="1"/>
        <pt x="100" y="845" on="1"/>
        <pt x="100" y="1134" on="0"/>
        <pt x="342" y="1140" on="1"/>
        <pt x="520" y="1138" on="0"/>
        <pt x="520" y="993" on="1"/>
        <pt x="520" y="978" on="0"/>
        <pt x="518" y="962" on="1"/>
        <pt x="518" y="823" on="0"/>
        <pt x="362" y="823" on="1"/>
        <pt x="288" y="823" on="0"/>
        <pt x="246" y="865" on="1"/>
        <pt x="237" y="878" on="1"/>
        <pt x="237" y="799" on="1"/>
        <pt x="237" y="704" on="0"/>
        <pt x="362" y="636" on="0"/>
        <pt x="434" y="636" on="1"/>
        <pt x="505" y="636" on="0"/>
        <pt x="505" y="578" on="1"/>
        <pt x="505" y="519" on="0"/>
        <pt x="434" y="519" on="1"/>
        <pt x="362" y="519" on="0"/>
        <pt x="237" y="451" on="0"/>
        <pt x="237" y="356" on="1"/>
      </contour>
    </TTGlyph>
    <TTGlyph name="uni0E8D.am" xMin="100" yMin="0" xMax="1110" yMax="1672">
      <contour>
        <pt x="413" y="982" on="1"/>
        <pt x="413" y="1050" on="0"/>
        <pt x="342" y="1050" on="1"/>
        <pt x="271" y="1050" on="0"/>
        <pt x="271" y="982" on="1"/>
        <pt x="271" y="915" on="0"/>
        <pt x="342" y="915" on="1"/>
        <pt x="413" y="915" on="0"/>
      </contour>
      <contour>
        <pt x="237" y="124" on="0"/>
        <pt x="607" y="124" on="1"/>
        <pt x="975" y="124" on="0"/>
        <pt x="975" y="343" on="1"/>
        <pt x="975" y="1109" on="1"/>
        <pt x="975" y="1140" on="0"/>
        <pt x="1043" y="1140" on="1"/>
        <pt x="1110" y="1140" on="0"/>
        <pt x="1110" y="1110" on="1"/>
        <pt x="1109" y="343" on="1"/>
        <pt x="1108" y="0" on="0"/>
        <pt x="604" y="0" on="1"/>
        <pt x="100" y="0" on="0"/>
        <pt x="100" y="356" on="1"/>
        <pt x="100" y="515" on="0"/>
        <pt x="266" y="577" on="1"/>
        <pt x="100" y="640" on="0"/>
        <pt x="100" y="799" on="1"/>
        <pt x="100" y="845" on="1"/>
        <pt x="100" y="1134" on="0"/>
        <pt x="342" y="1140" on="1"/>
        <pt x="520" y="1138" on="0"/>
        <pt x="520" y="993" on="1"/>
        <pt x="520" y="978" on="0"/>
        <pt x="518" y="962" on="1"/>
        <pt x="518" y="823" on="0"/>
        <pt x="362" y="823" on="1"/>
        <pt x="288" y="823" on="0"/>
        <pt x="246" y="865" on="1"/>
        <pt x="237" y="878" on="1"/>
        <pt x="237" y="799" on="1"/>
        <pt x="237" y="704" on="0"/>
        <pt x="362" y="636" on="0"/>
        <pt x="434" y="636" on="1"/>
        <pt x="505" y="636" on="0"/>
        <pt x="505" y="578" on="1"/>
        <pt x="505" y="519" on="0"/>
        <pt x="434" y="519" on="1"/>
        <pt x="362" y="519" on="0"/>
        <pt x="237" y="451" on="0"/>
        <pt x="237" y="356" on="1"/>
      </contour>
      <contour>
        <pt x="689" y="1672" on="1"/>
        <pt x="738" y="1672" on="0"/>
        <pt x="832" y="1623" on="0"/>
        <pt x="884" y="1531" on="0"/>
        <pt x="884" y="1481" on="1"/>
        <pt x="884" y="1432" on="0"/>
        <pt x="833" y="1341" on="0"/>
        <pt x="740" y="1291" on="0"/>
        <pt x="689" y="1291" on="1"/>
        <pt x="638" y="1291" on="0"/>
        <pt x="545" y="1341" on="0"/>
        <pt x="493" y="1432" on="0"/>
        <pt x="493" y="1481" on="1"/>
        <pt x="493" y="1531" on="0"/>
        <pt x="546" y="1623" on="0"/>
        <pt x="639" y="1672" on="0"/>
      </contour>
      <contour>
        <pt x="669" y="1564" on="0"/>
        <pt x="630" y="1543" on="0"/>
        <pt x="607" y="1505" on="0"/>
        <pt x="607" y="1484" on="1"/>
        <pt x="607" y="1463" on="0"/>
        <pt x="629" y="1425" on="0"/>
        <pt x="668" y="1404" on="0"/>
        <pt x="689" y="1404" on="1"/>
        <pt x="711" y="1404" on="0"/>
        <pt x="750" y="1425" on="0"/>
        <pt x="771" y="1463" on="0"/>
        <pt x="771" y="1484" on="1"/>
        <pt x="771" y="1505" on="0"/>
        <pt x="749" y="1543" on="0"/>
        <pt x="710" y="1564" on="0"/>
        <pt x="689" y="1564" on="1"/>
      </contour>
    </TTGlyph>
    <TTGlyph name="uni0E94" xMin="100" yMin="0" xMax="1110" yMax="1140">
      <contour>
        <pt x="413" y="225" on="0"/>
        <pt x="342" y="225" on="1"/>
        <pt x="271" y="225" on="0"/>
        <pt x="271" y="158" on="1"/>
        <pt x="271" y="90" on="0"/>
        <pt x="342" y="90" on="1"/>
        <pt x="413" y="90" on="0"/>
        <pt x="413" y="158" on="1"/>
      </contour>
      <contour>
        <pt x="100" y="735" on="1"/>
        <pt x="100" y="1140" on="0"/>
        <pt x="607" y="1140" on="1"/>
        <pt x="1110" y="1140" on="0"/>
        <pt x="1110" y="735" on="1"/>
        <pt x="1110" y="33" on="1"/>
        <pt x="1110" y="0" on="0"/>
        <pt x="1043" y="0" on="1"/>
        <pt x="975" y="0" on="0"/>
        <pt x="975" y="33" on="1"/>
        <pt x="975" y="735" on="1"/>
        <pt x="975" y="1016" on="0"/>
        <pt x="607" y="1016" on="1"/>
        <pt x="237" y="1016" on="0"/>
        <pt x="237" y="735" on="1"/>
        <pt x="237" y="262" on="1"/>
        <pt x="246" y="275" on="1"/>
        <pt x="288" y="317" on="0"/>
        <pt x="362" y="317" on="1"/>
        <pt x="518" y="317" on="0"/>
        <pt x="518" y="178" on="1"/>
        <pt x="520" y="162" on="0"/>
        <pt x="520" y="147" on="1"/>
        <pt x="520" y="2" on="0"/>
        <pt x="342" y="0" on="1"/>
        <pt x="100" y="6" on="0"/>
        <pt x="100" y="295" on="1"/>
      </contour>
    </TTGlyph>
    <TTGlyph name="uni0E94.am" xMin="100" yMin="0" xMax="1110" yMax="1672">
      <contour>
        <pt x="413" y="225" on="0"/>
        <pt x="342" y="225" on="1"/>
        <pt x="271" y="225" on="0"/>
        <pt x="271" y="158" on="1"/>
        <pt x="271" y="90" on="0"/>
        <pt x="342" y="90" on="1"/>
        <pt x="413" y="90" on="0"/>
        <pt x="413" y="158" on="1"/>
      </contour>
      <contour>
        <pt x="100" y="735" on="1"/>
        <pt x="100" y="1140" on="0"/>
        <pt x="607" y="1140" on="1"/>
        <pt x="1110" y="1140" on="0"/>
        <pt x="1110" y="735" on="1"/>
        <pt x="1110" y="33" on="1"/>
        <pt x="1110" y="0" on="0"/>
        <pt x="1043" y="0" on="1"/>
        <pt x="975" y="0" on="0"/>
        <pt x="975" y="33" on="1"/>
        <pt x="975" y="735" on="1"/>
        <pt x="975" y="1016" on="0"/>
        <pt x="607" y="1016" on="1"/>
        <pt x="237" y="1016" on="0"/>
        <pt x="237" y="735" on="1"/>
        <pt x="237" y="262" on="1"/>
        <pt x="246" y="275" on="1"/>
        <pt x="288" y="317" on="0"/>
        <pt x="362" y="317" on="1"/>
        <pt x="518" y="317" on="0"/>
        <pt x="518" y="178" on="1"/>
        <pt x="520" y="162" on="0"/>
        <pt x="520" y="147" on="1"/>
        <pt x="520" y="2" on="0"/>
        <pt x="342" y="0" on="1"/>
        <pt x="100" y="6" on="0"/>
        <pt x="100" y="295" on="1"/>
      </contour>
      <contour>
        <pt x="629" y="1672" on="1"/>
        <pt x="678" y="1672" on="0"/>
        <pt x="772" y="1623" on="0"/>
        <pt x="824" y="1531" on="0"/>
        <pt x="824" y="1481" on="1"/>
        <pt x="824" y="1432" on="0"/>
        <pt x="773" y="1341" on="0"/>
        <pt x="680" y="1291" on="0"/>
        <pt x="629" y="1291" on="1"/>
        <pt x="578" y="1291" on="0"/>
        <pt x="485" y="1341" on="0"/>
        <pt x="433" y="1432" on="0"/>
        <pt x="433" y="1481" on="1"/>
        <pt x="433" y="1531" on="0"/>
        <pt x="486" y="1623" on="0"/>
        <pt x="579" y="1672" on="0"/>
      </contour>
      <contour>
        <pt x="609" y="1564" on="0"/>
        <pt x="570" y="1543" on="0"/>
        <pt x="547" y="1505" on="0"/>
        <pt x="547" y="1484" on="1"/>
        <pt x="547" y="1463" on="0"/>
        <pt x="569" y="1425" on="0"/>
        <pt x="608" y="1404" on="0"/>
        <pt x="629" y="1404" on="1"/>
        <pt x="651" y="1404" on="0"/>
        <pt x="690" y="1425" on="0"/>
        <pt x="711" y="1463" on="0"/>
        <pt x="711" y="1484" on="1"/>
        <pt x="711" y="1505" on="0"/>
        <pt x="689" y="1543" on="0"/>
        <pt x="650" y="1564" on="0"/>
        <pt x="629" y="1564" on="1"/>
      </contour>
    </TTGlyph>
    <TTGlyph name="uni0E95" xMin="100" yMin="0" xMax="1108" yMax="1140">
      <contour>
        <pt x="339" y="225" on="1"/>
        <pt x="268" y="225" on="0"/>
        <pt x="268" y="158" on="1"/>
        <pt x="268" y="90" on="0"/>
        <pt x="339" y="90" on="1"/>
        <pt x="410" y="90" on="0"/>
        <pt x="410" y="158" on="1"/>
        <pt x="410" y="225" on="0"/>
      </contour>
      <contour>
        <pt x="1108" y="735" on="1"/>
        <pt x="1108" y="33" on="1"/>
        <pt x="1108" y="0" on="0"/>
        <pt x="1041" y="0" on="1"/>
        <pt x="973" y="0" on="0"/>
        <pt x="973" y="33" on="1"/>
        <pt x="973" y="735" on="1"/>
        <pt x="973" y="1016" on="0"/>
        <pt x="859" y="1016" on="1"/>
        <pt x="767" y="1016" on="0"/>
        <pt x="690" y="912" on="1"/>
        <pt x="644" y="849" on="0"/>
        <pt x="603" y="849" on="1"/>
        <pt x="562" y="849" on="0"/>
        <pt x="516" y="912" on="1"/>
        <pt x="440" y="1016" on="0"/>
        <pt x="347" y="1016" on="1"/>
        <pt x="235" y="1016" on="0"/>
        <pt x="235" y="735" on="1"/>
        <pt x="235" y="262" on="1"/>
        <pt x="244" y="275" on="1"/>
        <pt x="286" y="317" on="0"/>
        <pt x="360" y="317" on="1"/>
        <pt x="515" y="317" on="0"/>
        <pt x="515" y="178" on="1"/>
        <pt x="517" y="162" on="0"/>
        <pt x="517" y="147" on="1"/>
        <pt x="517" y="2" on="0"/>
        <pt x="339" y="0" on="1"/>
        <pt x="100" y="6" on="0"/>
        <pt x="100" y="295" on="1"/>
        <pt x="100" y="735" on="1"/>
        <pt x="100" y="1140" on="0"/>
        <pt x="356" y="1140" on="1"/>
        <pt x="481" y="1140" on="0"/>
        <pt x="603" y="983" on="1"/>
        <pt x="725" y="1140" on="0"/>
        <pt x="850" y="1140" on="1"/>
        <pt x="1108" y="1140" on="0"/>
      </contour>
    </TTGlyph>
    <TTGlyph name="uni0E95.am" xMin="100" yMin="0" xMax="1108" yMax="1672">
      <contour>
        <pt x="339" y="225" on="1"/>
        <pt x="268" y="225" on="0"/>
        <pt x="268" y="158" on="1"/>
        <pt x="268" y="90" on="0"/>
        <pt x="339" y="90" on="1"/>
        <pt x="410" y="90" on="0"/>
        <pt x="410" y="158" on="1"/>
        <pt x="410" y="225" on="0"/>
      </contour>
      <contour>
        <pt x="1108" y="735" on="1"/>
        <pt x="1108" y="33" on="1"/>
        <pt x="1108" y="0" on="0"/>
        <pt x="1041" y="0" on="1"/>
        <pt x="973" y="0" on="0"/>
        <pt x="973" y="33" on="1"/>
        <pt x="973" y="735" on="1"/>
        <pt x="973" y="1016" on="0"/>
        <pt x="859" y="1016" on="1"/>
        <pt x="767" y="1016" on="0"/>
        <pt x="690" y="912" on="1"/>
        <pt x="644" y="849" on="0"/>
        <pt x="603" y="849" on="1"/>
        <pt x="562" y="849" on="0"/>
        <pt x="516" y="912" on="1"/>
        <pt x="440" y="1016" on="0"/>
        <pt x="347" y="1016" on="1"/>
        <pt x="235" y="1016" on="0"/>
        <pt x="235" y="735" on="1"/>
        <pt x="235" y="262" on="1"/>
        <pt x="244" y="275" on="1"/>
        <pt x="286" y="317" on="0"/>
        <pt x="360" y="317" on="1"/>
        <pt x="515" y="317" on="0"/>
        <pt x="515" y="178" on="1"/>
        <pt x="517" y="162" on="0"/>
        <pt x="517" y="147" on="1"/>
        <pt x="517" y="2" on="0"/>
        <pt x="339" y="0" on="1"/>
        <pt x="100" y="6" on="0"/>
        <pt x="100" y="295" on="1"/>
        <pt x="100" y="735" on="1"/>
        <pt x="100" y="1140" on="0"/>
        <pt x="356" y="1140" on="1"/>
        <pt x="481" y="1140" on="0"/>
        <pt x="603" y="983" on="1"/>
        <pt x="725" y="1140" on="0"/>
        <pt x="850" y="1140" on="1"/>
        <pt x="1108" y="1140" on="0"/>
      </contour>
      <contour>
        <pt x="629" y="1672" on="1"/>
        <pt x="678" y="1672" on="0"/>
        <pt x="772" y="1623" on="0"/>
        <pt x="824" y="1531" on="0"/>
        <pt x="824" y="1481" on="1"/>
        <pt x="824" y="1432" on="0"/>
        <pt x="773" y="1341" on="0"/>
        <pt x="680" y="1291" on="0"/>
        <pt x="629" y="1291" on="1"/>
        <pt x="578" y="1291" on="0"/>
        <pt x="485" y="1341" on="0"/>
        <pt x="433" y="1432" on="0"/>
        <pt x="433" y="1481" on="1"/>
        <pt x="433" y="1531" on="0"/>
        <pt x="486" y="1623" on="0"/>
        <pt x="579" y="1672" on="0"/>
      </contour>
      <contour>
        <pt x="609" y="1564" on="0"/>
        <pt x="570" y="1543" on="0"/>
        <pt x="547" y="1505" on="0"/>
        <pt x="547" y="1484" on="1"/>
        <pt x="547" y="1463" on="0"/>
        <pt x="569" y="1425" on="0"/>
        <pt x="608" y="1404" on="0"/>
        <pt x="629" y="1404" on="1"/>
        <pt x="651" y="1404" on="0"/>
        <pt x="690" y="1425" on="0"/>
        <pt x="711" y="1463" on="0"/>
        <pt x="711" y="1484" on="1"/>
        <pt x="711" y="1505" on="0"/>
        <pt x="689" y="1543" on="0"/>
        <pt x="650" y="1564" on="0"/>
        <pt x="629" y="1564" on="1"/>
      </contour>
    </TTGlyph>
    <TTGlyph name="uni0E96" xMin="100" yMin="-400" xMax="1295" yMax="1140">
      <contour>
        <pt x="635" y="244" on="0"/>
        <pt x="565" y="244" on="1"/>
        <pt x="494" y="244" on="0"/>
        <pt x="494" y="169" on="1"/>
        <pt x="494" y="94" on="0"/>
        <pt x="565" y="94" on="1"/>
        <pt x="635" y="94" on="0"/>
        <pt x="635" y="169" on="1"/>
      </contour>
      <contour>
        <pt x="272" y="1040" on="1"/>
        <pt x="210" y="1040" on="0"/>
        <pt x="210" y="995" on="1"/>
        <pt x="210" y="949" on="0"/>
        <pt x="279" y="947" on="1"/>
        <pt x="293" y="947" on="1"/>
        <pt x="325" y="947" on="0"/>
        <pt x="354" y="954" on="1"/>
        <pt x="345" y="1040" on="0"/>
      </contour>
      <contour>
        <pt x="1112" y="810" on="1"/>
        <pt x="1102" y="999" on="0"/>
        <pt x="836" y="1006" on="1"/>
        <pt x="717" y="1001" on="0"/>
        <pt x="604" y="948" on="1"/>
        <pt x="534" y="915" on="1"/>
        <pt x="494" y="894" on="1"/>
        <pt x="494" y="337" on="1"/>
        <pt x="519" y="340" on="0"/>
        <pt x="544" y="340" on="1"/>
        <pt x="754" y="340" on="0"/>
        <pt x="754" y="165" on="1"/>
        <pt x="754" y="-10" on="0"/>
        <pt x="544" y="-10" on="1"/>
        <pt x="530" y="-10" on="1"/>
        <pt x="359" y="-10" on="0"/>
        <pt x="359" y="156" on="1"/>
        <pt x="359" y="856" on="1"/>
        <pt x="309" y="840" on="0"/>
        <pt x="283" y="840" on="1"/>
        <pt x="100" y="840" on="0"/>
        <pt x="100" y="987" on="1"/>
        <pt x="100" y="1130" on="0"/>
        <pt x="280" y="1140" on="1"/>
        <pt x="419" y="1130" on="0"/>
        <pt x="477" y="1028" on="1"/>
        <pt x="659" y="1130" on="0"/>
        <pt x="846" y="1140" on="1"/>
        <pt x="1248" y="1123" on="0"/>
        <pt x="1248" y="810" on="1"/>
        <pt x="1248" y="-114" on="1"/>
        <pt x="1248" y="-186" on="0"/>
        <pt x="1257" y="-321" on="0"/>
        <pt x="1287" y="-375" on="1"/>
        <pt x="1295" y="-385" on="0"/>
        <pt x="1295" y="-391" on="1"/>
        <pt x="1291" y="-400" on="0"/>
        <pt x="1248" y="-400" on="1"/>
        <pt x="1177" y="-400" on="0"/>
        <pt x="1154" y="-378" on="0"/>
        <pt x="1127" y="-300" on="0"/>
        <pt x="1112" y="-195" on="0"/>
        <pt x="1112" y="-97" on="1"/>
      </contour>
    </TTGlyph>
    <TTGlyph name="uni0E96.am" xMin="100" yMin="-400" xMax="1295" yMax="1672">
      <contour>
        <pt x="635" y="244" on="0"/>
        <pt x="565" y="244" on="1"/>
        <pt x="494" y="244" on="0"/>
        <pt x="494" y="169" on="1"/>
        <pt x="494" y="94" on="0"/>
        <pt x="565" y="94" on="1"/>
        <pt x="635" y="94" on="0"/>
        <pt x="635" y="169" on="1"/>
      </contour>
      <contour>
        <pt x="272" y="1040" on="1"/>
        <pt x="210" y="1040" on="0"/>
        <pt x="210" y="995" on="1"/>
        <pt x="210" y="949" on="0"/>
        <pt x="279" y="947" on="1"/>
        <pt x="293" y="947" on="1"/>
        <pt x="325" y="947" on="0"/>
        <pt x="354" y="954" on="1"/>
        <pt x="345" y="1040" on="0"/>
      </contour>
      <contour>
        <pt x="1112" y="810" on="1"/>
        <pt x="1102" y="999" on="0"/>
        <pt x="836" y="1006" on="1"/>
        <pt x="717" y="1001" on="0"/>
        <pt x="604" y="948" on="1"/>
        <pt x="534" y="915" on="1"/>
        <pt x="494" y="894" on="1"/>
        <pt x="494" y="337" on="1"/>
        <pt x="519" y="340" on="0"/>
        <pt x="544" y="340" on="1"/>
        <pt x="754" y="340" on="0"/>
        <pt x="754" y="165" on="1"/>
        <pt x="754" y="-10" on="0"/>
        <pt x="544" y="-10" on="1"/>
        <pt x="530" y="-10" on="1"/>
        <pt x="359" y="-10" on="0"/>
        <pt x="359" y="156" on="1"/>
        <pt x="359" y="856" on="1"/>
        <pt x="309" y="840" on="0"/>
        <pt x="283" y="840" on="1"/>
        <pt x="100" y="840" on="0"/>
        <pt x="100" y="987" on="1"/>
        <pt x="100" y="1130" on="0"/>
        <pt x="280" y="1140" on="1"/>
        <pt x="419" y="1130" on="0"/>
        <pt x="477" y="1028" on="1"/>
        <pt x="659" y="1130" on="0"/>
        <pt x="846" y="1140" on="1"/>
        <pt x="1248" y="1123" on="0"/>
        <pt x="1248" y="810" on="1"/>
        <pt x="1248" y="-114" on="1"/>
        <pt x="1248" y="-186" on="0"/>
        <pt x="1257" y="-321" on="0"/>
        <pt x="1287" y="-375" on="1"/>
        <pt x="1295" y="-385" on="0"/>
        <pt x="1295" y="-391" on="1"/>
        <pt x="1291" y="-400" on="0"/>
        <pt x="1248" y="-400" on="1"/>
        <pt x="1177" y="-400" on="0"/>
        <pt x="1154" y="-378" on="0"/>
        <pt x="1127" y="-300" on="0"/>
        <pt x="1112" y="-195" on="0"/>
        <pt x="1112" y="-97" on="1"/>
      </contour>
      <contour>
        <pt x="729" y="1672" on="1"/>
        <pt x="778" y="1672" on="0"/>
        <pt x="872" y="1623" on="0"/>
        <pt x="924" y="1531" on="0"/>
        <pt x="924" y="1481" on="1"/>
        <pt x="924" y="1432" on="0"/>
        <pt x="873" y="1341" on="0"/>
        <pt x="780" y="1291" on="0"/>
        <pt x="729" y="1291" on="1"/>
        <pt x="678" y="1291" on="0"/>
        <pt x="585" y="1341" on="0"/>
        <pt x="533" y="1432" on="0"/>
        <pt x="533" y="1481" on="1"/>
        <pt x="533" y="1531" on="0"/>
        <pt x="586" y="1623" on="0"/>
        <pt x="679" y="1672" on="0"/>
      </contour>
      <contour>
        <pt x="709" y="1564" on="0"/>
        <pt x="670" y="1543" on="0"/>
        <pt x="647" y="1505" on="0"/>
        <pt x="647" y="1484" on="1"/>
        <pt x="647" y="1463" on="0"/>
        <pt x="669" y="1425" on="0"/>
        <pt x="708" y="1404" on="0"/>
        <pt x="729" y="1404" on="1"/>
        <pt x="751" y="1404" on="0"/>
        <pt x="790" y="1425" on="0"/>
        <pt x="811" y="1463" on="0"/>
        <pt x="811" y="1484" on="1"/>
        <pt x="811" y="1505" on="0"/>
        <pt x="789" y="1543" on="0"/>
        <pt x="750" y="1564" on="0"/>
        <pt x="729" y="1564" on="1"/>
      </contour>
    </TTGlyph>
    <TTGlyph name="uni0E97" xMin="100" yMin="0" xMax="1300" yMax="1140">
      <contour>
        <pt x="270" y="895" on="1"/>
        <pt x="334" y="895" on="0"/>
        <pt x="334" y="968" on="1"/>
        <pt x="334" y="1042" on="0"/>
        <pt x="270" y="1042" on="1"/>
        <pt x="206" y="1042" on="0"/>
        <pt x="206" y="968" on="1"/>
        <pt x="206" y="895" on="0"/>
      </contour>
      <contour>
        <pt x="236" y="344" on="1"/>
        <pt x="244" y="131" on="0"/>
        <pt x="441" y="131" on="1"/>
        <pt x="638" y="131" on="0"/>
        <pt x="646" y="353" on="1"/>
        <pt x="646" y="802" on="1"/>
        <pt x="646" y="1140" on="0"/>
        <pt x="954" y="1140" on="1"/>
        <pt x="1300" y="1140" on="0"/>
        <pt x="1300" y="786" on="1"/>
        <pt x="1300" y="34" on="1"/>
        <pt x="1300" y="0" on="0"/>
        <pt x="1233" y="0" on="1"/>
        <pt x="1165" y="0" on="0"/>
        <pt x="1165" y="34" on="1"/>
        <pt x="1161" y="788" on="1"/>
        <pt x="1156" y="1009" on="0"/>
        <pt x="967" y="1009" on="1"/>
        <pt x="782" y="1009" on="0"/>
        <pt x="782" y="786" on="1"/>
        <pt x="782" y="353" on="1"/>
        <pt x="782" y="0" on="0"/>
        <pt x="441" y="0" on="1"/>
        <pt x="100" y="0" on="0"/>
        <pt x="100" y="344" on="1"/>
        <pt x="100" y="542" on="0"/>
        <pt x="216" y="697" on="1"/>
        <pt x="256" y="749" on="0"/>
        <pt x="283" y="796" on="1"/>
        <pt x="100" y="798" on="0"/>
        <pt x="100" y="968" on="1"/>
        <pt x="100" y="1140" on="0"/>
        <pt x="285" y="1140" on="1"/>
        <pt x="472" y="1140" on="0"/>
        <pt x="472" y="968" on="1"/>
        <pt x="472" y="822" on="0"/>
        <pt x="244" y="498" on="0"/>
      </contour>
    </TTGlyph>
    <TTGlyph name="uni0E97.am" xMin="100" yMin="0" xMax="1300" yMax="1672">
      <contour>
        <pt x="270" y="895" on="1"/>
        <pt x="334" y="895" on="0"/>
        <pt x="334" y="968" on="1"/>
        <pt x="334" y="1042" on="0"/>
        <pt x="270" y="1042" on="1"/>
        <pt x="206" y="1042" on="0"/>
        <pt x="206" y="968" on="1"/>
        <pt x="206" y="895" on="0"/>
      </contour>
      <contour>
        <pt x="236" y="344" on="1"/>
        <pt x="244" y="131" on="0"/>
        <pt x="441" y="131" on="1"/>
        <pt x="638" y="131" on="0"/>
        <pt x="646" y="353" on="1"/>
        <pt x="646" y="802" on="1"/>
        <pt x="646" y="1140" on="0"/>
        <pt x="954" y="1140" on="1"/>
        <pt x="1300" y="1140" on="0"/>
        <pt x="1300" y="786" on="1"/>
        <pt x="1300" y="34" on="1"/>
        <pt x="1300" y="0" on="0"/>
        <pt x="1233" y="0" on="1"/>
        <pt x="1165" y="0" on="0"/>
        <pt x="1165" y="34" on="1"/>
        <pt x="1161" y="788" on="1"/>
        <pt x="1156" y="1009" on="0"/>
        <pt x="967" y="1009" on="1"/>
        <pt x="782" y="1009" on="0"/>
        <pt x="782" y="786" on="1"/>
        <pt x="782" y="353" on="1"/>
        <pt x="782" y="0" on="0"/>
        <pt x="441" y="0" on="1"/>
        <pt x="100" y="0" on="0"/>
        <pt x="100" y="344" on="1"/>
        <pt x="100" y="542" on="0"/>
        <pt x="216" y="697" on="1"/>
        <pt x="256" y="749" on="0"/>
        <pt x="283" y="796" on="1"/>
        <pt x="100" y="798" on="0"/>
        <pt x="100" y="968" on="1"/>
        <pt x="100" y="1140" on="0"/>
        <pt x="285" y="1140" on="1"/>
        <pt x="472" y="1140" on="0"/>
        <pt x="472" y="968" on="1"/>
        <pt x="472" y="822" on="0"/>
        <pt x="244" y="498" on="0"/>
      </contour>
      <contour>
        <pt x="729" y="1672" on="1"/>
        <pt x="778" y="1672" on="0"/>
        <pt x="872" y="1623" on="0"/>
        <pt x="924" y="1531" on="0"/>
        <pt x="924" y="1481" on="1"/>
        <pt x="924" y="1432" on="0"/>
        <pt x="873" y="1341" on="0"/>
        <pt x="780" y="1291" on="0"/>
        <pt x="729" y="1291" on="1"/>
        <pt x="678" y="1291" on="0"/>
        <pt x="585" y="1341" on="0"/>
        <pt x="533" y="1432" on="0"/>
        <pt x="533" y="1481" on="1"/>
        <pt x="533" y="1531" on="0"/>
        <pt x="586" y="1623" on="0"/>
        <pt x="679" y="1672" on="0"/>
      </contour>
      <contour>
        <pt x="709" y="1564" on="0"/>
        <pt x="670" y="1543" on="0"/>
        <pt x="647" y="1505" on="0"/>
        <pt x="647" y="1484" on="1"/>
        <pt x="647" y="1463" on="0"/>
        <pt x="669" y="1425" on="0"/>
        <pt x="708" y="1404" on="0"/>
        <pt x="729" y="1404" on="1"/>
        <pt x="751" y="1404" on="0"/>
        <pt x="790" y="1425" on="0"/>
        <pt x="811" y="1463" on="0"/>
        <pt x="811" y="1484" on="1"/>
        <pt x="811" y="1505" on="0"/>
        <pt x="789" y="1543" on="0"/>
        <pt x="750" y="1564" on="0"/>
        <pt x="729" y="1564" on="1"/>
      </contour>
    </TTGlyph>
    <TTGlyph name="uni0E99" xMin="100" yMin="0" xMax="1110" yMax="1140">
      <contour>
        <pt x="212" y="893" on="0"/>
        <pt x="271" y="893" on="1"/>
        <pt x="330" y="893" on="0"/>
        <pt x="330" y="967" on="1"/>
        <pt x="330" y="1040" on="0"/>
        <pt x="271" y="1040" on="1"/>
        <pt x="212" y="1040" on="0"/>
        <pt x="212" y="967" on="1"/>
      </contour>
      <contour>
        <pt x="455" y="265" on="1"/>
        <pt x="525" y="247" on="0"/>
        <pt x="579" y="200" on="1"/>
        <pt x="667" y="124" on="0"/>
        <pt x="779" y="124" on="1"/>
        <pt x="983" y="124" on="0"/>
        <pt x="983" y="297" on="1"/>
        <pt x="983" y="1108" on="1"/>
        <pt x="983" y="1140" on="0"/>
        <pt x="1047" y="1140" on="1"/>
        <pt x="1110" y="1140" on="0"/>
        <pt x="1110" y="1106" on="1"/>
        <pt x="1110" y="292" on="1"/>
        <pt x="1110" y="0" on="0"/>
        <pt x="779" y="0" on="1"/>
        <pt x="627" y="0" on="0"/>
        <pt x="538" y="80" on="1"/>
        <pt x="481" y="132" on="0"/>
        <pt x="425" y="151" on="1"/>
        <pt x="357" y="4" on="0"/>
        <pt x="184" y="4" on="1"/>
        <pt x="175" y="4" on="1"/>
        <pt x="148" y="5" on="0"/>
        <pt x="148" y="57" on="1"/>
        <pt x="148" y="109" on="0"/>
        <pt x="174" y="116" on="0"/>
        <pt x="284" y="129" on="0"/>
        <pt x="321" y="241" on="0"/>
        <pt x="330" y="339" on="1"/>
        <pt x="330" y="798" on="1"/>
        <pt x="301" y="795" on="0"/>
        <pt x="280" y="795" on="1"/>
        <pt x="100" y="795" on="0"/>
        <pt x="100" y="967" on="1"/>
        <pt x="100" y="1138" on="0"/>
        <pt x="280" y="1140" on="1"/>
        <pt x="459" y="1138" on="0"/>
        <pt x="459" y="967" on="1"/>
        <pt x="459" y="338" on="1"/>
        <pt x="459" y="299" on="0"/>
      </contour>
    </TTGlyph>
    <TTGlyph name="uni0E99.am" xMin="100" yMin="0" xMax="1110" yMax="1672">
      <contour>
        <pt x="212" y="893" on="0"/>
        <pt x="271" y="893" on="1"/>
        <pt x="330" y="893" on="0"/>
        <pt x="330" y="967" on="1"/>
        <pt x="330" y="1040" on="0"/>
        <pt x="271" y="1040" on="1"/>
        <pt x="212" y="1040" on="0"/>
        <pt x="212" y="967" on="1"/>
      </contour>
      <contour>
        <pt x="455" y="265" on="1"/>
        <pt x="525" y="247" on="0"/>
        <pt x="579" y="200" on="1"/>
        <pt x="667" y="124" on="0"/>
        <pt x="779" y="124" on="1"/>
        <pt x="983" y="124" on="0"/>
        <pt x="983" y="297" on="1"/>
        <pt x="983" y="1108" on="1"/>
        <pt x="983" y="1140" on="0"/>
        <pt x="1047" y="1140" on="1"/>
        <pt x="1110" y="1140" on="0"/>
        <pt x="1110" y="1106" on="1"/>
        <pt x="1110" y="292" on="1"/>
        <pt x="1110" y="0" on="0"/>
        <pt x="779" y="0" on="1"/>
        <pt x="627" y="0" on="0"/>
        <pt x="538" y="80" on="1"/>
        <pt x="481" y="132" on="0"/>
        <pt x="425" y="151" on="1"/>
        <pt x="357" y="4" on="0"/>
        <pt x="184" y="4" on="1"/>
        <pt x="175" y="4" on="1"/>
        <pt x="148" y="5" on="0"/>
        <pt x="148" y="57" on="1"/>
        <pt x="148" y="109" on="0"/>
        <pt x="174" y="116" on="0"/>
        <pt x="284" y="129" on="0"/>
        <pt x="321" y="241" on="0"/>
        <pt x="330" y="339" on="1"/>
        <pt x="330" y="798" on="1"/>
        <pt x="301" y="795" on="0"/>
        <pt x="280" y="795" on="1"/>
        <pt x="100" y="795" on="0"/>
        <pt x="100" y="967" on="1"/>
        <pt x="100" y="1138" on="0"/>
        <pt x="280" y="1140" on="1"/>
        <pt x="459" y="1138" on="0"/>
        <pt x="459" y="967" on="1"/>
        <pt x="459" y="338" on="1"/>
        <pt x="459" y="299" on="0"/>
      </contour>
      <contour>
        <pt x="729" y="1672" on="1"/>
        <pt x="778" y="1672" on="0"/>
        <pt x="872" y="1623" on="0"/>
        <pt x="924" y="1531" on="0"/>
        <pt x="924" y="1481" on="1"/>
        <pt x="924" y="1432" on="0"/>
        <pt x="873" y="1341" on="0"/>
        <pt x="780" y="1291" on="0"/>
        <pt x="729" y="1291" on="1"/>
        <pt x="678" y="1291" on="0"/>
        <pt x="585" y="1341" on="0"/>
        <pt x="533" y="1432" on="0"/>
        <pt x="533" y="1481" on="1"/>
        <pt x="533" y="1531" on="0"/>
        <pt x="586" y="1623" on="0"/>
        <pt x="679" y="1672" on="0"/>
      </contour>
      <contour>
        <pt x="709" y="1564" on="0"/>
        <pt x="670" y="1543" on="0"/>
        <pt x="647" y="1505" on="0"/>
        <pt x="647" y="1484" on="1"/>
        <pt x="647" y="1463" on="0"/>
        <pt x="669" y="1425" on="0"/>
        <pt x="708" y="1404" on="0"/>
        <pt x="729" y="1404" on="1"/>
        <pt x="751" y="1404" on="0"/>
        <pt x="790" y="1425" on="0"/>
        <pt x="811" y="1463" on="0"/>
        <pt x="811" y="1484" on="1"/>
        <pt x="811" y="1505" on="0"/>
        <pt x="789" y="1543" on="0"/>
        <pt x="750" y="1564" on="0"/>
        <pt x="729" y="1564" on="1"/>
      </contour>
    </TTGlyph>
    <TTGlyph name="uni0E9A" xMin="100" yMin="0" xMax="1110" yMax="1140">
      <contour>
        <pt x="263" y="893" on="1"/>
        <pt x="324" y="893" on="0"/>
        <pt x="324" y="967" on="1"/>
        <pt x="324" y="1040" on="0"/>
        <pt x="263" y="1040" on="1"/>
        <pt x="202" y="1040" on="0"/>
        <pt x="202" y="967" on="1"/>
        <pt x="202" y="893" on="0"/>
      </contour>
      <contour>
        <pt x="237" y="343" on="1"/>
        <pt x="237" y="124" on="0"/>
        <pt x="607" y="124" on="1"/>
        <pt x="975" y="124" on="0"/>
        <pt x="975" y="392" on="1"/>
        <pt x="975" y="1105" on="1"/>
        <pt x="975" y="1140" on="0"/>
        <pt x="1043" y="1140" on="1"/>
        <pt x="1110" y="1140" on="0"/>
        <pt x="1110" y="1105" on="1"/>
        <pt x="1109" y="389" on="1"/>
        <pt x="1108" y="0" on="0"/>
        <pt x="604" y="0" on="1"/>
        <pt x="100" y="0" on="0"/>
        <pt x="100" y="343" on="1"/>
        <pt x="100" y="541" on="0"/>
        <pt x="212" y="696" on="1"/>
        <pt x="250" y="748" on="0"/>
        <pt x="275" y="795" on="1"/>
        <pt x="100" y="797" on="0"/>
        <pt x="100" y="967" on="1"/>
        <pt x="100" y="1138" on="0"/>
        <pt x="278" y="1140" on="1"/>
        <pt x="456" y="1138" on="0"/>
        <pt x="456" y="967" on="1"/>
        <pt x="456" y="820" on="0"/>
        <pt x="237" y="497" on="0"/>
      </contour>
    </TTGlyph>
    <TTGlyph name="uni0E9A.am" xMin="100" yMin="0" xMax="1110" yMax="1672">
      <contour>
        <pt x="263" y="893" on="1"/>
        <pt x="324" y="893" on="0"/>
        <pt x="324" y="967" on="1"/>
        <pt x="324" y="1040" on="0"/>
        <pt x="263" y="1040" on="1"/>
        <pt x="202" y="1040" on="0"/>
        <pt x="202" y="967" on="1"/>
        <pt x="202" y="893" on="0"/>
      </contour>
      <contour>
        <pt x="237" y="343" on="1"/>
        <pt x="237" y="124" on="0"/>
        <pt x="607" y="124" on="1"/>
        <pt x="975" y="124" on="0"/>
        <pt x="975" y="392" on="1"/>
        <pt x="975" y="1105" on="1"/>
        <pt x="975" y="1140" on="0"/>
        <pt x="1043" y="1140" on="1"/>
        <pt x="1110" y="1140" on="0"/>
        <pt x="1110" y="1105" on="1"/>
        <pt x="1109" y="389" on="1"/>
        <pt x="1108" y="0" on="0"/>
        <pt x="604" y="0" on="1"/>
        <pt x="100" y="0" on="0"/>
        <pt x="100" y="343" on="1"/>
        <pt x="100" y="541" on="0"/>
        <pt x="212" y="696" on="1"/>
        <pt x="250" y="748" on="0"/>
        <pt x="275" y="795" on="1"/>
        <pt x="100" y="797" on="0"/>
        <pt x="100" y="967" on="1"/>
        <pt x="100" y="1138" on="0"/>
        <pt x="278" y="1140" on="1"/>
        <pt x="456" y="1138" on="0"/>
        <pt x="456" y="967" on="1"/>
        <pt x="456" y="820" on="0"/>
        <pt x="237" y="497" on="0"/>
      </contour>
      <contour>
        <pt x="709" y="1672" on="1"/>
        <pt x="758" y="1672" on="0"/>
        <pt x="852" y="1623" on="0"/>
        <pt x="904" y="1531" on="0"/>
        <pt x="904" y="1481" on="1"/>
        <pt x="904" y="1432" on="0"/>
        <pt x="853" y="1341" on="0"/>
        <pt x="760" y="1291" on="0"/>
        <pt x="709" y="1291" on="1"/>
        <pt x="658" y="1291" on="0"/>
        <pt x="565" y="1341" on="0"/>
        <pt x="513" y="1432" on="0"/>
        <pt x="513" y="1481" on="1"/>
        <pt x="513" y="1531" on="0"/>
        <pt x="566" y="1623" on="0"/>
        <pt x="659" y="1672" on="0"/>
      </contour>
      <contour>
        <pt x="689" y="1564" on="0"/>
        <pt x="650" y="1543" on="0"/>
        <pt x="627" y="1505" on="0"/>
        <pt x="627" y="1484" on="1"/>
        <pt x="627" y="1463" on="0"/>
        <pt x="649" y="1425" on="0"/>
        <pt x="688" y="1404" on="0"/>
        <pt x="709" y="1404" on="1"/>
        <pt x="731" y="1404" on="0"/>
        <pt x="770" y="1425" on="0"/>
        <pt x="791" y="1463" on="0"/>
        <pt x="791" y="1484" on="1"/>
        <pt x="791" y="1505" on="0"/>
        <pt x="769" y="1543" on="0"/>
        <pt x="730" y="1564" on="0"/>
        <pt x="709" y="1564" on="1"/>
      </contour>
    </TTGlyph>
    <TTGlyph name="uni0E9B" xMin="100" yMin="0" xMax="1100" yMax="1465">
      <contour>
        <pt x="255" y="891" on="1"/>
        <pt x="313" y="891" on="0"/>
        <pt x="313" y="966" on="1"/>
        <pt x="313" y="1041" on="0"/>
        <pt x="255" y="1041" on="1"/>
        <pt x="197" y="1041" on="0"/>
        <pt x="197" y="966" on="1"/>
        <pt x="197" y="891" on="0"/>
      </contour>
      <contour>
        <pt x="935" y="1163" on="1"/>
        <pt x="935" y="1220" on="0"/>
        <pt x="937" y="1261" on="1"/>
        <pt x="938" y="1310" on="0"/>
        <pt x="951" y="1395" on="0"/>
        <pt x="972" y="1465" on="0"/>
        <pt x="1041" y="1465" on="1"/>
        <pt x="1100" y="1465" on="0"/>
        <pt x="1100" y="1448" on="1"/>
        <pt x="1100" y="1445" on="0"/>
        <pt x="1098" y="1441" on="1"/>
        <pt x="1086" y="1417" on="0"/>
        <pt x="1071" y="1329" on="0"/>
        <pt x="1066" y="1219" on="0"/>
        <pt x="1066" y="1146" on="1"/>
        <pt x="1066" y="400" on="1"/>
        <pt x="1066" y="0" on="0"/>
        <pt x="581" y="0" on="1"/>
        <pt x="100" y="0" on="0"/>
        <pt x="100" y="350" on="1"/>
        <pt x="100" y="552" on="0"/>
        <pt x="207" y="700" on="1"/>
        <pt x="243" y="753" on="0"/>
        <pt x="267" y="791" on="1"/>
        <pt x="100" y="793" on="0"/>
        <pt x="100" y="966" on="1"/>
        <pt x="100" y="1140" on="0"/>
        <pt x="268" y="1140" on="1"/>
        <pt x="272" y="1140" on="1"/>
        <pt x="443" y="1140" on="0"/>
        <pt x="443" y="966" on="1"/>
        <pt x="443" y="817" on="0"/>
        <pt x="234" y="507" on="0"/>
        <pt x="234" y="350" on="1"/>
        <pt x="234" y="135" on="0"/>
        <pt x="583" y="135" on="1"/>
        <pt x="934" y="135" on="0"/>
        <pt x="934" y="400" on="1"/>
        <pt x="934" y="1163" on="1"/>
      </contour>
    </TTGlyph>
    <TTGlyph name="uni0E9B.am" xMin="100" yMin="0" xMax="1100" yMax="1672">
      <contour>
        <pt x="255" y="891" on="1"/>
        <pt x="313" y="891" on="0"/>
        <pt x="313" y="966" on="1"/>
        <pt x="313" y="1041" on="0"/>
        <pt x="255" y="1041" on="1"/>
        <pt x="197" y="1041" on="0"/>
        <pt x="197" y="966" on="1"/>
        <pt x="197" y="891" on="0"/>
      </contour>
      <contour>
        <pt x="935" y="1163" on="1"/>
        <pt x="935" y="1220" on="0"/>
        <pt x="937" y="1261" on="1"/>
        <pt x="938" y="1310" on="0"/>
        <pt x="951" y="1395" on="0"/>
        <pt x="972" y="1465" on="0"/>
        <pt x="1041" y="1465" on="1"/>
        <pt x="1100" y="1465" on="0"/>
        <pt x="1100" y="1448" on="1"/>
        <pt x="1100" y="1445" on="0"/>
        <pt x="1098" y="1441" on="1"/>
        <pt x="1086" y="1417" on="0"/>
        <pt x="1071" y="1329" on="0"/>
        <pt x="1066" y="1219" on="0"/>
        <pt x="1066" y="1146" on="1"/>
        <pt x="1066" y="400" on="1"/>
        <pt x="1066" y="0" on="0"/>
        <pt x="581" y="0" on="1"/>
        <pt x="100" y="0" on="0"/>
        <pt x="100" y="350" on="1"/>
        <pt x="100" y="552" on="0"/>
        <pt x="207" y="700" on="1"/>
        <pt x="243" y="753" on="0"/>
        <pt x="267" y="791" on="1"/>
        <pt x="100" y="793" on="0"/>
        <pt x="100" y="966" on="1"/>
        <pt x="100" y="1140" on="0"/>
        <pt x="268" y="1140" on="1"/>
        <pt x="272" y="1140" on="1"/>
        <pt x="443" y="1140" on="0"/>
        <pt x="443" y="966" on="1"/>
        <pt x="443" y="817" on="0"/>
        <pt x="234" y="507" on="0"/>
        <pt x="234" y="350" on="1"/>
        <pt x="234" y="135" on="0"/>
        <pt x="583" y="135" on="1"/>
        <pt x="934" y="135" on="0"/>
        <pt x="934" y="400" on="1"/>
        <pt x="934" y="1163" on="1"/>
      </contour>
      <contour>
        <pt x="669" y="1672" on="1"/>
        <pt x="718" y="1672" on="0"/>
        <pt x="812" y="1623" on="0"/>
        <pt x="864" y="1531" on="0"/>
        <pt x="864" y="1481" on="1"/>
        <pt x="864" y="1432" on="0"/>
        <pt x="813" y="1341" on="0"/>
        <pt x="720" y="1291" on="0"/>
        <pt x="669" y="1291" on="1"/>
        <pt x="618" y="1291" on="0"/>
        <pt x="525" y="1341" on="0"/>
        <pt x="473" y="1432" on="0"/>
        <pt x="473" y="1481" on="1"/>
        <pt x="473" y="1531" on="0"/>
        <pt x="526" y="1623" on="0"/>
        <pt x="619" y="1672" on="0"/>
      </contour>
      <contour>
        <pt x="649" y="1564" on="0"/>
        <pt x="610" y="1543" on="0"/>
        <pt x="587" y="1505" on="0"/>
        <pt x="587" y="1484" on="1"/>
        <pt x="587" y="1463" on="0"/>
        <pt x="609" y="1425" on="0"/>
        <pt x="648" y="1404" on="0"/>
        <pt x="669" y="1404" on="1"/>
        <pt x="691" y="1404" on="0"/>
        <pt x="730" y="1425" on="0"/>
        <pt x="751" y="1463" on="0"/>
        <pt x="751" y="1484" on="1"/>
        <pt x="751" y="1505" on="0"/>
        <pt x="729" y="1543" on="0"/>
        <pt x="690" y="1564" on="0"/>
        <pt x="669" y="1564" on="1"/>
      </contour>
    </TTGlyph>
    <TTGlyph name="uni0E9C" xMin="100" yMin="0" xMax="1132" yMax="1210">
      <contour>
        <pt x="394" y="989" on="1"/>
        <pt x="394" y="1053" on="0"/>
        <pt x="330" y="1053" on="1"/>
        <pt x="265" y="1053" on="0"/>
        <pt x="265" y="989" on="1"/>
        <pt x="265" y="926" on="0"/>
        <pt x="330" y="926" on="1"/>
        <pt x="394" y="926" on="0"/>
      </contour>
      <contour>
        <pt x="895" y="926" on="1"/>
        <pt x="956" y="942" on="0"/>
        <pt x="969" y="992" on="1"/>
        <pt x="945" y="1048" on="0"/>
        <pt x="895" y="1048" on="1"/>
        <pt x="834" y="1048" on="0"/>
        <pt x="827" y="979" on="1"/>
        <pt x="834" y="926" on="0"/>
      </contour>
      <contour>
        <pt x="614" y="103" on="1"/>
        <pt x="544" y="0" on="0"/>
        <pt x="392" y="0" on="1"/>
        <pt x="100" y="0" on="0"/>
        <pt x="100" y="335" on="1"/>
        <pt x="100" y="860" on="1"/>
        <pt x="100" y="1132" on="0"/>
        <pt x="330" y="1140" on="1"/>
        <pt x="499" y="1136" on="0"/>
        <pt x="499" y="981" on="1"/>
        <pt x="499" y="970" on="1"/>
        <pt x="480" y="831" on="0"/>
        <pt x="347" y="825" on="1"/>
        <pt x="281" y="825" on="0"/>
        <pt x="235" y="873" on="1"/>
        <pt x="235" y="335" on="1"/>
        <pt x="235" y="127" on="0"/>
        <pt x="394" y="127" on="1"/>
        <pt x="547" y="127" on="0"/>
        <pt x="547" y="309" on="1"/>
        <pt x="547" y="374" on="1"/>
        <pt x="547" y="424" on="0"/>
        <pt x="614" y="424" on="1"/>
        <pt x="681" y="424" on="0"/>
        <pt x="681" y="367" on="1"/>
        <pt x="678" y="323" on="1"/>
        <pt x="678" y="316" on="1"/>
        <pt x="678" y="127" on="0"/>
        <pt x="829" y="127" on="1"/>
        <pt x="983" y="127" on="0"/>
        <pt x="983" y="335" on="1"/>
        <pt x="983" y="865" on="1"/>
        <pt x="957" y="825" on="0"/>
        <pt x="880" y="825" on="1"/>
        <pt x="737" y="831" on="0"/>
        <pt x="721" y="974" on="1"/>
        <pt x="721" y="1128" on="0"/>
        <pt x="899" y="1140" on="1"/>
        <pt x="976" y="1140" on="0"/>
        <pt x="1016" y="1096" on="1"/>
        <pt x="1024" y="1131" on="0"/>
        <pt x="1024" y="1160" on="1"/>
        <pt x="1024" y="1170" on="0"/>
        <pt x="1023" y="1180" on="1"/>
        <pt x="1023" y="1182" on="1"/>
        <pt x="1023" y="1210" on="0"/>
        <pt x="1069" y="1210" on="1"/>
        <pt x="1117" y="1210" on="0"/>
        <pt x="1130" y="1179" on="0"/>
        <pt x="1132" y="1141" on="1"/>
        <pt x="1130" y="1094" on="0"/>
        <pt x="1099" y="1009" on="1"/>
        <pt x="1118" y="946" on="0"/>
        <pt x="1118" y="855" on="1"/>
        <pt x="1118" y="335" on="1"/>
        <pt x="1118" y="0" on="0"/>
        <pt x="837" y="0" on="1"/>
        <pt x="685" y="0" on="0"/>
      </contour>
    </TTGlyph>
    <TTGlyph name="uni0E9C.am" xMin="100" yMin="0" xMax="1132" yMax="1672">
      <contour>
        <pt x="394" y="989" on="1"/>
        <pt x="394" y="1053" on="0"/>
        <pt x="330" y="1053" on="1"/>
        <pt x="265" y="1053" on="0"/>
        <pt x="265" y="989" on="1"/>
        <pt x="265" y="926" on="0"/>
        <pt x="330" y="926" on="1"/>
        <pt x="394" y="926" on="0"/>
      </contour>
      <contour>
        <pt x="895" y="926" on="1"/>
        <pt x="956" y="942" on="0"/>
        <pt x="969" y="992" on="1"/>
        <pt x="945" y="1048" on="0"/>
        <pt x="895" y="1048" on="1"/>
        <pt x="834" y="1048" on="0"/>
        <pt x="827" y="979" on="1"/>
        <pt x="834" y="926" on="0"/>
      </contour>
      <contour>
        <pt x="614" y="103" on="1"/>
        <pt x="544" y="0" on="0"/>
        <pt x="392" y="0" on="1"/>
        <pt x="100" y="0" on="0"/>
        <pt x="100" y="335" on="1"/>
        <pt x="100" y="860" on="1"/>
        <pt x="100" y="1132" on="0"/>
        <pt x="330" y="1140" on="1"/>
        <pt x="499" y="1136" on="0"/>
        <pt x="499" y="981" on="1"/>
        <pt x="499" y="970" on="1"/>
        <pt x="480" y="831" on="0"/>
        <pt x="347" y="825" on="1"/>
        <pt x="281" y="825" on="0"/>
        <pt x="235" y="873" on="1"/>
        <pt x="235" y="335" on="1"/>
        <pt x="235" y="127" on="0"/>
        <pt x="394" y="127" on="1"/>
        <pt x="547" y="127" on="0"/>
        <pt x="547" y="309" on="1"/>
        <pt x="547" y="374" on="1"/>
        <pt x="547" y="424" on="0"/>
        <pt x="614" y="424" on="1"/>
        <pt x="681" y="424" on="0"/>
        <pt x="681" y="367" on="1"/>
        <pt x="678" y="323" on="1"/>
        <pt x="678" y="316" on="1"/>
        <pt x="678" y="127" on="0"/>
        <pt x="829" y="127" on="1"/>
        <pt x="983" y="127" on="0"/>
        <pt x="983" y="335" on="1"/>
        <pt x="983" y="865" on="1"/>
        <pt x="957" y="825" on="0"/>
        <pt x="880" y="825" on="1"/>
        <pt x="737" y="831" on="0"/>
        <pt x="721" y="974" on="1"/>
        <pt x="721" y="1128" on="0"/>
        <pt x="899" y="1140" on="1"/>
        <pt x="976" y="1140" on="0"/>
        <pt x="1016" y="1096" on="1"/>
        <pt x="1024" y="1131" on="0"/>
        <pt x="1024" y="1160" on="1"/>
        <pt x="1024" y="1170" on="0"/>
        <pt x="1023" y="1180" on="1"/>
        <pt x="1023" y="1182" on="1"/>
        <pt x="1023" y="1210" on="0"/>
        <pt x="1069" y="1210" on="1"/>
        <pt x="1117" y="1210" on="0"/>
        <pt x="1130" y="1179" on="0"/>
        <pt x="1132" y="1141" on="1"/>
        <pt x="1130" y="1094" on="0"/>
        <pt x="1099" y="1009" on="1"/>
        <pt x="1118" y="946" on="0"/>
        <pt x="1118" y="855" on="1"/>
        <pt x="1118" y="335" on="1"/>
        <pt x="1118" y="0" on="0"/>
        <pt x="837" y="0" on="1"/>
        <pt x="685" y="0" on="0"/>
      </contour>
      <contour>
        <pt x="629" y="1672" on="1"/>
        <pt x="678" y="1672" on="0"/>
        <pt x="772" y="1623" on="0"/>
        <pt x="824" y="1531" on="0"/>
        <pt x="824" y="1481" on="1"/>
        <pt x="824" y="1432" on="0"/>
        <pt x="773" y="1341" on="0"/>
        <pt x="680" y="1291" on="0"/>
        <pt x="629" y="1291" on="1"/>
        <pt x="578" y="1291" on="0"/>
        <pt x="485" y="1341" on="0"/>
        <pt x="433" y="1432" on="0"/>
        <pt x="433" y="1481" on="1"/>
        <pt x="433" y="1531" on="0"/>
        <pt x="486" y="1623" on="0"/>
        <pt x="579" y="1672" on="0"/>
      </contour>
      <contour>
        <pt x="609" y="1564" on="0"/>
        <pt x="570" y="1543" on="0"/>
        <pt x="547" y="1505" on="0"/>
        <pt x="547" y="1484" on="1"/>
        <pt x="547" y="1463" on="0"/>
        <pt x="569" y="1425" on="0"/>
        <pt x="608" y="1404" on="0"/>
        <pt x="629" y="1404" on="1"/>
        <pt x="651" y="1404" on="0"/>
        <pt x="690" y="1425" on="0"/>
        <pt x="711" y="1463" on="0"/>
        <pt x="711" y="1484" on="1"/>
        <pt x="711" y="1505" on="0"/>
        <pt x="689" y="1543" on="0"/>
        <pt x="650" y="1564" on="0"/>
        <pt x="629" y="1564" on="1"/>
      </contour>
    </TTGlyph>
    <TTGlyph name="uni0E9D" xMin="100" yMin="0" xMax="1121" yMax="1465">
      <contour>
        <pt x="376" y="982" on="1"/>
        <pt x="376" y="1051" on="0"/>
        <pt x="313" y="1051" on="1"/>
        <pt x="250" y="1051" on="0"/>
        <pt x="250" y="982" on="1"/>
        <pt x="250" y="913" on="0"/>
        <pt x="313" y="913" on="1"/>
        <pt x="376" y="913" on="0"/>
      </contour>
      <contour>
        <pt x="1094" y="363" on="1"/>
        <pt x="1094" y="0" on="0"/>
        <pt x="806" y="0" on="1"/>
        <pt x="657" y="0" on="0"/>
        <pt x="589" y="101" on="1"/>
        <pt x="521" y="0" on="0"/>
        <pt x="374" y="0" on="1"/>
        <pt x="100" y="0" on="0"/>
        <pt x="100" y="363" on="1"/>
        <pt x="100" y="842" on="1"/>
        <pt x="100" y="1137" on="0"/>
        <pt x="313" y="1140" on="1"/>
        <pt x="315" y="1140" on="1"/>
        <pt x="481" y="1140" on="0"/>
        <pt x="481" y="973" on="1"/>
        <pt x="481" y="963" on="1"/>
        <pt x="467" y="829" on="0"/>
        <pt x="331" y="820" on="1"/>
        <pt x="318" y="820" on="1"/>
        <pt x="232" y="820" on="0"/>
        <pt x="232" y="846" on="1"/>
        <pt x="232" y="363" on="1"/>
        <pt x="232" y="135" on="0"/>
        <pt x="376" y="135" on="1"/>
        <pt x="522" y="135" on="0"/>
        <pt x="522" y="319" on="1"/>
        <pt x="522" y="400" on="1"/>
        <pt x="522" y="460" on="0"/>
        <pt x="590" y="460" on="1"/>
        <pt x="657" y="460" on="0"/>
        <pt x="658" y="401" on="1"/>
        <pt x="655" y="342" on="1"/>
        <pt x="655" y="327" on="1"/>
        <pt x="655" y="135" on="0"/>
        <pt x="803" y="135" on="1"/>
        <pt x="957" y="135" on="0"/>
        <pt x="957" y="363" on="1"/>
        <pt x="957" y="1163" on="1"/>
        <pt x="958" y="1163" on="1"/>
        <pt x="958" y="1220" on="0"/>
        <pt x="960" y="1261" on="1"/>
        <pt x="961" y="1310" on="0"/>
        <pt x="973" y="1395" on="0"/>
        <pt x="993" y="1465" on="0"/>
        <pt x="1062" y="1465" on="1"/>
        <pt x="1121" y="1465" on="0"/>
        <pt x="1121" y="1447" on="1"/>
        <pt x="1121" y="1444" on="0"/>
        <pt x="1119" y="1441" on="1"/>
        <pt x="1108" y="1417" on="0"/>
        <pt x="1095" y="1329" on="0"/>
        <pt x="1094" y="1219" on="0"/>
        <pt x="1094" y="1146" on="1"/>
      </contour>
    </TTGlyph>
    <TTGlyph name="uni0E9D.am" xMin="100" yMin="0" xMax="1121" yMax="1672">
      <contour>
        <pt x="376" y="982" on="1"/>
        <pt x="376" y="1051" on="0"/>
        <pt x="313" y="1051" on="1"/>
        <pt x="250" y="1051" on="0"/>
        <pt x="250" y="982" on="1"/>
        <pt x="250" y="913" on="0"/>
        <pt x="313" y="913" on="1"/>
        <pt x="376" y="913" on="0"/>
      </contour>
      <contour>
        <pt x="1094" y="363" on="1"/>
        <pt x="1094" y="0" on="0"/>
        <pt x="806" y="0" on="1"/>
        <pt x="657" y="0" on="0"/>
        <pt x="589" y="101" on="1"/>
        <pt x="521" y="0" on="0"/>
        <pt x="374" y="0" on="1"/>
        <pt x="100" y="0" on="0"/>
        <pt x="100" y="363" on="1"/>
        <pt x="100" y="842" on="1"/>
        <pt x="100" y="1137" on="0"/>
        <pt x="313" y="1140" on="1"/>
        <pt x="315" y="1140" on="1"/>
        <pt x="481" y="1140" on="0"/>
        <pt x="481" y="973" on="1"/>
        <pt x="481" y="963" on="1"/>
        <pt x="467" y="829" on="0"/>
        <pt x="331" y="820" on="1"/>
        <pt x="318" y="820" on="1"/>
        <pt x="232" y="820" on="0"/>
        <pt x="232" y="846" on="1"/>
        <pt x="232" y="363" on="1"/>
        <pt x="232" y="135" on="0"/>
        <pt x="376" y="135" on="1"/>
        <pt x="522" y="135" on="0"/>
        <pt x="522" y="319" on="1"/>
        <pt x="522" y="400" on="1"/>
        <pt x="522" y="460" on="0"/>
        <pt x="590" y="460" on="1"/>
        <pt x="657" y="460" on="0"/>
        <pt x="658" y="401" on="1"/>
        <pt x="655" y="342" on="1"/>
        <pt x="655" y="327" on="1"/>
        <pt x="655" y="135" on="0"/>
        <pt x="803" y="135" on="1"/>
        <pt x="957" y="135" on="0"/>
        <pt x="957" y="363" on="1"/>
        <pt x="957" y="1163" on="1"/>
        <pt x="958" y="1163" on="1"/>
        <pt x="958" y="1220" on="0"/>
        <pt x="960" y="1261" on="1"/>
        <pt x="961" y="1310" on="0"/>
        <pt x="973" y="1395" on="0"/>
        <pt x="993" y="1465" on="0"/>
        <pt x="1062" y="1465" on="1"/>
        <pt x="1121" y="1465" on="0"/>
        <pt x="1121" y="1447" on="1"/>
        <pt x="1121" y="1444" on="0"/>
        <pt x="1119" y="1441" on="1"/>
        <pt x="1108" y="1417" on="0"/>
        <pt x="1095" y="1329" on="0"/>
        <pt x="1094" y="1219" on="0"/>
        <pt x="1094" y="1146" on="1"/>
      </contour>
      <contour>
        <pt x="629" y="1672" on="1"/>
        <pt x="678" y="1672" on="0"/>
        <pt x="772" y="1623" on="0"/>
        <pt x="824" y="1531" on="0"/>
        <pt x="824" y="1481" on="1"/>
        <pt x="824" y="1432" on="0"/>
        <pt x="773" y="1341" on="0"/>
        <pt x="680" y="1291" on="0"/>
        <pt x="629" y="1291" on="1"/>
        <pt x="578" y="1291" on="0"/>
        <pt x="485" y="1341" on="0"/>
        <pt x="433" y="1432" on="0"/>
        <pt x="433" y="1481" on="1"/>
        <pt x="433" y="1531" on="0"/>
        <pt x="486" y="1623" on="0"/>
        <pt x="579" y="1672" on="0"/>
      </contour>
      <contour>
        <pt x="609" y="1564" on="0"/>
        <pt x="570" y="1543" on="0"/>
        <pt x="547" y="1505" on="0"/>
        <pt x="547" y="1484" on="1"/>
        <pt x="547" y="1463" on="0"/>
        <pt x="569" y="1425" on="0"/>
        <pt x="608" y="1404" on="0"/>
        <pt x="629" y="1404" on="1"/>
        <pt x="651" y="1404" on="0"/>
        <pt x="690" y="1425" on="0"/>
        <pt x="711" y="1463" on="0"/>
        <pt x="711" y="1484" on="1"/>
        <pt x="711" y="1505" on="0"/>
        <pt x="689" y="1543" on="0"/>
        <pt x="650" y="1564" on="0"/>
        <pt x="629" y="1564" on="1"/>
      </contour>
    </TTGlyph>
    <TTGlyph name="uni0E9E" xMin="100" yMin="0" xMax="1130" yMax="1140">
      <contour>
        <pt x="248" y="893" on="1"/>
        <pt x="304" y="893" on="0"/>
        <pt x="304" y="967" on="1"/>
        <pt x="304" y="1040" on="0"/>
        <pt x="248" y="1040" on="1"/>
        <pt x="193" y="1040" on="0"/>
        <pt x="193" y="967" on="1"/>
        <pt x="193" y="893" on="0"/>
      </contour>
      <contour>
        <pt x="396" y="134" on="1"/>
        <pt x="544" y="134" on="0"/>
        <pt x="544" y="335" on="1"/>
        <pt x="544" y="1116" on="1"/>
        <pt x="544" y="1140" on="0"/>
        <pt x="612" y="1140" on="1"/>
        <pt x="680" y="1140" on="0"/>
        <pt x="680" y="1116" on="1"/>
        <pt x="676" y="344" on="1"/>
        <pt x="676" y="331" on="1"/>
        <pt x="676" y="134" on="0"/>
        <pt x="832" y="134" on="1"/>
        <pt x="992" y="134" on="0"/>
        <pt x="995" y="356" on="1"/>
        <pt x="995" y="1116" on="1"/>
        <pt x="995" y="1140" on="0"/>
        <pt x="1063" y="1140" on="1"/>
        <pt x="1130" y="1140" on="0"/>
        <pt x="1130" y="1115" on="1"/>
        <pt x="1125" y="355" on="1"/>
        <pt x="1120" y="0" on="0"/>
        <pt x="836" y="0" on="1"/>
        <pt x="684" y="0" on="0"/>
        <pt x="612" y="99" on="1"/>
        <pt x="541" y="0" on="0"/>
        <pt x="399" y="0" on="1"/>
        <pt x="100" y="0" on="0"/>
        <pt x="100" y="343" on="1"/>
        <pt x="100" y="561" on="0"/>
        <pt x="202" y="696" on="1"/>
        <pt x="236" y="748" on="0"/>
        <pt x="260" y="795" on="1"/>
        <pt x="100" y="797" on="0"/>
        <pt x="100" y="967" on="1"/>
        <pt x="100" y="1138" on="0"/>
        <pt x="263" y="1140" on="1"/>
        <pt x="425" y="1138" on="0"/>
        <pt x="425" y="967" on="1"/>
        <pt x="425" y="820" on="0"/>
        <pt x="235" y="516" on="0"/>
        <pt x="235" y="342" on="1"/>
        <pt x="235" y="335" on="1"/>
        <pt x="235" y="134" on="0"/>
        <pt x="394" y="134" on="1"/>
      </contour>
    </TTGlyph>
    <TTGlyph name="uni0E9E.am" xMin="100" yMin="0" xMax="1130" yMax="1672">
      <contour>
        <pt x="248" y="893" on="1"/>
        <pt x="304" y="893" on="0"/>
        <pt x="304" y="967" on="1"/>
        <pt x="304" y="1040" on="0"/>
        <pt x="248" y="1040" on="1"/>
        <pt x="193" y="1040" on="0"/>
        <pt x="193" y="967" on="1"/>
        <pt x="193" y="893" on="0"/>
      </contour>
      <contour>
        <pt x="396" y="134" on="1"/>
        <pt x="544" y="134" on="0"/>
        <pt x="544" y="335" on="1"/>
        <pt x="544" y="1116" on="1"/>
        <pt x="544" y="1140" on="0"/>
        <pt x="612" y="1140" on="1"/>
        <pt x="680" y="1140" on="0"/>
        <pt x="680" y="1116" on="1"/>
        <pt x="676" y="344" on="1"/>
        <pt x="676" y="331" on="1"/>
        <pt x="676" y="134" on="0"/>
        <pt x="832" y="134" on="1"/>
        <pt x="992" y="134" on="0"/>
        <pt x="995" y="356" on="1"/>
        <pt x="995" y="1116" on="1"/>
        <pt x="995" y="1140" on="0"/>
        <pt x="1063" y="1140" on="1"/>
        <pt x="1130" y="1140" on="0"/>
        <pt x="1130" y="1115" on="1"/>
        <pt x="1125" y="355" on="1"/>
        <pt x="1120" y="0" on="0"/>
        <pt x="836" y="0" on="1"/>
        <pt x="684" y="0" on="0"/>
        <pt x="612" y="99" on="1"/>
        <pt x="541" y="0" on="0"/>
        <pt x="399" y="0" on="1"/>
        <pt x="100" y="0" on="0"/>
        <pt x="100" y="343" on="1"/>
        <pt x="100" y="561" on="0"/>
        <pt x="202" y="696" on="1"/>
        <pt x="236" y="748" on="0"/>
        <pt x="260" y="795" on="1"/>
        <pt x="100" y="797" on="0"/>
        <pt x="100" y="967" on="1"/>
        <pt x="100" y="1138" on="0"/>
        <pt x="263" y="1140" on="1"/>
        <pt x="425" y="1138" on="0"/>
        <pt x="425" y="967" on="1"/>
        <pt x="425" y="820" on="0"/>
        <pt x="235" y="516" on="0"/>
        <pt x="235" y="342" on="1"/>
        <pt x="235" y="335" on="1"/>
        <pt x="235" y="134" on="0"/>
        <pt x="394" y="134" on="1"/>
      </contour>
      <contour>
        <pt x="639" y="1672" on="1"/>
        <pt x="688" y="1672" on="0"/>
        <pt x="782" y="1623" on="0"/>
        <pt x="834" y="1531" on="0"/>
        <pt x="834" y="1481" on="1"/>
        <pt x="834" y="1432" on="0"/>
        <pt x="783" y="1341" on="0"/>
        <pt x="690" y="1291" on="0"/>
        <pt x="639" y="1291" on="1"/>
        <pt x="588" y="1291" on="0"/>
        <pt x="495" y="1341" on="0"/>
        <pt x="443" y="1432" on="0"/>
        <pt x="443" y="1481" on="1"/>
        <pt x="443" y="1531" on="0"/>
        <pt x="496" y="1623" on="0"/>
        <pt x="589" y="1672" on="0"/>
      </contour>
      <contour>
        <pt x="619" y="1564" on="0"/>
        <pt x="580" y="1543" on="0"/>
        <pt x="557" y="1505" on="0"/>
        <pt x="557" y="1484" on="1"/>
        <pt x="557" y="1463" on="0"/>
        <pt x="579" y="1425" on="0"/>
        <pt x="618" y="1404" on="0"/>
        <pt x="639" y="1404" on="1"/>
        <pt x="661" y="1404" on="0"/>
        <pt x="700" y="1425" on="0"/>
        <pt x="721" y="1463" on="0"/>
        <pt x="721" y="1484" on="1"/>
        <pt x="721" y="1505" on="0"/>
        <pt x="699" y="1543" on="0"/>
        <pt x="660" y="1564" on="0"/>
        <pt x="639" y="1564" on="1"/>
      </contour>
    </TTGlyph>
    <TTGlyph name="uni0E9F" xMin="100" yMin="0" xMax="1121" yMax="1465">
      <contour>
        <pt x="264" y="908" on="1"/>
        <pt x="316" y="908" on="0"/>
        <pt x="316" y="975" on="1"/>
        <pt x="316" y="1041" on="0"/>
        <pt x="264" y="1041" on="1"/>
        <pt x="212" y="1041" on="0"/>
        <pt x="212" y="975" on="1"/>
        <pt x="212" y="908" on="0"/>
      </contour>
      <contour>
        <pt x="1093" y="335" on="1"/>
        <pt x="1093" y="7" on="0"/>
        <pt x="814" y="0" on="1"/>
        <pt x="670" y="0" on="0"/>
        <pt x="603" y="101" on="1"/>
        <pt x="537" y="0" on="0"/>
        <pt x="405" y="0" on="1"/>
        <pt x="126" y="0" on="0"/>
        <pt x="126" y="350" on="1"/>
        <pt x="126" y="552" on="0"/>
        <pt x="221" y="690" on="1"/>
        <pt x="253" y="743" on="0"/>
        <pt x="275" y="791" on="1"/>
        <pt x="100" y="803" on="0"/>
        <pt x="100" y="976" on="1"/>
        <pt x="100" y="1151" on="0"/>
        <pt x="278" y="1153" on="1"/>
        <pt x="449" y="1142" on="0"/>
        <pt x="449" y="967" on="1"/>
        <pt x="449" y="818" on="0"/>
        <pt x="257" y="507" on="0"/>
        <pt x="257" y="350" on="1"/>
        <pt x="261" y="135" on="0"/>
        <pt x="409" y="135" on="1"/>
        <pt x="539" y="135" on="0"/>
        <pt x="539" y="318" on="1"/>
        <pt x="539" y="333" on="0"/>
        <pt x="538" y="350" on="1"/>
        <pt x="538" y="1108" on="1"/>
        <pt x="538" y="1134" on="0"/>
        <pt x="604" y="1134" on="1"/>
        <pt x="670" y="1134" on="0"/>
        <pt x="670" y="1108" on="1"/>
        <pt x="670" y="237" on="1"/>
        <pt x="670" y="135" on="0"/>
        <pt x="815" y="135" on="1"/>
        <pt x="962" y="135" on="0"/>
        <pt x="962" y="336" on="1"/>
        <pt x="962" y="349" on="0"/>
        <pt x="961" y="363" on="1"/>
        <pt x="961" y="1163" on="1"/>
        <pt x="962" y="1163" on="1"/>
        <pt x="962" y="1220" on="0"/>
        <pt x="964" y="1261" on="1"/>
        <pt x="965" y="1310" on="0"/>
        <pt x="976" y="1395" on="0"/>
        <pt x="995" y="1465" on="0"/>
        <pt x="1063" y="1465" on="1"/>
        <pt x="1121" y="1465" on="0"/>
        <pt x="1121" y="1447" on="1"/>
        <pt x="1121" y="1444" on="0"/>
        <pt x="1119" y="1441" on="1"/>
        <pt x="1108" y="1417" on="0"/>
        <pt x="1096" y="1329" on="0"/>
        <pt x="1093" y="1219" on="0"/>
        <pt x="1093" y="1146" on="1"/>
      </contour>
    </TTGlyph>
    <TTGlyph name="uni0E9F.am" xMin="100" yMin="0" xMax="1121" yMax="1672">
      <contour>
        <pt x="264" y="908" on="1"/>
        <pt x="316" y="908" on="0"/>
        <pt x="316" y="975" on="1"/>
        <pt x="316" y="1041" on="0"/>
        <pt x="264" y="1041" on="1"/>
        <pt x="212" y="1041" on="0"/>
        <pt x="212" y="975" on="1"/>
        <pt x="212" y="908" on="0"/>
      </contour>
      <contour>
        <pt x="1093" y="335" on="1"/>
        <pt x="1093" y="7" on="0"/>
        <pt x="814" y="0" on="1"/>
        <pt x="670" y="0" on="0"/>
        <pt x="603" y="101" on="1"/>
        <pt x="537" y="0" on="0"/>
        <pt x="405" y="0" on="1"/>
        <pt x="126" y="0" on="0"/>
        <pt x="126" y="350" on="1"/>
        <pt x="126" y="552" on="0"/>
        <pt x="221" y="690" on="1"/>
        <pt x="253" y="743" on="0"/>
        <pt x="275" y="791" on="1"/>
        <pt x="100" y="803" on="0"/>
        <pt x="100" y="976" on="1"/>
        <pt x="100" y="1151" on="0"/>
        <pt x="278" y="1153" on="1"/>
        <pt x="449" y="1142" on="0"/>
        <pt x="449" y="967" on="1"/>
        <pt x="449" y="818" on="0"/>
        <pt x="257" y="507" on="0"/>
        <pt x="257" y="350" on="1"/>
        <pt x="261" y="135" on="0"/>
        <pt x="409" y="135" on="1"/>
        <pt x="539" y="135" on="0"/>
        <pt x="539" y="318" on="1"/>
        <pt x="539" y="333" on="0"/>
        <pt x="538" y="350" on="1"/>
        <pt x="538" y="1108" on="1"/>
        <pt x="538" y="1134" on="0"/>
        <pt x="604" y="1134" on="1"/>
        <pt x="670" y="1134" on="0"/>
        <pt x="670" y="1108" on="1"/>
        <pt x="670" y="237" on="1"/>
        <pt x="670" y="135" on="0"/>
        <pt x="815" y="135" on="1"/>
        <pt x="962" y="135" on="0"/>
        <pt x="962" y="336" on="1"/>
        <pt x="962" y="349" on="0"/>
        <pt x="961" y="363" on="1"/>
        <pt x="961" y="1163" on="1"/>
        <pt x="962" y="1163" on="1"/>
        <pt x="962" y="1220" on="0"/>
        <pt x="964" y="1261" on="1"/>
        <pt x="965" y="1310" on="0"/>
        <pt x="976" y="1395" on="0"/>
        <pt x="995" y="1465" on="0"/>
        <pt x="1063" y="1465" on="1"/>
        <pt x="1121" y="1465" on="0"/>
        <pt x="1121" y="1447" on="1"/>
        <pt x="1121" y="1444" on="0"/>
        <pt x="1119" y="1441" on="1"/>
        <pt x="1108" y="1417" on="0"/>
        <pt x="1096" y="1329" on="0"/>
        <pt x="1093" y="1219" on="0"/>
        <pt x="1093" y="1146" on="1"/>
      </contour>
      <contour>
        <pt x="619" y="1672" on="1"/>
        <pt x="668" y="1672" on="0"/>
        <pt x="762" y="1623" on="0"/>
        <pt x="814" y="1531" on="0"/>
        <pt x="814" y="1481" on="1"/>
        <pt x="814" y="1432" on="0"/>
        <pt x="763" y="1341" on="0"/>
        <pt x="670" y="1291" on="0"/>
        <pt x="619" y="1291" on="1"/>
        <pt x="568" y="1291" on="0"/>
        <pt x="475" y="1341" on="0"/>
        <pt x="423" y="1432" on="0"/>
        <pt x="423" y="1481" on="1"/>
        <pt x="423" y="1531" on="0"/>
        <pt x="476" y="1623" on="0"/>
        <pt x="569" y="1672" on="0"/>
      </contour>
      <contour>
        <pt x="599" y="1564" on="0"/>
        <pt x="560" y="1543" on="0"/>
        <pt x="537" y="1505" on="0"/>
        <pt x="537" y="1484" on="1"/>
        <pt x="537" y="1463" on="0"/>
        <pt x="559" y="1425" on="0"/>
        <pt x="598" y="1404" on="0"/>
        <pt x="619" y="1404" on="1"/>
        <pt x="641" y="1404" on="0"/>
        <pt x="680" y="1425" on="0"/>
        <pt x="701" y="1463" on="0"/>
        <pt x="701" y="1484" on="1"/>
        <pt x="701" y="1505" on="0"/>
        <pt x="679" y="1543" on="0"/>
        <pt x="640" y="1564" on="0"/>
        <pt x="619" y="1564" on="1"/>
      </contour>
    </TTGlyph>
    <TTGlyph name="uni0EA1" xMin="100" yMin="0" xMax="1250" yMax="1140">
      <contour>
        <pt x="192" y="193" on="1"/>
        <pt x="192" y="191" on="1"/>
        <pt x="192" y="144" on="0"/>
        <pt x="233" y="144" on="1"/>
        <pt x="274" y="144" on="0"/>
        <pt x="275" y="193" on="1"/>
        <pt x="275" y="242" on="0"/>
        <pt x="234" y="242" on="1"/>
        <pt x="192" y="242" on="0"/>
      </contour>
      <contour>
        <pt x="509" y="88" on="1"/>
        <pt x="438" y="0" on="0"/>
        <pt x="281" y="0" on="1"/>
        <pt x="105" y="0" on="0"/>
        <pt x="100" y="193" on="1"/>
        <pt x="102" y="326" on="0"/>
        <pt x="238" y="326" on="1"/>
        <pt x="240" y="326" on="1"/>
        <pt x="369" y="325" on="0"/>
        <pt x="369" y="214" on="1"/>
        <pt x="369" y="201" on="1"/>
        <pt x="369" y="156" on="0"/>
        <pt x="342" y="132" on="1"/>
        <pt x="425" y="132" on="0"/>
        <pt x="437" y="293" on="1"/>
        <pt x="437" y="1112" on="1"/>
        <pt x="437" y="1140" on="0"/>
        <pt x="505" y="1140" on="1"/>
        <pt x="572" y="1140" on="0"/>
        <pt x="572" y="1112" on="1"/>
        <pt x="571" y="292" on="1"/>
        <pt x="571" y="291" on="1"/>
        <pt x="571" y="135" on="0"/>
        <pt x="842" y="135" on="1"/>
        <pt x="857" y="134" on="0"/>
        <pt x="872" y="134" on="1"/>
        <pt x="1096" y="134" on="0"/>
        <pt x="1115" y="294" on="1"/>
        <pt x="1115" y="1112" on="1"/>
        <pt x="1115" y="1140" on="0"/>
        <pt x="1183" y="1140" on="1"/>
        <pt x="1250" y="1140" on="0"/>
        <pt x="1250" y="1113" on="1"/>
        <pt x="1250" y="292" on="1"/>
        <pt x="1232" y="0" on="0"/>
        <pt x="841" y="0" on="1"/>
        <pt x="614" y="0" on="0"/>
      </contour>
    </TTGlyph>
</ttFont>
